<svg xmlns="http://www.w3.org/2000/svg" width="34.402" height="36.663" viewBox="0 0 34.402 36.663">
  <path id="Path_446" data-name="Path 446" d="M21.605,36.163q-1.1,0-2.373-.121C9.884,35.154,2.658,28.114,2.052,19.3a17.884,17.884,0,0,1,4.8-13.571A18.092,18.092,0,0,1,20.035,0,17.481,17.481,0,0,1,32.851,5.257a11.073,11.073,0,0,1,3,8.65c-.452,4.946-3.562,5.8-6.306,6.554-1.937.532-3.765,1.034-4.612,2.9-1.146,2.521.18,4.229,1.461,5.881,1.141,1.472,2.321,2.992,1.165,4.807-.9,1.409-2.9,2.117-5.957,2.117ZM20.035,1A17.084,17.084,0,0,0,7.591,6.414,16.89,16.89,0,0,0,3.055,19.231c.572,8.321,7.416,14.97,16.273,15.811,3.952.377,6.508-.154,7.386-1.535.74-1.162.094-2.1-1.111-3.651-1.327-1.711-2.978-3.839-1.581-6.913,1.042-2.292,3.186-2.88,5.26-3.45,2.664-.732,5.183-1.423,5.571-5.677a10.1,10.1,0,0,0-2.744-7.881A16.468,16.468,0,0,0,20.035,1Zm5.147,11.07a3.75,3.75,0,1,1,3.75-3.75A3.755,3.755,0,0,1,25.182,12.075Zm0-6.5a2.746,2.746,0,1,0,2.746,2.746A2.749,2.749,0,0,0,25.182,5.578Zm-10.695,7.6a3.75,3.75,0,1,1,3.75-3.75A3.755,3.755,0,0,1,14.487,13.175Zm0-6.5a2.746,2.746,0,1,0,2.746,2.745A2.749,2.749,0,0,0,14.487,6.679ZM9.847,22.925a3.75,3.75,0,1,1,3.75-3.75A3.755,3.755,0,0,1,9.847,22.925Zm0-6.5a2.746,2.746,0,1,0,2.746,2.745A2.749,2.749,0,0,0,9.847,16.429Zm6.21,14.988a3.75,3.75,0,1,1,3.75-3.75A3.755,3.755,0,0,1,16.057,31.418Zm0-6.5A2.746,2.746,0,1,0,18.8,27.667,2.749,2.749,0,0,0,16.057,24.921Z" transform="translate(-1.753 0.25)" stroke="#000" stroke-width="0.5"/>
</svg>
