<svg xmlns="http://www.w3.org/2000/svg" width="23.311" height="23.321" viewBox="0 0 25.311 25.321">
  <g id="child-head" transform="translate(0 0)">
    <path id="Path_1048" data-name="Path 1048" d="M25.319,12.133a3.693,3.693,0,0,0-2.267-3.4,10.55,10.55,0,0,0-20.783,0,3.693,3.693,0,0,0,1.181,7.088,11.191,11.191,0,0,0,2.185,3.118,9.4,9.4,0,0,0-2.4,5.2,1.055,1.055,0,0,0,.916,1.178,1.154,1.154,0,0,0,.131.008A1.055,1.055,0,0,0,5.329,24.4a7.3,7.3,0,0,1,1.915-4.085,9.44,9.44,0,0,0,5.415,1.843,9.431,9.431,0,0,0,5.4-1.836,7.3,7.3,0,0,1,1.907,4.074,1.055,1.055,0,0,0,1.045.924,1.121,1.121,0,0,0,.132-.008,1.055,1.055,0,0,0,.916-1.177,9.39,9.39,0,0,0-2.385-5.189,11.206,11.206,0,0,0,2.2-3.129,3.693,3.693,0,0,0,3.448-3.682Zm-3.958,1.554a1.048,1.048,0,0,0-1.178.687c-.966,2.741-4.221,5.672-7.523,5.672S6.1,17.112,5.136,14.371a1.049,1.049,0,0,0-1.178-.687,1.694,1.694,0,0,1-.266.031,1.583,1.583,0,0,1-.285-3.135,1.055,1.055,0,0,0,.861-.926A8.4,8.4,0,0,1,8.577,3.165a4.3,4.3,0,0,0-.023,2.049,4.22,4.22,0,0,0,8.111.335,1.031,1.031,0,0,0-1-1.329h-.159a.915.915,0,0,0-.85.666,2.11,2.11,0,1,1-2-2.776,8.417,8.417,0,0,1,8.391,7.543,1.055,1.055,0,0,0,.861.926,1.583,1.583,0,0,1-.285,3.135,1.694,1.694,0,0,1-.266-.028Z" transform="translate(-0.008 0)" fill="#fff"/>
    <ellipse id="Ellipse_40" data-name="Ellipse 40" cx="1.266" cy="1.266" rx="1.266" ry="1.266" transform="translate(8.673 10.852)" fill="#fff"/>
    <ellipse id="Ellipse_41" data-name="Ellipse 41" cx="1.266" cy="1.266" rx="1.266" ry="1.266" transform="translate(14.098 10.852)" fill="#fff"/>
  </g>
</svg>
