<svg xmlns="http://www.w3.org/2000/svg" width="16.933" height="16.012" viewBox="0 0 16.933 20.012">
  <path id="Icon_ionic-md-notifications-outline" data-name="Icon ionic-md-notifications-outline" d="M14.14,6.861a6.954,6.954,0,0,1,1.15.215,4.9,4.9,0,0,1,3.737,4.8v6.139l.448.45.375.376H8.333l.375-.376.448-.45V11.88a4.9,4.9,0,0,1,3.737-4.8,8.516,8.516,0,0,1,1.15-.215m.048-3.486a1.471,1.471,0,0,0-1.494,1.5v.7a6.485,6.485,0,0,0-4.98,6.3v5.5l-1.992,2v1H22.558v-1l-1.992-2v-5.5a6.485,6.485,0,0,0-4.98-6.3v-.7a1.471,1.471,0,0,0-1.494-1.5Zm1.992,18.011H12.1a1.992,1.992,0,1,0,3.984,0Z" transform="translate(-5.625 -3.375)"/>
</svg>
