<svg xmlns="http://www.w3.org/2000/svg" width="23.313" height="23.321" viewBox="0 0 25.313 25.321">
  <path id="wheelchair" d="M24.252,22.144H22.9L21.511,17.98a3.163,3.163,0,0,0-3-2.163H14.762a2.109,2.109,0,0,1-2.109-2.109H18.98a1.054,1.054,0,0,0,0-2.109H12.653V8.436a1.082,1.082,0,0,0-.028-.141,4.218,4.218,0,1,0-2.052,0,1.082,1.082,0,0,0-.028.141v5.272a4.218,4.218,0,0,0,4.124,4.208A6.327,6.327,0,1,1,7.531,10.61a1.055,1.055,0,1,0-.3-2.089,8.435,8.435,0,1,0,9.567,9.4h1.717a1.054,1.054,0,0,1,1,.721l1.628,4.884a1.054,1.054,0,0,0,1,.721h2.109a1.054,1.054,0,0,0,0-2.109ZM9.49,4.218A2.109,2.109,0,1,1,11.6,6.327,2.109,2.109,0,0,1,9.49,4.218Z" transform="translate(0.006 0.014)" fill="#fff"/>
</svg>
