<svg xmlns="http://www.w3.org/2000/svg" width="16.501" height="16.535" viewBox="0 0 18.501 18.535">
  <path id="Icon_feather-phone" data-name="Icon feather-phone" d="M20.167,15.753v2.564a1.71,1.71,0,0,1-1.863,1.71A16.916,16.916,0,0,1,10.927,17.4,16.668,16.668,0,0,1,5.8,12.274,16.916,16.916,0,0,1,3.175,4.863,1.71,1.71,0,0,1,4.876,3H7.44A1.71,1.71,0,0,1,9.15,4.47a10.975,10.975,0,0,0,.6,2.4,1.71,1.71,0,0,1-.385,1.8L8.278,9.761a13.676,13.676,0,0,0,5.129,5.129L14.492,13.8a1.71,1.71,0,0,1,1.8-.385,10.975,10.975,0,0,0,2.4.6,1.71,1.71,0,0,1,1.47,1.735Z" transform="translate(-2.417 -2.25)" fill="rgba(0,0,0,0)" stroke="#ee8436" stroke-linecap="round" stroke-linejoin="round" stroke-width="1.5"/>
</svg>
