<svg xmlns="http://www.w3.org/2000/svg" width="220" height="136.099" viewBox="0 0 252 166.099">
  <g id="Group_443" data-name="Group 443" transform="translate(0)">
    <path id="Path_680" data-name="Path 680" d="M104.537,145.8C69.607,159.609,0,160.04,0,121.646c0-9.922,3.358-38.826,35.685-49.611S49.12,24.582,122.17,9.483,213.693,35.367,238.042,64.7s17.213,75.494-24.35,67.3S148.2,128.548,104.537,145.8Z" transform="translate(0 -0.76)" fill="rgba(21,101,192,0.25)"/>
    <rect id="Rectangle_180" data-name="Rectangle 180" width="91.25" height="0.631" rx="0.316" transform="translate(150.992 147.851)" fill="#a0a0a0"/>
    <rect id="Rectangle_181" data-name="Rectangle 181" width="91.25" height="0.631" rx="0.316" transform="translate(20.479 165.467)" fill="#a0a0a0"/>
    <path id="Path_681" data-name="Path 681" d="M148.823,10.21H94.25a2.588,2.588,0,0,0-2.528,2.644V115.827a2.589,2.589,0,0,0,2.528,2.645h74a2.589,2.589,0,0,0,2.528-2.645V45.517C170.777,44.057,148.823,10.21,148.823,10.21Z" transform="translate(-13.292 -1.335)" fill="rgba(21,101,192,0.65)"/>
    <path id="Path_682" data-name="Path 682" d="M229.4,69.687c-.336,0-11.187,3.1-11.187,3.1l-18.529-4.907-1.742-1.36s-.788-3.982-.822-4.3-.283-1.168-.947-1.042-.506.915-.443,1.39.422,6.2.549,7.4,1.176,1.9,2.406,2.5c0,0,11.8,5.784,18.941,6.909,0,0,7.289.928,12.725-.652,5.7-1.656-.948-9.038-.948-9.038Z" transform="translate(-28.354 -8.718)" fill="#fff" stroke="#424242" stroke-linecap="round" stroke-linejoin="round" stroke-width="1"/>
    <path id="Path_683" data-name="Path 683" d="M248.281,65.253a113.4,113.4,0,0,0-16.206,4.528c-1.228.435-2.133,11.885,1.328,11.445a47.392,47.392,0,0,0,11.943-3.615l2.932-12.36Z" transform="translate(-33.471 -9.311)" fill="#fff"/>
    <path id="Path_684" data-name="Path 684" d="M246.687,57.22l-1.84-9.756L233.007,50.2a40.732,40.732,0,0,0,2.31,8.851,4.823,4.823,0,0,0,4.21,2.677l1.183,6.48s4.493,4.857,8.666-2.071l-2.688-8.917Z" transform="translate(-33.765 -6.733)" fill="#fff"/>
    <path id="Path_685" data-name="Path 685" d="M240.661,63.462l1.158,6.32s4.381,3.077,8.667-2.071l-2.812-9.377" transform="translate(-34.874 -8.308)" fill="none" stroke="#424242" stroke-linecap="round" stroke-linejoin="round" stroke-width="1"/>
    <path id="Path_686" data-name="Path 686" d="M243.861,63.437a8.247,8.247,0,0,0,.763-.422" transform="translate(-35.338 -8.987)" fill="none" stroke="#424242" stroke-linecap="round" stroke-linejoin="round" stroke-width="1"/>
    <path id="Path_687" data-name="Path 687" d="M233.007,50.662a40.732,40.732,0,0,0,2.31,8.851,4.774,4.774,0,0,0,5.592,2.632" transform="translate(-33.765 -7.197)" fill="none" stroke="#424242" stroke-linecap="round" stroke-linejoin="round" stroke-width="1"/>
    <path id="Path_688" data-name="Path 688" d="M246.343,56.514s-2.467-.01-3.322-1.719c0,0,1.942-.025,1.915-1.552s-1.685-1.378-2.468-.119c0,0-.253-.718-.465-1.441a1.017,1.017,0,0,0-1.213-.7c-1.684.4-5.491,1.426-8.189.493-3.663-1.267-2.2-7.584,4.334-8.482s8.227-.6,9.8,4.356a15.532,15.532,0,0,1-.4,9.162Z" transform="translate(-33.421 -6.028)" fill="#424242"/>
    <path id="Path_689" data-name="Path 689" d="M232.845,160.005l2.215,6.879,7.41-.051-2.27-7.983Z" transform="translate(-33.742 -22.874)" fill="#fff" stroke="#424242" stroke-linecap="round" stroke-linejoin="round" stroke-width="1"/>
    <path id="Path_690" data-name="Path 690" d="M236.257,108.757s-6.194,7.565-11.5,15.023c-4.33,6.082,5.658,31.318,5.658,31.318l10.772-1.373-5.056-24.257s16.433-5.436,17.57-23.006l-17.444,2.3Z" transform="translate(-32.412 -15.283)" fill="#424242"/>
    <path id="Path_691" data-name="Path 691" d="M241.519,167.473l-8.063-.65s-7.617,3.19-8.459,4.741c-.693,1.274,11.553.951,15.927.794a1.306,1.306,0,0,0,1.236-1.552l-.64-3.332Z" transform="translate(-32.601 -24.03)" fill="#424242"/>
    <path id="Path_692" data-name="Path 692" d="M259.158,160.005l2.215,6.879,7.409-.051-2.27-7.983Z" transform="translate(-37.555 -22.874)" fill="#fff" stroke="#424242" stroke-linecap="round" stroke-linejoin="round" stroke-width="1"/>
    <path id="Path_693" data-name="Path 693" d="M267.833,167.473l-8.063-.65s-7.617,3.19-8.459,4.741c-.693,1.274,11.554.951,15.928.794a1.306,1.306,0,0,0,1.237-1.552l-.64-3.332Z" transform="translate(-36.414 -24.03)" fill="#424242"/>
    <path id="Path_694" data-name="Path 694" d="M249.5,108.126c-2.275,2.933-1.813,16.938-.829,22.21,1.009,5.42,7.362,24.055,7.362,24.055l11.124-1.6-5.562-23.258s1.181-15.591.3-23.807c-.339-3.137-6.952-4.6-12.388,2.4Z" transform="translate(-35.917 -14.797)" fill="#424242"/>
    <path id="Path_695" data-name="Path 695" d="M246.688,41.725a3.762,3.762,0,0,1-.9,2.981" transform="translate(-35.617 -5.901)" fill="none" stroke="#424242" stroke-linecap="round" stroke-linejoin="round" stroke-width="2"/>
    <path id="Path_696" data-name="Path 696" d="M248.571,43.176a3.759,3.759,0,0,0-2.387,2" transform="translate(-35.675 -6.112)" fill="none" stroke="#424242" stroke-linecap="round" stroke-linejoin="round" stroke-width="2"/>
    <path id="Path_697" data-name="Path 697" d="M248.949,65.249s-2.394,3.335-8.745,2.149c0,0-5.254,1.674-4.558,12.737.632,10.054,1.894,23.173,1.894,23.173s12.815,3.562,23.433-3.074c0,0-1.372-13.905-3.238-23.583C256.669,71.127,253.9,64.779,248.949,65.249Z" transform="translate(-34.138 -9.307)" fill="#fff"/>
    <path id="Path_698" data-name="Path 698" d="M237.679,70.279c-1.2,1.707-2.406,4.69-2.038,10.588" transform="translate(-34.137 -10.039)" fill="none" stroke="#fff" stroke-linecap="round" stroke-linejoin="round" stroke-width="1"/>
    <path id="Path_699" data-name="Path 699" d="M230.725,74.417c-.336,0-11.187,3.1-11.187,3.1l-18.529-4.907-1.742-1.36s-.788-3.982-.822-4.3-.283-1.168-.947-1.042-.506.915-.443,1.39.422,6.2.549,7.4,1.176,1.9,2.406,2.5c0,0,11.8,5.784,18.941,6.909,0,0,7.289.928,12.725-.652,5.7-1.656-.948-9.038-.948-9.038Z" transform="translate(-28.546 -9.404)" fill="#fff" stroke="#424242" stroke-linecap="round" stroke-linejoin="round" stroke-width="1"/>
    <path id="Path_700" data-name="Path 700" d="M250.388,69.921A111.508,111.508,0,0,0,233.409,74.5c-1.229.435-2.133,11.885,1.328,11.445a47.393,47.393,0,0,0,11.942-3.615Z" transform="translate(-33.664 -9.987)" fill="#fff"/>
    <path id="Path_701" data-name="Path 701" d="M238.243,131.613a28.816,28.816,0,0,0,13.318-10.353" transform="translate(-34.524 -17.427)" fill="none" stroke="#fff" stroke-linecap="round" stroke-linejoin="round" stroke-width="1"/>
    <path id="Path_702" data-name="Path 702" d="M250.722,75.734s-.7-5.12-5.245-4.108-12.052,2.928-12.052,2.928a8.8,8.8,0,0,0-1.1,4.783c0,3.223.063,7.332,3.16,6.73l7.142-1.613" transform="translate(-33.667 -10.215)" fill="none" stroke="#fff" stroke-linecap="round" stroke-linejoin="round" stroke-width="1"/>
    <path id="Path_703" data-name="Path 703" d="M107.853,1H166l17.7,17.7v81.457a2.529,2.529,0,0,1-2.528,2.529H107.853a2.53,2.53,0,0,1-2.528-2.529V3.528A2.529,2.529,0,0,1,107.853,1Z" transform="translate(-15.263)" fill="rgba(21,101,192,0.65)" stroke="#1565c0" stroke-linecap="round" stroke-linejoin="round" stroke-width="2"/>
    <path id="Path_704" data-name="Path 704" d="M107.853,1H166V18.7h17.7v81.457a2.529,2.529,0,0,1-2.528,2.529H107.853a2.53,2.53,0,0,1-2.528-2.529V3.528A2.529,2.529,0,0,1,107.853,1Z" transform="translate(-15.263)" fill="#fff" stroke="#1565c0" stroke-linecap="round" stroke-linejoin="round" stroke-width="1"/>
    <path id="Path_705" data-name="Path 705" d="M124.668,35.556a6.884,6.884,0,1,0-6.884-6.884A6.884,6.884,0,0,0,124.668,35.556Z" transform="translate(-17.068 -3.012)" fill="#388e3c"/>
    <path id="Path_706" data-name="Path 706" d="M123.122,29.35l1.845,1.846,2.791-3.264" transform="translate(-17.842 -3.903)" fill="none" stroke="#fff" stroke-linecap="round" stroke-linejoin="round" stroke-width="2"/>
    <path id="Path_707" data-name="Path 707" d="M99.823,69.587A6.884,6.884,0,1,0,92.939,62.7,6.884,6.884,0,0,0,99.823,69.587Z" transform="translate(-13.468 -7.944)" fill="#388e3c"/>
    <path id="Path_708" data-name="Path 708" d="M98.28,63.38l1.846,1.846,2.791-3.266" transform="translate(-14.242 -8.834)" fill="none" stroke="#fff" stroke-linecap="round" stroke-linejoin="round" stroke-width="2"/>
    <path id="Path_709" data-name="Path 709" d="M163.33,23.612H143.471a1.686,1.686,0,0,0,0,3.373H163.33a1.686,1.686,0,0,0,0-3.373Z" transform="translate(-20.546 -3.277)" fill="#ececec"/>
    <path id="Path_710" data-name="Path 710" d="M176.345,31.808H143.471a1.686,1.686,0,0,0,0,3.373h32.874a1.686,1.686,0,0,0,0-3.373Z" transform="translate(-20.546 -4.464)" fill="#ececec"/>
    <path id="Path_711" data-name="Path 711" d="M163.33,48.252H143.471a1.686,1.686,0,1,0,0,3.372H163.33a1.686,1.686,0,0,0,0-3.372Z" transform="translate(-20.546 -6.847)" fill="#ececec"/>
    <path id="Path_712" data-name="Path 712" d="M176.345,56.445H143.471a1.686,1.686,0,0,0,0,3.373h32.874a1.686,1.686,0,0,0,0-3.373Z" transform="translate(-20.546 -8.035)" fill="#ececec"/>
    <path id="Path_713" data-name="Path 713" d="M124.668,84.833a6.884,6.884,0,1,0-6.884-6.884A6.885,6.885,0,0,0,124.668,84.833Z" transform="translate(-17.068 -10.153)" fill="#388e3c"/>
    <path id="Path_714" data-name="Path 714" d="M123.122,78.627l1.845,1.843,2.791-3.264" transform="translate(-17.842 -11.043)" fill="none" stroke="#fff" stroke-linecap="round" stroke-linejoin="round" stroke-width="2"/>
    <path id="Path_715" data-name="Path 715" d="M163.33,72.89H143.471a1.686,1.686,0,0,0,0,3.373H163.33a1.686,1.686,0,0,0,0-3.373Z" transform="translate(-20.546 -10.418)" fill="#ececec"/>
    <path id="Path_716" data-name="Path 716" d="M176.345,81.082H143.471a1.686,1.686,0,0,0,0,3.373h32.874a1.686,1.686,0,0,0,0-3.373Z" transform="translate(-20.546 -11.605)" fill="#ececec"/>
    <path id="Path_717" data-name="Path 717" d="M124.668,109.163a6.884,6.884,0,1,0-6.884-6.884A6.884,6.884,0,0,0,124.668,109.163Z" transform="translate(-17.068 -13.679)" fill="#388e3c"/>
    <path id="Path_718" data-name="Path 718" d="M123.122,102.957l1.845,1.845,2.791-3.266" transform="translate(-17.842 -14.569)" fill="none" stroke="#fff" stroke-linecap="round" stroke-linejoin="round" stroke-width="2"/>
    <path id="Path_719" data-name="Path 719" d="M163.33,97.525H143.471a1.686,1.686,0,1,0,0,3.372H163.33a1.686,1.686,0,1,0,0-3.372Z" transform="translate(-20.546 -13.988)" fill="#ececec"/>
    <path id="Path_720" data-name="Path 720" d="M176.345,105.723H143.471a1.686,1.686,0,1,0,0,3.372h32.874a1.686,1.686,0,0,0,0-3.372Z" transform="translate(-20.546 -15.176)" fill="#ececec"/>
    <path id="Path_721" data-name="Path 721" d="M82.631,59.479s2.89-3.077,3.643-3.964c.6-.705-.089-1.482-.885-.789-.946.822-2.222,1.995-2.222,1.995s1.77-2.2,2.5-3.264c.546-.794-.233-1.7-1.082-.713-1.191,1.39-2.445,2.869-2.445,2.869s1.7-2.809,2.508-4.03c.7-1.059-.215-2.379-1.216-.925s-2.4,3.456-2.4,3.456,1.31-3.226,1.6-4.207c.377-1.259-.521-2.313-1.348-.506-.614,1.342-2.131,4.189-2.9,5.618-.121-.3-1.246-3.026-2.156-2.768-.614.174-.382.87-.382.87L77.355,58,72.387,73.563,64.36,79.522l5.228,7.433a28.774,28.774,0,0,0,8.047-8.641c1.689-2.69,5-18.84,5-18.84Z" transform="translate(-9.327 -6.874)" fill="#fff" stroke="#424242" stroke-linecap="round" stroke-linejoin="round" stroke-width="1"/>
    <path id="Path_722" data-name="Path 722" d="M52.886,89.461s3.6-3.752,12.406-8.57c1.143-.627,9.094,7.276,6.454,9.559a47.439,47.439,0,0,1-10.666,6.477l-8.194-7.463Z" transform="translate(-7.664 -11.572)" fill="#388e3c"/>
    <path id="Path_723" data-name="Path 723" d="M46.161,177.892l-3.077,7.648-7.19-1.793,3.051-7.657Z" transform="translate(-5.202 -25.372)" fill="#fff" stroke="#424242" stroke-linecap="round" stroke-linejoin="round" stroke-width="1"/>
    <path id="Path_724" data-name="Path 724" d="M35.559,184.406l7.989,1.267s6.654,4.894,7.107,6.6c.374,1.4-11.452-1.795-15.667-2.973a1.306,1.306,0,0,1-.837-1.8l1.406-3.089Z" transform="translate(-4.932 -26.578)" fill="#424242"/>
    <path id="Path_725" data-name="Path 725" d="M45.364,128.743s-.721,6.035-1.251,12.934c-.675,8.766-5.772,19.171-10.492,28.272l15.379,4a80.933,80.933,0,0,0,8.426-44.5l-12.064-.713Z" transform="translate(-4.872 -18.511)" fill="#424242"/>
    <path id="Path_726" data-name="Path 726" d="M72.179,179.509l-.455,7.976-7.41-.048.427-7.987Z" transform="translate(-9.32 -25.86)" fill="#fff" stroke="#424242" stroke-linecap="round" stroke-linejoin="round" stroke-width="1"/>
    <path id="Path_727" data-name="Path 727" d="M63.976,188.075l8.062-.65s7.617,3.19,8.459,4.74c.693,1.275-11.554.951-15.927.794a1.306,1.306,0,0,1-1.236-1.553l.64-3.331Z" transform="translate(-9.174 -27.015)" fill="#424242"/>
    <path id="Path_728" data-name="Path 728" d="M68.187,126.179s10.547,17.947,9.283,47.652H60.151s.8-21.489-.083-27.177-5.436-10.871-6.194-18.582Z" transform="translate(-7.807 -18.14)" fill="#424242"/>
    <path id="Path_729" data-name="Path 729" d="M60.455,151.175c-.066-1.406-.159-2.589-.288-3.428-.751-4.818-4.131-8.368-5.607-14.031" transform="translate(-7.906 -19.232)" fill="none" stroke="#fff" stroke-linecap="round" stroke-linejoin="round" stroke-width="2"/>
    <path id="Path_730" data-name="Path 730" d="M96.761,85.082c-1.4-.3-4.41-1.138-5.921-1.565C91.1,83.341,93.441,81.7,93,80.9c-.293-.544-.9-.179-.9-.179l-4.3,2.445a8.12,8.12,0,0,0-3.39,4.4L79.632,101.3,75.375,98.1l-4.968,7.276s1.658,1.5,5.57,4.515c4.455,3.438,8.441-.078,9.622-5.772.374-1.8,3.14-12.926,3.458-14.686h.03l.005-.035c1.069.627,2.384,1.393,2.935,1.681.791.417,1.383-.394.559-1-.976-.72-2.354-1.684-2.354-1.684s2.447,1.211,3.61,1.684c.867.351,1.562-.576.447-1.173-1.562-.834-3.226-1.709-3.226-1.709s3.014,1.024,4.336,1.527c1.148.437,2.2-.7.619-1.342s-3.772-1.547-3.772-1.547,3.325.561,4.313.635c1.269.091,2.078-.978.195-1.38Z" transform="translate(-10.203 -11.535)" fill="#fff" stroke="#424242" stroke-linecap="round" stroke-linejoin="round" stroke-width="1"/>
    <path id="Path_731" data-name="Path 731" d="M66.817,72.487a3,3,0,1,0-3-3A3,3,0,0,0,66.817,72.487Z" transform="translate(-9.248 -9.49)" fill="#424242"/>
    <path id="Path_732" data-name="Path 732" d="M53.01,79.811l.035-9.928,12.14.539a40.794,40.794,0,0,1-.662,9.124,4.882,4.882,0,0,1-4.1,3.524l-.1,6.609s-2.981,5.443-8.343-.609l1.024-9.255Z" transform="translate(-7.533 -9.982)" fill="#fff"/>
    <path id="Path_733" data-name="Path 733" d="M60.425,84.669l-.1,6.609s-2.981,5.443-8.343-.609l1.059-9.731" transform="translate(-7.533 -11.584)" fill="none" stroke="#424242" stroke-linecap="round" stroke-linejoin="round" stroke-width="2"/>
    <path id="Path_734" data-name="Path 734" d="M50.947,90.771s2.349,2.505,8.6.865c0,0,5.087-.233,5.276,8.262.21,9.483,2.751,24.12,2.751,24.12s-7.741,5.813-22.278,2.4a126.005,126.005,0,0,1-.518-21.529c.422-9.018,2.255-12.724,6.174-14.115Z" transform="translate(-6.461 -13.009)" fill="#388e3c"/>
    <path id="Path_735" data-name="Path 735" d="M63.386,92.51a121.652,121.652,0,0,1,11.463,8.224c1.484,1.3-.3,3.61-1.767,5.9-1.411,2.2-3.7,4.591-5.12,3.411-2.073-1.732-11.283-10.174-11.283-10.174l6.707-7.357Z" transform="translate(-8.213 -13.261)" fill="#388e3c"/>
    <path id="Path_736" data-name="Path 736" d="M66.8,93.785a100.863,100.863,0,0,1,9.432,6.9c1.484,1.3-.3,3.61-1.767,5.9" transform="translate(-9.679 -13.446)" fill="none" stroke="#fff" stroke-linecap="round" stroke-linejoin="round" stroke-width="1"/>
    <path id="Path_737" data-name="Path 737" d="M74.063,108.589c-1.411,2.2-3.7,4.592-5.12,3.411-.837-.7-2.834-2.487-4.92-4.376" transform="translate(-9.278 -15.451)" fill="none" stroke="#fff" stroke-linecap="round" stroke-linejoin="round" stroke-width="1"/>
    <path id="Path_738" data-name="Path 738" d="M64.939,70.684s-1.067,3.274-6.04,2.432l-.253,1.517s-2.4-2.275-2.991.253S58.227,76.4,58.227,76.4s-.24,4.632-5.339,3.241c-3.2-.872-2.991-5.688-1.853-9.69,1.4-4.94,6.856-5.433,9.215-5.18S65.753,66.568,64.939,70.684Z" transform="translate(-7.285 -9.234)" fill="#424242"/>
    <path id="Path_739" data-name="Path 739" d="M66.433,70.513a40.8,40.8,0,0,1-.662,9.124A4.737,4.737,0,0,1,62.934,82.9a5.866,5.866,0,0,1-2.339.225" transform="translate(-8.781 -10.073)" fill="none" stroke="#424242" stroke-linecap="round" stroke-linejoin="round" stroke-width="2"/>
    <path id="Path_740" data-name="Path 740" d="M50.7,72.213s-5.478-1.348-3.876,6.32,3.37,19.383-5.478,17.949S32.838,90.5,37.895,82.242,45.057,69.1,51.21,70.782L50.7,72.215Z" transform="translate(-4.977 -10.064)" fill="#424242"/>
  </g>
</svg>
