<svg xmlns="http://www.w3.org/2000/svg" width="15.615" height="15.615" viewBox="0 0 15.615 15.615">
  <path id="Icon_ionic-ios-checkmark-circle" data-name="Icon ionic-ios-checkmark-circle" d="M11.183,3.375a7.808,7.808,0,1,0,7.808,7.808A7.806,7.806,0,0,0,11.183,3.375Zm4,5.649-5.019,5.041h0a.678.678,0,0,1-.435.206.657.657,0,0,1-.439-.214l-2.1-2.1a.15.15,0,0,1,0-.214l.668-.668a.145.145,0,0,1,.21,0L9.726,12.74l4.579-4.613a.148.148,0,0,1,.105-.045h0a.136.136,0,0,1,.105.045l.657.679A.148.148,0,0,1,15.18,9.024Z" transform="translate(-3.375 -3.375)" fill="#13ac1e"/>
</svg>
