<svg xmlns="http://www.w3.org/2000/svg" width="16.067" height="12.764" viewBox="0 0 19.067 15.764">
  <path id="Path_676" data-name="Path 676" d="M1,4.566H18.567M1,5.279H18.567M3.7,10.272H9.108M3.7,12.411h2.7M3.027,15.264H16.54a1.975,1.975,0,0,0,1.433-.627,2.2,2.2,0,0,0,.594-1.513V3.14a2.2,2.2,0,0,0-.594-1.513A1.975,1.975,0,0,0,16.54,1H3.027a1.974,1.974,0,0,0-1.433.627A2.2,2.2,0,0,0,1,3.14v9.985a2.2,2.2,0,0,0,.594,1.513A1.974,1.974,0,0,0,3.027,15.264Z" transform="translate(-0.25 -0.25)" fill="none" stroke="#424242" stroke-linecap="round" stroke-linejoin="round" stroke-width="1.5"/>
</svg>
