<svg xmlns="http://www.w3.org/2000/svg" width="34.852" height="34.852" viewBox="0 0 34.852 34.852">
  <g id="Group_219" data-name="Group 219" transform="translate(-108.821 -13.12)">
    <path id="Path_642" data-name="Path 642" d="M30.09,0H3.761A3.772,3.772,0,0,0,0,3.761V30.09a3.772,3.772,0,0,0,3.761,3.761H30.09a3.772,3.772,0,0,0,3.761-3.761V3.761A3.772,3.772,0,0,0,30.09,0Z" transform="translate(109.321 13.62)" fill="none" stroke="#000" stroke-width="1"/>
    <path id="Path_643" data-name="Path 643" d="M8.463,28.21a2.821,2.821,0,1,1,2.821-2.821A2.817,2.817,0,0,1,8.463,28.21Zm0-16.926a2.821,2.821,0,1,1,2.821-2.821A2.817,2.817,0,0,1,8.463,11.284Zm8.463,8.463a2.821,2.821,0,1,1,2.821-2.821A2.817,2.817,0,0,1,16.926,19.747Zm8.463,8.463a2.821,2.821,0,1,1,2.821-2.821A2.817,2.817,0,0,1,25.389,28.21Zm0-16.926A2.821,2.821,0,1,1,28.21,8.463,2.817,2.817,0,0,1,25.389,11.284Z" transform="translate(109.321 13.62)"/>
  </g>
</svg>
