<svg xmlns="http://www.w3.org/2000/svg" xmlns:xlink="http://www.w3.org/1999/xlink" width="150.817" height="160.708" viewBox="0 0 190.817 160.708">
  <defs>
    <clipPath id="clip-path">
      <rect id="Rectangle_98" data-name="Rectangle 98" width="173.292" height="160.594" fill="none"/>
    </clipPath>
    <clipPath id="clip-path-2">
      <path id="Path_588" data-name="Path 588" d="M36.769,161.594h99.753c22.234-15.327,36.769-40.6,36.769-69.209C173.292,45.625,134.5,1,86.646,1S0,45.625,0,92.385c0,28.608,14.536,53.883,36.769,69.209" transform="translate(0 -1)" fill="none"/>
    </clipPath>
    <clipPath id="clip-path-3">
      <rect id="Rectangle_356" data-name="Rectangle 356" width="4.015" height="12.563" fill="#b5ccd3"/>
    </clipPath>
    <clipPath id="clip-path-4">
      <rect id="Rectangle_357" data-name="Rectangle 357" width="6.352" height="25.487" fill="none"/>
    </clipPath>
    <clipPath id="clip-path-5">
      <rect id="Rectangle_358" data-name="Rectangle 358" width="21.01" height="23.971" fill="none"/>
    </clipPath>
    <clipPath id="clip-path-6">
      <rect id="Rectangle_359" data-name="Rectangle 359" width="7.568" height="6.155" fill="#b0ced9"/>
    </clipPath>
    <clipPath id="clip-path-7">
      <rect id="Rectangle_360" data-name="Rectangle 360" width="0.081" height="0.154" fill="none"/>
    </clipPath>
  </defs>
  <g id="Group_906" data-name="Group 906" transform="translate(-7.768 -3.041)">
    <g id="Group_902" data-name="Group 902" transform="translate(7.768 3.041)">
      <g id="Group_899" data-name="Group 899" transform="translate(0 0)">
        <g id="Group_903" data-name="Group 903">
          <g id="Group_904" data-name="Group 904" transform="translate(6.629)" opacity="0.42">
            <g id="Group_171" data-name="Group 171">
              <g id="Group_170" data-name="Group 170" clip-path="url(#clip-path)">
                <g id="Group_169" data-name="Group 169">
                  <g id="Group_168" data-name="Group 168" clip-path="url(#clip-path-2)">
                    <rect id="Rectangle_97" data-name="Rectangle 97" width="173.292" height="160.594" fill="#ededed"/>
                  </g>
                </g>
              </g>
            </g>
          </g>
          <path id="Path_989" data-name="Path 989" d="M423.407,1726.555c0,1.362-31.717,2.466-70.843,2.466s-70.843-1.1-70.843-2.466,31.717-2.466,70.843-2.466,70.843,1.1,70.843,2.466" transform="translate(-263.88 -1569.29)" fill="#eaf4f7"/>
          <path id="Path_993" data-name="Path 993" d="M376.629,89.1a1.863,1.863,0,1,1-1.863-1.862,1.863,1.863,0,0,1,1.863,1.862" transform="translate(-346.711 -82.366)" fill="#e5e1f9"/>
          <rect id="Rectangle_342" data-name="Rectangle 342" width="120.036" height="120.036" transform="translate(36.715 35.081)" fill="#fff"/>
          <rect id="Rectangle_343" data-name="Rectangle 343" width="120.036" height="28.877" transform="translate(36.715 35.081)" fill="#ee8436"/>
          <rect id="Rectangle_344" data-name="Rectangle 344" width="19.251" height="12.457" transform="translate(47.096 77.169)" fill="#f7f7f7"/>
          <rect id="Rectangle_345" data-name="Rectangle 345" width="19.251" height="12.457" transform="translate(74.022 77.169)" fill="#f7f7f7"/>
          <rect id="Rectangle_346" data-name="Rectangle 346" width="19.251" height="12.457" transform="translate(100.948 77.169)" fill="#f7f7f7"/>
          <rect id="Rectangle_347" data-name="Rectangle 347" width="19.251" height="12.457" transform="translate(127.875 77.169)" fill="#f7f7f7"/>
          <rect id="Rectangle_348" data-name="Rectangle 348" width="19.251" height="12.457" transform="translate(47.096 100.384)" fill="#f7f7f7"/>
          <rect id="Rectangle_349" data-name="Rectangle 349" width="19.251" height="12.457" transform="translate(74.022 100.384)" fill="#f7f7f7"/>
          <rect id="Rectangle_350" data-name="Rectangle 350" width="19.251" height="12.457" transform="translate(100.948 100.384)" fill="#f7f7f7"/>
          <rect id="Rectangle_351" data-name="Rectangle 351" width="19.251" height="12.457" transform="translate(127.875 100.384)" fill="#f7f7f7"/>
          <rect id="Rectangle_352" data-name="Rectangle 352" width="19.251" height="12.457" transform="translate(47.096 123.598)" fill="#f7f7f7"/>
          <rect id="Rectangle_353" data-name="Rectangle 353" width="19.251" height="12.457" transform="translate(74.022 123.598)" fill="#f7f7f7"/>
          <rect id="Rectangle_354" data-name="Rectangle 354" width="19.251" height="12.457" transform="translate(100.948 123.598)" fill="#f7f7f7"/>
          <rect id="Rectangle_355" data-name="Rectangle 355" width="19.251" height="12.457" transform="translate(127.875 123.598)" fill="#e5e1f9"/>
          <path id="Path_994" data-name="Path 994" d="M644.559,544.494a3.822,3.822,0,1,1-3.822-3.822,3.822,3.822,0,0,1,3.822,3.822" transform="translate(-586.54 -494.267)" fill="#f7f7f7"/>
          <path id="Path_995" data-name="Path 995" d="M876.759,544.494a3.822,3.822,0,1,1-3.822-3.822,3.822,3.822,0,0,1,3.822,3.822" transform="translate(-797.472 -494.267)" fill="#f7f7f7"/>
          <path id="Path_996" data-name="Path 996" d="M1108.961,544.494a3.822,3.822,0,1,1-3.822-3.822,3.822,3.822,0,0,1,3.822,3.822" transform="translate(-1008.406 -494.267)" fill="#f7f7f7"/>
          <path id="Path_997" data-name="Path 997" d="M1341.161,544.494a3.822,3.822,0,1,1-3.822-3.822,3.822,3.822,0,0,1,3.822,3.822" transform="translate(-1219.337 -494.267)" fill="#f7f7f7"/>
          <path id="Path_998" data-name="Path 998" d="M1573.362,544.494a3.822,3.822,0,1,1-3.822-3.822,3.822,3.822,0,0,1,3.822,3.822" transform="translate(-1430.27 -494.267)" fill="#f7f7f7"/>
          <path id="Path_999" data-name="Path 999" d="M661.3,400.106h0a1.982,1.982,0,0,1-1.982-1.982V383.474a1.982,1.982,0,0,1,1.982-1.982h0a1.982,1.982,0,0,1,1.982,1.982v14.651a1.982,1.982,0,0,1-1.982,1.982" transform="translate(-606.895 -349.667)" fill="#aac6ce"/>
          <path id="Path_1000" data-name="Path 1000" d="M890.029,400.106h0a1.982,1.982,0,0,1-1.982-1.982V383.474a1.982,1.982,0,0,1,3.963,0v14.651a1.982,1.982,0,0,1-1.982,1.982" transform="translate(-814.67 -349.667)" fill="#aac6ce"/>
          <path id="Path_1001" data-name="Path 1001" d="M1123.388,400.106h0a1.982,1.982,0,0,1-1.982-1.982V383.474a1.982,1.982,0,0,1,3.964,0v14.651a1.982,1.982,0,0,1-1.982,1.982" transform="translate(-1026.655 -349.667)" fill="#aac6ce"/>
          <path id="Path_1002" data-name="Path 1002" d="M1355.2,400.106h0a1.982,1.982,0,0,1-1.982-1.982V383.474a1.982,1.982,0,0,1,3.964,0v14.651a1.982,1.982,0,0,1-1.982,1.982" transform="translate(-1237.237 -349.667)" fill="#aac6ce"/>
          <path id="Path_1003" data-name="Path 1003" d="M1588.563,400.106h0a1.982,1.982,0,0,1-1.982-1.982V383.474a1.982,1.982,0,0,1,3.964,0v14.651a1.982,1.982,0,0,1-1.982,1.982" transform="translate(-1449.222 -349.667)" fill="#aac6ce"/>
          <path id="Path_1004" data-name="Path 1004" d="M1521.524,1110a28.117,28.117,0,1,1,24.372-14.062A28.1,28.1,0,0,1,1521.524,1110" transform="translate(-1364.598 -960.364)" fill="#1e394c"/>
          <path id="Path_1005" data-name="Path 1005" d="M1556.765,1126.495a25.875,25.875,0,1,1,9.471-35.347,25.875,25.875,0,0,1-9.471,35.347" transform="translate(-1386.875 -982.566)" fill="#f7f7f7"/>
          <path id="Path_1006" data-name="Path 1006" d="M1497.329,1016.226a33.865,33.865,0,0,0-32.667-25.094v0h0a33.973,33.973,0,0,0-29.344,16.93,33.858,33.858,0,0,0,29.286,50.781,33.972,33.972,0,0,0,29.344-16.93,33.629,33.629,0,0,0,3.382-25.686m-9.524,22.14a26.764,26.764,0,1,1-9.794-36.551,26.748,26.748,0,0,1,9.794,36.551" transform="translate(-1307.681 -903.467)" fill="#ee8436"/>
          <path id="Path_1007" data-name="Path 1007" d="M1531.187,1111.037H1527a.669.669,0,0,0,0,1.338h4.182a.669.669,0,0,0,0-1.338m20.26,20.26a.669.669,0,0,0-.668.669v4.182a.669.669,0,1,0,1.337,0v-4.182a.669.669,0,0,0-.669-.669m0-39.183a.669.669,0,0,0,.669-.669v-4.182a.669.669,0,1,0-1.337,0v4.182a.669.669,0,0,0,.668.669m8.053,5.02a.482.482,0,0,0-.661.192l-7.391,13.429c-.015,0-.028-.009-.043-.009l-13.265-.092h-.005a.761.761,0,0,0-.005,1.521l12.887.089c.035.037.046.09.093.116a.476.476,0,0,0,.234.061.484.484,0,0,0,.427-.253l.027-.049a.747.747,0,0,0,.364-.627c0-.009,0-.016,0-.025l7.537-13.693a.487.487,0,0,0-.193-.661m16.39,13.9h-4.182a.669.669,0,0,0,0,1.338h4.182a.669.669,0,0,0,0-1.338" transform="translate(-1394.495 -990.185)" fill="#1e394c"/>
          <path id="Path_1008" data-name="Path 1008" d="M1785.154,1343.1a1.695,1.695,0,1,0-.62,2.315,1.695,1.695,0,0,0,.62-2.315" transform="translate(-1626.734 -1222.426)" fill="#ee8436"/>
          <path id="Path_1009" data-name="Path 1009" d="M219.258,636.239l1.527-3.006s-1.421-8.644,2.835-9.035a4.931,4.931,0,0,1,5.066,6.884c-1.319,3.134-1.9,3.8-3.44,3.388l-.78,2.669" transform="translate(-207.137 -561.009)" fill="#f2bf75"/>
          <path id="Path_1010" data-name="Path 1010" d="M223.684,613.616c-.643,1.035-.945,1.383-2.126,1.082-1.648-.419-2.67-1.217-2.864-4.517s.483-6.858,4.617-6.508,5.805-1.182,6.3-.2.281,5.953-1.268,6.218-3.137-.514-3.417.8a7.185,7.185,0,0,1-1.244,3.126" transform="translate(-206.598 -541.866)" fill="#1e394c"/>
          <path id="Path_1011" data-name="Path 1011" d="M110.078,972.018c-.117.2-.452.181-.955-.025l-.01,0a11.322,11.322,0,0,1-1.78-.973c-.875-.554-1.9-1.279-3-2.106-5.049-3.8-11.547-9.641-11.379-10.251.247-.884.062-1.645,2.49-1.44a1.9,1.9,0,0,1,1.107.451c1.48,1.308,6.634,5.9,10.141,9.576.731.764,1.395,1.492,1.935,2.136,1.065,1.275,1.668,2.25,1.45,2.635" transform="translate(-92.401 -867.172)" fill="#e8c4b3"/>
          <path id="Path_1012" data-name="Path 1012" d="M148.6,1015.98l7.988,8.006-2.133,1.643-9.428-7.315Z" transform="translate(-139.71 -921.639)" fill="#f2bf75"/>
          <path id="Path_1013" data-name="Path 1013" d="M254.389,1124.922a.3.3,0,0,1-.063.053l-1.1.4a1.975,1.975,0,0,1-.993.095l-.913-.164a7.28,7.28,0,0,1-2.285-.984l-1.346-1.213-.29-.256.352-.364,1.087-1.11.239-.255.008,0,.192-.015,1.363-.081a3.018,3.018,0,0,1,1.167.16l1.4.875a1.271,1.271,0,0,1-.881.09,2.863,2.863,0,0,0-.968.055l.855.407,2.011,1.13a.7.7,0,0,1,.163,1.179" transform="translate(-232.699 -1018.951)" fill="#e8c4b3"/>
          <path id="Path_1014" data-name="Path 1014" d="M99.246,770.852c-1.027-.055-.936-1.064-1.451-.356-2.312,3.182-9.841,13.943-7.009,15.414,3.329,1.73,9.292-8.12,10.563-11.138,1.059-2.515.379-3.788-2.1-3.921" transform="translate(-89.862 -693.989)" fill="#e8c4b3"/>
          <path id="Path_1015" data-name="Path 1015" d="M99.333,766.56a5.118,5.118,0,0,1-.855,2.674c-.446.762-1.144,1.912-1.878,3.123-.009.015-.009.037-.019.052-.437.717-.9,1.472-1.348,2.2-1.162,1.853-2.2,3.481-2.2,3.578a22.433,22.433,0,0,0,1.8,2.032c.279.3.576.62.893.956l-.474.381-.558.411-1.06.777-.707.516L91.913,784c-.074-.067-.158-.127-.242-.194-1.98-1.636-3.858-3.085-4.332-3.885-1.348-2.331,1.032-6.85,1.441-7.56a.451.451,0,0,1,.047-.12c.158-.276.316-.545.465-.807a58.51,58.51,0,0,1,4.686-7.493,2.876,2.876,0,0,1,3.449-.583,3.357,3.357,0,0,1,1.906,3.2" transform="translate(-86.93 -687.308)" fill="#cee5ed"/>
          <g id="Group_885" data-name="Group 885" transform="translate(4.437 83.996)" opacity="0.5" style="mix-blend-mode: multiply;isolation: isolate">
            <g id="Group_884" data-name="Group 884" transform="translate(0 0)">
              <g id="Group_883" data-name="Group 883" clip-path="url(#clip-path-3)">
                <path id="Path_1016" data-name="Path 1016" d="M139.236,878.713c-1.162,1.853-2.2,3.481-2.2,3.578a22.407,22.407,0,0,0,1.8,2.032c-.046.642-.093,1.233-.14,1.748-.084,1.038-.158,1.741-.186,1.786-.121.164-1.571.269-1.581-.493a.378.378,0,0,1,.009-.142c.177-.911-.223-1.793-1.144-3.055s-.13-2.816.223-3.795.967-4.96.967-4.96l2.4,1.053s-.065.926-.149,2.249" transform="translate(-135.37 -875.411)" fill="#b5ccd3"/>
              </g>
            </g>
          </g>
          <path id="Path_1017" data-name="Path 1017" d="M137.624,1008.945l3.842-2.876a.242.242,0,0,1,.289.007l.464.394a.143.143,0,0,1-.008.233l-3.81,2.909a.242.242,0,0,1-.292-.007l-.5-.428a.143.143,0,0,1,.01-.233" transform="translate(-132.922 -912.416)" fill="#cee5ed"/>
          <path id="Path_1018" data-name="Path 1018" d="M287.692,1148.149c-2.373.2-4.071,2.079-3.71,4.082a20.2,20.2,0,0,0,2.35,6.2c3.5,6.288,5.529,14.353,8.877,14.757s4.524-4.338,2.556-10.9c-1.778-5.928-2.005-13.375-4.389-14.054a20.243,20.243,0,0,0-5.684-.084" transform="translate(-265.889 -1043.94)" fill="#e8c4b3"/>
          <path id="Path_1019" data-name="Path 1019" d="M393.01,1463.278c-6.451-3.148-3.7,21.32-1.438,27.834s3.564.948,3.755-9.692.221-16.9-2.316-18.142" transform="translate(-361.337 -1335.76)" fill="#e8c4b3"/>
          <path id="Path_1020" data-name="Path 1020" d="M182.265,1146.761c-2.361-.273-4.578,1.222-4.833,3.235a18.955,18.955,0,0,0,.406,6.469c1.495,6.783,1.023,15,4.148,16.048s5.7-3.325,5.775-10.071c.068-6.1,2.1-13.366-.007-14.49a19.488,19.488,0,0,0-5.488-1.192" transform="translate(-169.034 -1042.765)" fill="#e8c4b3"/>
          <path id="Path_1021" data-name="Path 1021" d="M209.083,1466.5c-6.177-3.485-5.454,21.077-3.731,27.7s3.478,1.135,4.546-9.471,1.615-16.854-.815-18.225" transform="translate(-193.408 -1338.69)" fill="#e8c4b3"/>
          <path id="Path_1022" data-name="Path 1022" d="M401.656,1809.871l.395,3.289h4.776l-.072-3.577Z" transform="translate(-372.83 -1656.836)" fill="#f2bf75"/>
          <path id="Path_1023" data-name="Path 1023" d="M209.438,1809.871l.191,3.289H214.4l-.072-3.577Z" transform="translate(-198.216 -1656.836)" fill="#f2bf75"/>
          <path id="Path_1024" data-name="Path 1024" d="M192.022,1191.477h-5.939l-2.114-23.717-6.592-16.014s-1.057,14.445-1.3,16.6c-.117,1.038-.595,6.459-1.057,11.808-.492,5.769-.976,11.455-.976,11.455h-5.366l-1.218-24.631-.162-1.445-2.444-22.018,20.584-1.952.727-.071s5.858,18.361,6.181,24.5-.323,25.487-.323,25.487" transform="translate(-157.716 -1037.911)" fill="#1e394c"/>
          <g id="Group_888" data-name="Group 888" transform="translate(28.367 128.078)" style="mix-blend-mode: multiply;isolation: isolate">
            <g id="Group_887" data-name="Group 887" transform="translate(0 0)">
              <g id="Group_886" data-name="Group 886" clip-path="url(#clip-path-4)">
                <path id="Path_1025" data-name="Path 1025" d="M402.574,1499.877h-5.939c6.108-.737,6.262-25.487,6.262-25.487.323,6.146-.323,25.487-.323,25.487" transform="translate(-396.635 -1474.39)" fill="#eff4f6"/>
              </g>
            </g>
          </g>
          <g id="Group_891" data-name="Group 891" transform="translate(7.137 103.649)" style="mix-blend-mode: multiply;isolation: isolate">
            <g id="Group_890" data-name="Group 890" transform="translate(0 0)">
              <g id="Group_889" data-name="Group 889" clip-path="url(#clip-path-5)">
                <path id="Path_1026" data-name="Path 1026" d="M167.223,1149.716a73.745,73.745,0,0,1,.073,16.7l-2.444-22.018,20.584-1.953.426.053a26.765,26.765,0,0,1-11.349,3.781c-6.607.6-7.466.4-7.289,3.433" transform="translate(-164.852 -1142.449)" fill="#eff4f6"/>
              </g>
            </g>
          </g>
          <path id="Path_1027" data-name="Path 1027" d="M173.9,786.3a38.6,38.6,0,0,1-14.932,3.77,20.882,20.882,0,0,1-7.959-1.3s.223-11.041-.1-16.941-1.051-13.881,1.692-15.448a9.8,9.8,0,0,1,4.3-.857c.335,0,1.358.253,2.445.253a11.826,11.826,0,0,0,2.9-.351c2.771.016,8.74.62,8.907,5.982v.065c.037,1.2.074,2.579.112,4.072.037.987.065,2.032.112,3.1A85.752,85.752,0,0,0,173.9,786.3" transform="translate(-144.74 -680.263)" fill="#cee5ed"/>
          <g id="Group_894" data-name="Group 894" transform="translate(19.069 81.112)" opacity="0.5" style="mix-blend-mode: multiply;isolation: isolate">
            <g id="Group_893" data-name="Group 893" transform="translate(0 0)">
              <g id="Group_892" data-name="Group 892" clip-path="url(#clip-path-6)">
                <path id="Path_1028" data-name="Path 1028" d="M302.692,842.385c-2.966-2.226-7.568-6.156-7.568-6.156s4.137,1.808,7.457,3.317c.037.9.065,1.86.112,2.839" transform="translate(-295.124 -836.229)" fill="#b0ced9"/>
              </g>
            </g>
          </g>
          <g id="Group_897" data-name="Group 897" transform="translate(29.101 101.106)" opacity="0.5" style="mix-blend-mode: multiply;isolation: isolate">
            <g id="Group_896" data-name="Group 896">
              <g id="Group_895" data-name="Group 895" clip-path="url(#clip-path-7)">
                <path id="Path_1029" data-name="Path 1029" d="M404.729,1138.035c-.022-.015-.029-.015-.029-.015-.015-.044-.037-.088-.051-.14.029.051.051.1.081.154" transform="translate(-404.648 -1137.881)" fill="#c3d3dd"/>
              </g>
            </g>
          </g>
          <path id="Path_1031" data-name="Path 1031" d="M661.369,803.752a8.287,8.287,0,0,1-2.027,1.188,2.554,2.554,0,0,1-.26.12l-.883.329-.586.217-.344.135-.288-.329-.893-1.016-.2-.232.037-.135.26-.941a1.589,1.589,0,0,1,.465-.747l1.265-.725a.609.609,0,0,1-.13.613,1.472,1.472,0,0,0-.186.672l.642-.478.753-.426a2,2,0,0,1,2.371.314.918.918,0,0,1,.009,1.442" transform="translate(-603.771 -723.05)" fill="#f2bf75"/>
          <path id="Path_1032" data-name="Path 1032" d="M522.4,834.417l12.418-3.851,1.512,1.881-12.343,5.615Z" transform="translate(-482.517 -749.87)" fill="#f2bf75"/>
          <path id="Path_1033" data-name="Path 1033" d="M295.1,785.283c-.363.774-1.538.412-.843,1.013,3.122,2.7,13.763,11.6,16.336,9.85,3.024-2.06-6.985-9.5-10.213-11.347-2.689-1.542-4.4-1.387-5.28.483" transform="translate(-275.068 -706.5)" fill="#e8c4b3"/>
          <path id="Path_1034" data-name="Path 1034" d="M312.407,780.779a32.364,32.364,0,0,1-5.914,2.007c-3.177.357-7.868-2.774-8.6-3.3-.07-.043-.114-.065-.114-.065a54.358,54.358,0,0,1-8.421-5.774,2.383,2.383,0,0,1,.319-3.421c.9-.61,2.5-2.248,4.226-1.213a36.791,36.791,0,0,1,3.079,2.1c2.386,1.768,8.684,6.432,8.9,6.474.145.025,2.059-.4,4.356-.881Z" transform="translate(-270.288 -692.541)" fill="#cee5ed"/>
          <path id="Path_1035" data-name="Path 1035" d="M516.98,874.841l2.3,4.031a.193.193,0,0,0,.231.068l.731-.273a.13.13,0,0,0,.085-.184l-2.252-4.012a.192.192,0,0,0-.223-.072l-.782.254a.131.131,0,0,0-.093.187" transform="translate(-477.576 -790.469)" fill="#cee5ed"/>
          <path id="Path_1036" data-name="Path 1036" d="M405.013,1851.447v-4.852a9.591,9.591,0,0,0,4.862-.164,9.32,9.32,0,0,0,4.3,2.014c2.1.164,3.2.9,3.224,1.891.051,1.768-12.384,1.11-12.384,1.11" transform="translate(-375.88 -1690.973)" fill="#1e394c"/>
          <path id="Path_1037" data-name="Path 1037" d="M211.015,1849.057s3.6.233,4.8-.2c0,0,.565,1.489.85,2.024s.487.907,1.724,1.173c1.388.3,1.658,1.732.373,1.831s-7.758,0-7.758,0Z" transform="translate(-199.642 -1693.221)" fill="#1e394c"/>
          <path id="Path_1038" data-name="Path 1038" d="M512.764,711.054l-32.615-18.967a1,1,0,0,1-.363-1.371l.1-.174,33.482,19.471Z" transform="translate(-443.68 -622.239)" fill="#b36c38"/>
          <path id="Path_1039" data-name="Path 1039" d="M524.436,688.348l-33.482-19.471.1-.175a1,1,0,0,1,1.371-.363l32.615,18.967Z" transform="translate(-453.948 -601.945)" fill="orange"/>
          <rect id="Rectangle_361" data-name="Rectangle 361" width="1.588" height="38.732" transform="translate(36.208 68.304) rotate(-59.82)" fill="#ee8436"/>
          <path id="Path_1040" data-name="Path 1040" d="M841.179,904.163l.6-1.04,5.221,2.359,1.632.737-1.776-.489Z" transform="translate(-772.095 -815.347)" fill="#ddc9ac"/>
          <path id="Path_1041" data-name="Path 1041" d="M862.552,882.276l-1.442-1.064-4.613-3.4.606-1.042,4.152,4.2Z" transform="translate(-786.01 -791.405)" fill="#f2e4ce"/>
          <path id="Path_1042" data-name="Path 1042" d="M847.784,889.511l6.852,3.1h0l-6.054-4.468Z" transform="translate(-778.094 -801.736)" fill="#e6d5b9"/>
          <path id="Path_1043" data-name="Path 1043" d="M484.929,674.573l-4.78-2.78a1,1,0,0,1-.363-1.371l1-1.721a1,1,0,0,1,1.371-.363l4.78,2.78Z" transform="translate(-443.679 -601.945)" fill="#f7f7f7"/>
          <path id="Path_1044" data-name="Path 1044" d="M482.5,693.458l-2.355-1.37a1,1,0,0,1-.363-1.371l.1-.174,3.222,1.874Z" transform="translate(-443.68 -622.24)" fill="#b36c38"/>
          <path id="Path_1045" data-name="Path 1045" d="M494.176,670.75l-3.222-1.874.1-.175a1,1,0,0,1,1.371-.363l2.355,1.37Z" transform="translate(-453.948 -601.945)" fill="orange"/>
          <rect id="Rectangle_362" data-name="Rectangle 362" width="1.588" height="3.727" transform="matrix(0.503, -0.864, 0.864, 0.503, 36.208, 68.304)" fill="#ee8436"/>
          <path id="Path_1046" data-name="Path 1046" d="M903.208,923.418l.479-.824,1.3,1.313Z" transform="translate(-828.442 -833.035)" fill="#1e394c"/>
          <path id="Path_1047" data-name="Path 1047" d="M678.335,805.37a8.285,8.285,0,0,1-2.027,1.188,2.541,2.541,0,0,1-.26.12l-.883.329c-.251-.934-.6-2.488-.6-2.488l.642-.478.753-.426a2,2,0,0,1,2.371.314.917.917,0,0,1,.009,1.442" transform="translate(-620.737 -724.668)" fill="#f2bf75"/>
        </g>
      </g>
    </g>
  </g>
</svg>
