<svg xmlns="http://www.w3.org/2000/svg" width="23.838" height="23.838" viewBox="0 0 27.838 27.838">
  <path id="Icon_awesome-facebook-square" data-name="Icon awesome-facebook-square" d="M24.855,2.25H2.983A2.983,2.983,0,0,0,0,5.233V27.105a2.983,2.983,0,0,0,2.983,2.983h8.528V20.624H7.6V16.169h3.915v-3.4c0-3.862,2.3-6,5.82-6a23.716,23.716,0,0,1,3.45.3v3.79H18.838a2.227,2.227,0,0,0-2.512,2.407v2.893H20.6l-.684,4.455h-3.59v9.464h8.528a2.983,2.983,0,0,0,2.983-2.983V5.233A2.983,2.983,0,0,0,24.855,2.25Z" transform="translate(0 -2.25)" fill="#1977f2"/>
</svg>
