<svg xmlns="http://www.w3.org/2000/svg" width="22.875" height="22.901" viewBox="0 0 26.875 26.901">
  <path id="Path_631" data-name="Path 631" d="M.84,4.5H13.627a3.911,3.911,0,0,0,7.64,0h4.768a.84.84,0,1,0,0-1.68H21.267a3.911,3.911,0,0,0-7.64,0H.84a.84.84,0,1,0,0,1.68Zm14.376-.838s0-.006,0-.009a2.231,2.231,0,0,1,4.462,0v.012a2.231,2.231,0,0,1-4.462,0ZM26.035,21.9H21.267a3.911,3.911,0,0,0-7.64,0H.84a.84.84,0,0,0,0,1.68H13.627a3.911,3.911,0,0,0,7.64,0h4.768a.84.84,0,1,0,0-1.68Zm-8.588,3.071a2.234,2.234,0,0,1-2.231-2.226v0s0-.006,0-.009a2.231,2.231,0,0,1,4.462,0v.012a2.234,2.234,0,0,1-2.231,2.228Zm8.588-12.611H13.248a3.912,3.912,0,0,0-7.64,0H.84a.84.84,0,0,0,0,1.68H5.608a3.911,3.911,0,0,0,7.64,0H26.035a.84.84,0,0,0,0-1.68ZM11.659,13.2s0,.006,0,.009a2.231,2.231,0,0,1-4.462,0V13.2a2.231,2.231,0,0,1,4.462,0Z" transform="translate(0 0.248)" fill="#fff"/>
</svg>
