<svg xmlns="http://www.w3.org/2000/svg" width="44" height="32.985" viewBox="0 0 44 32.985">
  <g id="flower" transform="translate(0 -3.008)">
    <path id="Path_438" data-name="Path 438" d="M14.494,27.743a.917.917,0,0,1-.7-.33c-6.378-7.656-6.378-16.436,0-24.092a.947.947,0,0,1,1.408,0c6.378,7.656,6.378,16.436,0,24.092A.917.917,0,0,1,14.494,27.743Zm0-22.361c-4.9,6.475-4.9,13.5,0,19.972C19.4,18.879,19.4,11.858,14.494,5.382Z" transform="translate(7.506 0)"/>
    <path id="Path_439" data-name="Path 439" d="M13.925,24.292a.917.917,0,0,1-.7-.33,21.78,21.78,0,0,1-3.463-5.648.916.916,0,1,1,1.7-.695A19.192,19.192,0,0,0,13.923,21.9a19.336,19.336,0,0,0,2.469-4.281.916.916,0,1,1,1.7.695,21.73,21.73,0,0,1-3.463,5.648.9.9,0,0,1-.7.33Z" transform="translate(8.075 11.701)"/>
    <path id="Path_440" data-name="Path 440" d="M12.425,24.4a.917.917,0,0,1-.082-1.83c8.712-.807,13.5-5.264,14.612-13.612-4.011.541-7.155,1.949-9.363,4.187a.917.917,0,0,1-1.307-1.287C19.007,9.1,22.917,7.464,27.909,7a.907.907,0,0,1,.732.264A.926.926,0,0,1,28.907,8c-.9,9.957-6.417,15.471-16.394,16.4A.736.736,0,0,1,12.425,24.4Z" transform="translate(9.592 3.326)"/>
    <path id="Path_441" data-name="Path 441" d="M22.511,23.981q-5.335,0-10.652-4.057a.916.916,0,1,1,1.113-1.456c6.409,4.9,12.65,4.91,19.057.015a16.2,16.2,0,0,0-8.673-3.615.918.918,0,0,1-.854-.975.891.891,0,0,1,.975-.854c3.533.231,7.1,1.826,10.608,4.737a.916.916,0,0,1,0,1.41C30.25,22.382,26.38,23.981,22.511,23.981Z" transform="translate(9.583 8.357)"/>
    <path id="Path_442" data-name="Path 442" d="M11.906,23.981c-3.868,0-7.738-1.6-11.576-4.8a.916.916,0,0,1,0-1.41c3.505-2.911,7.075-4.506,10.608-4.737a.893.893,0,0,1,.975.854.917.917,0,0,1-.854.975,16.2,16.2,0,0,0-8.673,3.615c6.4,4.895,12.648,4.888,19.057-.015a.916.916,0,1,1,1.113,1.456q-5.3,4.056-10.652,4.057Z" transform="translate(0 8.356)"/>
    <path id="Path_443" data-name="Path 443" d="M19.484,24.4a.677.677,0,0,1-.086,0C9.42,23.471,3.9,17.955,3,8a.916.916,0,0,1,.266-.731A.9.9,0,0,1,4,7c4.992.458,8.9,2.092,11.625,4.853a.917.917,0,0,1-1.307,1.287C12.112,10.906,8.966,9.5,4.954,8.957c1.107,8.349,5.9,12.806,14.612,13.612a.917.917,0,0,1-.083,1.83Z" transform="translate(2.5 3.326)"/>
  </g>
</svg>
