<svg xmlns="http://www.w3.org/2000/svg" width="40.218" height="38.084" viewBox="0 0 40.218 38.084">
  <g id="Group_76" data-name="Group 76" transform="translate(0 -13.586)">
    <g id="Group_69" data-name="Group 69" transform="translate(27.018 15.69)">
      <g id="Group_68" data-name="Group 68" transform="translate(0 0)">
        <path id="Path_419" data-name="Path 419" d="M352.671,40.575a.722.722,0,0,0-1.021,0l-7.488,7.488a.722.722,0,0,0,1.021,1.021l7.488-7.488A.722.722,0,0,0,352.671,40.575Z" transform="translate(-343.95 -40.364)"/>
      </g>
    </g>
    <g id="Group_71" data-name="Group 71" transform="translate(29.054 17.694)">
      <g id="Group_70" data-name="Group 70" transform="translate(0 0)">
        <path id="Path_420" data-name="Path 420" d="M378.6,66.091a.723.723,0,0,0-1.021,0l-7.488,7.488a.722.722,0,0,0,1.021,1.021l7.488-7.488A.722.722,0,0,0,378.6,66.091Z" transform="translate(-369.876 -65.879)"/>
      </g>
    </g>
    <g id="Group_73" data-name="Group 73" transform="translate(2.133 20.022)">
      <g id="Group_72" data-name="Group 72" transform="translate(0 0)">
        <path id="Path_421" data-name="Path 421" d="M55.73,106.043l9.3-9.3A.722.722,0,1,0,64,95.726l-9.3,9.3a3.835,3.835,0,0,1-4.357.748.722.722,0,0,0-.851.172L46.342,109.5l0,0,0,0-13.651,15.38-.01.012c-.045.053-.088.1-.131.142a2.312,2.312,0,1,1-3.268-3.27c.042-.042.088-.085.142-.13l.012-.01,8.534-7.575a.722.722,0,0,0-.959-1.08l-8.529,7.57c-.082.07-.155.137-.223.2a3.756,3.756,0,0,0,5.311,5.312c.069-.069.137-.142.205-.223l10.4-11.72,10.4,11.721c.069.081.136.154.2.223a3.756,3.756,0,0,0,5.312-5.311c-.069-.069-.142-.137-.223-.205L47.9,109.924l2.342-2.639A5.284,5.284,0,0,0,55.73,106.043Zm3.185,15.59.012.01c.053.045.1.088.142.131a2.312,2.312,0,1,1-3.269,3.269c-.043-.043-.085-.089-.13-.142l-.01-.012L45.137,113.034l1.8-2.03Z" transform="translate(-27.152 -95.515)"/>
      </g>
    </g>
    <g id="Group_75" data-name="Group 75" transform="translate(0 13.586)">
      <g id="Group_74" data-name="Group 74" transform="translate(0 0)">
        <path id="Path_422" data-name="Path 422" d="M33.571,13.8a.722.722,0,0,0-1.021,0l-9.3,9.3a5.283,5.283,0,0,0-1.242,5.491l-2.86,2.539L16.4,28.683a7.264,7.264,0,0,0-1.353-8.449,16.443,16.443,0,0,0-7.306-4.439c-2.58-.649-4.792-.216-6.229,1.221S-.355,20.665.294,23.244A16.442,16.442,0,0,0,4.733,30.55,7.264,7.264,0,0,0,13.183,31.9l2.723,3.067a.722.722,0,0,0,1.02.061l6.431-5.708a.722.722,0,0,0,.172-.851,3.834,3.834,0,0,1,.748-4.357l9.3-9.3A.722.722,0,0,0,33.571,13.8ZM16.506,33.472,13.877,30.51a.722.722,0,0,0-.919-.135,5.827,5.827,0,0,1-7.2-.845,14.994,14.994,0,0,1-4.06-6.637c-.52-2.067-.221-3.791.842-4.855s2.787-1.362,4.855-.842a14.992,14.992,0,0,1,6.637,4.059,5.827,5.827,0,0,1,.845,7.2.722.722,0,0,0,.135.919l3.055,2.711Z" transform="translate(0 -13.586)"/>
      </g>
    </g>
  </g>
</svg>
