<svg xmlns="http://www.w3.org/2000/svg" width="23.838" height="23.837" viewBox="0 0 27.838 27.837">
  <g id="google-svgrepo-com" transform="translate(-2.001 -2)">
    <path id="Path_49" data-name="Path 49" d="M29.922,16.294a11.7,11.7,0,0,0-.3-2.846H16.287v5.165h7.827a6.782,6.782,0,0,1-2.9,4.516l-.027.173L25.4,26.5l.292.029A13.473,13.473,0,0,0,29.922,16.294Z" transform="translate(-0.083 -0.066)" fill="#4285f4"/>
    <path id="Path_50" data-name="Path 50" d="M16.212,29.935a13.7,13.7,0,0,0,9.405-3.372l-4.482-3.4a8.529,8.529,0,0,1-4.924,1.392,8.534,8.534,0,0,1-8.08-5.784l-.167.014L3.582,22.108l-.057.156A14.224,14.224,0,0,0,16.212,29.935Z" transform="translate(-0.009 -0.097)" fill="#34a853"/>
    <path id="Path_51" data-name="Path 51" d="M8.124,18.716a8.414,8.414,0,0,1-.473-2.753,8.841,8.841,0,0,1,.458-2.753L8.1,13.026,3.661,9.647l-.145.068a13.642,13.642,0,0,0,0,12.5Z" transform="translate(0 -0.044)" fill="#fbbc05"/>
    <path id="Path_52" data-name="Path 52" d="M16.212,7.382A7.956,7.956,0,0,1,21.7,9.454l4.008-3.835A13.8,13.8,0,0,0,16.212,2,14.224,14.224,0,0,0,3.524,9.671l4.592,3.5A8.57,8.57,0,0,1,16.212,7.382Z" transform="translate(-0.009)" fill="#eb4335"/>
  </g>
</svg>
