<svg xmlns="http://www.w3.org/2000/svg" width="37.526" height="40.379" viewBox="0 0 37.526 40.379">
  <g id="Group_218" data-name="Group 218" transform="translate(-67.815 0.001)">
    <path id="Path_634" data-name="Path 634" d="M172.652,93.345a2.873,2.873,0,0,1-.692-.085l-9.878-2.452A2.854,2.854,0,0,1,160,87.352l4.508-17.257a.9.9,0,0,1,1.267-.589l6.184,4.685,7.058-.553c.379.186.921-.68.82-.27l-4.421,17.811A2.856,2.856,0,0,1,172.652,93.345Zm-6.67-21.739-4.24,16.178a1.059,1.059,0,0,0,.772,1.282l9.877,2.452a1.057,1.057,0,0,0,1.281-.769v0l4.247-17.108-5.961.553-3.776-2.584Z" transform="translate(-86.103 -61.603)"/>
    <path id="Path_636" data-name="Path 636" d="M75.415,141.228a.915.915,0,0,1-.217-.026l-4.691-1.171a3.442,3.442,0,0,1-2.251-1.858,4.394,4.394,0,0,1-.3-3.026l1.684-6.816a4.394,4.394,0,0,1,1.688-2.533,3.443,3.443,0,0,1,2.86-.583l4.691,1.171a.9.9,0,0,1,.654,1.086l-3.246,13.075A.9.9,0,0,1,75.415,141.228Zm-2.024-14.316a1.77,1.77,0,0,0-1.023.348,2.6,2.6,0,0,0-.986,1.5L69.7,135.579a2.6,2.6,0,0,0,.164,1.791,1.676,1.676,0,0,0,1.08.92l3.819.953,2.814-11.333-3.821-.954A1.487,1.487,0,0,0,73.391,126.912Z" transform="translate(0 -116.971)"/>
    <path id="Path_638" data-name="Path 638" d="M228.912,13.44a4.037,4.037,0,0,1-.97-.119,3.97,3.97,0,0,1-1.912-1.1,4.012,4.012,0,0,1-6.636-1.568,4.72,4.72,0,0,1-1.207-.14,4.891,4.891,0,1,1,3.984-8.752,4.886,4.886,0,0,1,8.552,4.055,4.028,4.028,0,0,1-1.811,7.626Zm-2.865-3.695h.007a.9.9,0,0,1,.817.543,2.228,2.228,0,1,0,2.617-3.033c-.032,0-.066-.011-.089-.017a.9.9,0,0,1-.621-1.205,3.085,3.085,0,0,0-5.626-2.521.9.9,0,0,1-1.475.2,3.1,3.1,0,1,0-3.059,5.06,3.036,3.036,0,0,0,1.311.031.9.9,0,0,1,1.047.716q.007.036.011.073a2.221,2.221,0,0,0,4.24.687.9.9,0,0,1,.818-.53Z" transform="translate(-137.105 0)"/>
    <path id="Path_639" data-name="Path 639" d="M458.555,435.71a.9.9,0,0,1-.9-.9h0V421.767a.9.9,0,0,1,.674-.869l10.637-2.727a.9.9,0,0,1,1.12.869v13.229a.9.9,0,1,1-1.794,0V420.2l-8.842,2.267v12.349a.9.9,0,0,1-.9.9Z" transform="translate(-364.749 -397.186)"/>
    <path id="Path_640" data-name="Path 640" d="M528.313,598.3c-2.269,0-4.047-1.208-4.047-2.751s1.777-2.751,4.047-2.751,4.046,1.208,4.046,2.751S530.582,598.3,528.313,598.3Zm0-3.708c-1.4,0-2.252.62-2.252.957s.855.957,2.252.957,2.252-.619,2.252-.957S529.71,594.594,528.313,594.593Z" transform="translate(-427.019 -560.467)"/>
    <path id="Path_641" data-name="Path 641" d="M364.994,637.357c-2.269,0-4.046-1.208-4.046-2.751s1.777-2.751,4.046-2.751,4.047,1.208,4.047,2.751S367.264,637.357,364.994,637.357Zm0-3.708c-1.4,0-2.252.619-2.252.957s.855.957,2.252.957,2.252-.619,2.252-.957S366.391,633.649,364.994,633.649Z" transform="translate(-274.338 -596.979)"/>
  </g>
</svg>
