<svg xmlns="http://www.w3.org/2000/svg" width="17.277" height="17.063" viewBox="0 0 20.277 17.063">
  <g id="Icon_feather-users" data-name="Icon feather-users" transform="translate(-0.5 -3.391)">
    <path id="Path_405" data-name="Path 405" d="M14.793,27.485V25.823A3.323,3.323,0,0,0,11.469,22.5H4.823A3.323,3.323,0,0,0,1.5,25.823v1.662" transform="translate(0 -8.031)" fill="none" stroke="#ee8436" stroke-linecap="round" stroke-linejoin="round" stroke-width="2"/>
    <path id="Path_406" data-name="Path 406" d="M14.146,7.823A3.323,3.323,0,1,1,10.823,4.5a3.323,3.323,0,0,1,3.323,3.323Z" transform="translate(-2.677)" fill="none" stroke="#ee8436" stroke-linecap="round" stroke-linejoin="round" stroke-width="2"/>
    <path id="Path_407" data-name="Path 407" d="M32.492,27.572V25.91A3.323,3.323,0,0,0,30,22.7" transform="translate(-12.715 -8.118)" fill="none" stroke="#ee8436" stroke-linecap="round" stroke-linejoin="round" stroke-width="2"/>
    <path id="Path_408" data-name="Path 408" d="M24,4.7a3.323,3.323,0,0,1,0,6.439" transform="translate(-10.038 -0.087)" fill="none" stroke="#ee8436" stroke-linecap="round" stroke-linejoin="round" stroke-width="2"/>
  </g>
</svg>
