<svg xmlns="http://www.w3.org/2000/svg" width="14.896" height="14.927" viewBox="0 0 16.896 16.927">
  <path id="Icon_feather-phone" data-name="Icon feather-phone" d="M18.562,14.549v2.322a1.548,1.548,0,0,1-1.687,1.548,15.318,15.318,0,0,1-6.68-2.376A15.094,15.094,0,0,1,5.55,11.4,15.318,15.318,0,0,1,3.174,4.687,1.548,1.548,0,0,1,4.714,3H7.037A1.548,1.548,0,0,1,8.585,4.331a9.939,9.939,0,0,0,.542,2.175A1.548,1.548,0,0,1,8.778,8.14L7.8,9.123a12.385,12.385,0,0,0,4.644,4.644l.983-.983a1.548,1.548,0,0,1,1.633-.348,9.939,9.939,0,0,0,2.175.542,1.548,1.548,0,0,1,1.331,1.571Z" transform="translate(-2.417 -2.25)" fill="none" stroke="#000" stroke-linecap="round" stroke-linejoin="round" stroke-width="1.5"/>
</svg>
