<svg xmlns="http://www.w3.org/2000/svg" xmlns:xlink="http://www.w3.org/1999/xlink" width="138.166" height="161.686" viewBox="0 0 178.166 161.686">
  <defs>
    <clipPath id="clip-path">
      <rect id="Rectangle_85" data-name="Rectangle 85" width="169.054" height="156.667" transform="translate(484 17.779)" fill="none"/>
    </clipPath>
    <clipPath id="clip-path-2">
      <path id="Path_534" data-name="Path 534" d="M519.87,174.446h97.314c21.69-14.952,35.87-39.609,35.87-67.517,0-45.616-37.844-89.15-84.527-89.15S484,61.313,484,106.929c0,27.908,14.181,52.565,35.87,67.517" fill="none"/>
    </clipPath>
    <clipPath id="clip-path-3">
      <rect id="Rectangle_86" data-name="Rectangle 86" width="178.166" height="7.024" transform="translate(479.444 171.184)" fill="none"/>
    </clipPath>
    <clipPath id="clip-path-4">
      <rect id="Rectangle_89" data-name="Rectangle 89" width="7.343" height="14.125" transform="translate(507.017 87.779)" fill="none"/>
    </clipPath>
    <clipPath id="clip-path-5">
      <rect id="Rectangle_90" data-name="Rectangle 90" width="10.199" height="13.524" transform="translate(547.177 66.556)" fill="none"/>
    </clipPath>
    <clipPath id="clip-path-6">
      <rect id="Rectangle_91" data-name="Rectangle 91" width="22.223" height="38.975" transform="translate(635.137 114.178)" fill="none"/>
    </clipPath>
    <clipPath id="clip-path-7">
      <rect id="Rectangle_92" data-name="Rectangle 92" width="22.965" height="27.862" transform="translate(610.667 124.03)" fill="none"/>
    </clipPath>
    <clipPath id="clip-path-8">
      <rect id="Rectangle_93" data-name="Rectangle 93" width="14.211" height="45.752" transform="translate(630.883 108.396)" fill="none"/>
    </clipPath>
  </defs>
  <g id="Group_167" data-name="Group 167" transform="translate(-1454.003 -403.522)">
    <g id="Group_147" data-name="Group 147" transform="translate(974.559 387)" opacity="0.42">
      <g id="Group_146" data-name="Group 146">
        <g id="Group_145" data-name="Group 145" clip-path="url(#clip-path)">
          <g id="Group_144" data-name="Group 144">
            <g id="Group_143" data-name="Group 143" clip-path="url(#clip-path-2)">
              <rect id="Rectangle_84" data-name="Rectangle 84" width="169.054" height="156.667" transform="translate(484 17.779)" fill="#ededed"/>
            </g>
          </g>
        </g>
      </g>
    </g>
    <g id="Group_150" data-name="Group 150" transform="translate(974.559 387)" opacity="0.43">
      <g id="Group_149" data-name="Group 149">
        <g id="Group_148" data-name="Group 148" clip-path="url(#clip-path-3)">
          <path id="Path_535" data-name="Path 535" d="M657.61,174.7c0-1.94-39.884-3.512-89.083-3.512s-89.082,1.572-89.082,3.512,39.883,3.512,89.082,3.512,89.083-1.573,89.083-3.512" fill="#cee5ed"/>
        </g>
      </g>
    </g>
    <rect id="Rectangle_87" data-name="Rectangle 87" width="4.053" height="38.755" transform="translate(1509.965 519.447)" fill="#aac6ce"/>
    <rect id="Rectangle_88" data-name="Rectangle 88" width="4.053" height="5.448" transform="translate(1509.965 519.447)" fill="#85b0ba"/>
    <path id="Path_536" data-name="Path 536" d="M555.058,171.215H521.081a2.348,2.348,0,0,0-2.348,2.348v1.209h38.673v-1.209a2.348,2.348,0,0,0-2.348-2.348" transform="translate(974.559 387)" fill="#aac6ce"/>
    <path id="Path_537" data-name="Path 537" d="M527.825,132.485h28.084c-10.219-3.67-6.265-38.242-4.376-51.348a4.381,4.381,0,0,0-4.339-5H528.487a7.663,7.663,0,0,0-7.595,6.614c-1.642,11.907-4.228,36.6.895,46.157a6.839,6.839,0,0,0,6.038,3.579" transform="translate(974.559 387)" fill="#aac6ce"/>
    <path id="Path_538" data-name="Path 538" d="M531.961,36.208a19.686,19.686,0,1,0-19.685,19.686,19.686,19.686,0,0,0,19.685-19.686" transform="translate(974.559 387)" fill="#ee8436"/>
    <path id="Path_539" data-name="Path 539" d="M528.349,36.208a16.074,16.074,0,1,0-16.074,16.074,16.074,16.074,0,0,0,16.074-16.074" transform="translate(974.559 387)" fill="#cee5ed"/>
    <path id="Path_540" data-name="Path 540" d="M507.71,41.691A1,1,0,0,1,507,39.984l4.19-4.19V24.779a1,1,0,0,1,2,0V36.208a1,1,0,0,1-.293.707L508.417,41.4a1,1,0,0,1-.707.293" transform="translate(974.559 387)" fill="#ee8436"/>
    <path id="Path_541" data-name="Path 541" d="M514.37,35.916a2.3,2.3,0,1,0-2.3,2.3,2.3,2.3,0,0,0,2.3-2.3" transform="translate(974.559 387)" fill="#1e394c"/>
    <path id="Path_542" data-name="Path 542" d="M624.367,54.529h-33.6a3.118,3.118,0,0,0-3.119,3.119V72.784a3.118,3.118,0,0,0,3.119,3.119h2.346v3.661a.587.587,0,0,0,.98.435l4.542-4.1h25.728a3.118,3.118,0,0,0,3.119-3.119V57.648a3.118,3.118,0,0,0-3.119-3.119" transform="translate(974.559 387)" fill="#e3e3e3"/>
    <path id="Path_543" data-name="Path 543" d="M600.774,65.446a1.374,1.374,0,1,1-1.374-1.374,1.374,1.374,0,0,1,1.374,1.374" transform="translate(974.559 387)" fill="#ee8436"/>
    <path id="Path_544" data-name="Path 544" d="M609.224,65.446a1.374,1.374,0,1,1-1.374-1.374,1.374,1.374,0,0,1,1.374,1.374" transform="translate(974.559 387)" fill="#ee8436"/>
    <path id="Path_545" data-name="Path 545" d="M617.11,65.446a1.374,1.374,0,1,1-1.374-1.374,1.374,1.374,0,0,1,1.374,1.374" transform="translate(974.559 387)" fill="#ee8436"/>
    <path id="Path_546" data-name="Path 546" d="M514.36,95.2c0-3.705-2.616-7.417-5.844-7.417s-5.844,3.712-5.844,7.417,2.617,6.708,5.844,6.708,5.844-3,5.844-6.708" transform="translate(974.559 387)" fill="#ee8436"/>
    <g id="Group_153" data-name="Group 153" transform="translate(974.559 387)" opacity="0.25">
      <g id="Group_152" data-name="Group 152">
        <g id="Group_151" data-name="Group 151" clip-path="url(#clip-path-4)">
          <path id="Path_547" data-name="Path 547" d="M508.517,87.779a4.312,4.312,0,0,0-1.5.282c2.5.922,4.344,4.027,4.344,7.135a6.615,6.615,0,0,1-4.344,6.477,5.128,5.128,0,0,0,1.5.231c3.227,0,5.844-3,5.844-6.708s-2.617-7.417-5.844-7.417" fill="#34648c"/>
        </g>
      </g>
    </g>
    <path id="Path_548" data-name="Path 548" d="M501.857,99.58l1.047,9.482a2.339,2.339,0,0,0,2.325,2.082h6.045a2.339,2.339,0,0,0,2.325-2.082l1.047-9.482a.871.871,0,0,0-.866-.967H502.723a.871.871,0,0,0-.866.967" transform="translate(974.559 387)" fill="#cee5ed"/>
    <path id="Path_549" data-name="Path 549" d="M502.723,100.029H513.78a.858.858,0,0,1,.763.486l.1-.936a.871.871,0,0,0-.866-.967H502.723a.871.871,0,0,0-.866.967l.1.936a.859.859,0,0,1,.763-.486" transform="translate(974.559 387)" fill="#aac6ce"/>
    <path id="Path_550" data-name="Path 550" d="M513.78,98.613h-3.834a.871.871,0,0,1,.866.967l-1.047,9.482a2.34,2.34,0,0,1-2.325,2.082h3.834a2.339,2.339,0,0,0,2.325-2.082l1.047-9.482a.871.871,0,0,0-.866-.967" transform="translate(974.559 387)" fill="#aac6ce"/>
    <path id="Path_551" data-name="Path 551" d="M562.2,165.481l-.4,2.74,2.085,2.668,5.289-2.588.573-2.507-6.583-.995Z" transform="translate(974.559 387)" fill="#f2bf75"/>
    <path id="Path_552" data-name="Path 552" d="M566.473,174.3l.546-.676a.255.255,0,0,1,.392,0l.548.643a1.143,1.143,0,0,0,.89.4l12.287-.209a.66.66,0,0,0,.021-.929c-1.8-1.817-11.493-4.96-11.976-5.224s-3.446,2.038-7.373-.08a41.456,41.456,0,0,0-.728,5.069,1.4,1.4,0,0,0,1.419,1.481l3.118-.053a1.128,1.128,0,0,0,.856-.418" transform="translate(974.559 387)" fill="#1e394c"/>
    <path id="Path_553" data-name="Path 553" d="M539.655,119.173s-5.1,5.639,4.241,11.768c6.554,4.3,11.719,2.987,15.832,5.593a3.469,3.469,0,0,1,1.767,2.661l.208,26.366.5.247a9.057,9.057,0,0,0,7.878.086l3.721-30.083c.133-2.074-.988-3.822-2.272-5.456-7.143-9.087-19.792-12.166-22.994-12.691-4.162-.682-8.879,1.509-8.879,1.509" transform="translate(974.559 387)" fill="#1e394c"/>
    <path id="Path_554" data-name="Path 554" d="M541.887,165.478l-.434,2.735,2.048,2.7,5.324-2.516.607-2.5-6.569-1.086Z" transform="translate(974.559 387)" fill="#f2bf75"/>
    <path id="Path_555" data-name="Path 555" d="M546.035,174.355l.555-.669a.255.255,0,0,1,.392,0l.539.65a1.143,1.143,0,0,0,.885.413l12.288-.041a.659.659,0,0,0,.034-.928c-1.775-1.842-11.424-5.117-11.9-5.388s-3.474,1.991-7.371-.18a41.562,41.562,0,0,0-.8,5.058,1.4,1.4,0,0,0,1.4,1.5l3.118-.011a1.127,1.127,0,0,0,.862-.406" transform="translate(974.559 387)" fill="#1e394c"/>
    <path id="Path_556" data-name="Path 556" d="M524.146,114.256s-6.182,6.89,2.758,14.672c6.27,5.46,11.9,3.125,15.846,6.455a3.673,3.673,0,0,1,1.474,3.05L541.4,165.252l.214.138a8.5,8.5,0,0,0,8.242.562l6.988-28.261c.439-2.16-.488-4.159-1.6-6.06-6.2-10.575-15.942-16.878-19.231-17.889-4.276-1.315-11.864.514-11.864.514" transform="translate(974.559 387)" fill="#1e394c"/>
    <path id="Path_557" data-name="Path 557" d="M558.25,135.779a12.194,12.194,0,0,0-1.44-.5,12.3,12.3,0,0,0-1.57-3.65,48.4,48.4,0,0,0-10.62-12.45c2.24-.38,3.38-.86,4-1.49a42.11,42.11,0,0,1,6.711,1.82c3.039,5.08,3.029,13.33,2.919,16.27" transform="translate(974.559 387)" fill="#0f2a3f"/>
    <path id="Path_558" data-name="Path 558" d="M540.79,77.794s-8.916-1.189-12.621,5.758-9.238,34.181-4.4,35.009c2.142.367,7.854,1.8,14.184,1.341,8.7-.637,10.595-1.437,11.222-3.093l5.544-25.379a10.733,10.733,0,0,0-4.209-8.96,30.216,30.216,0,0,0-9.72-4.676" transform="translate(974.559 387)" fill="#cee5ed"/>
    <path id="Path_559" data-name="Path 559" d="M554.685,89.2s.116,15.284,4.921,16.21,17.6.637,17.6.637v4.863H549.764Z" transform="translate(974.559 387)" fill="#aac6ce"/>
    <path id="Path_560" data-name="Path 560" d="M548.041,82.266l1.081-5.406-7.011-5.34-1.343,6.372s2.211,9.731,7.273,4.374" transform="translate(974.559 387)" fill="#ea9249"/>
    <path id="Path_561" data-name="Path 561" d="M556.985,66.557s-3.668,1.785-9.043-1.49a12.713,12.713,0,0,1-4.847,4.242s-1.872-3.137-2.949-.786a4.972,4.972,0,0,0-.495,1.918c-3.373-4.356-.995-10.1,2.15-13.19,2.98-2.937,9.432-1.769,13.462-.149,4.278,1.722,5.064-1.274,5.064-1.274,5.406,7.615-3.342,10.729-3.342,10.729" transform="translate(974.559 387)" fill="#1e394c"/>
    <path id="Path_562" data-name="Path 562" d="M543.093,69.308s-1.872-3.137-2.949-.786c-1.306,2.851.168,4.64,1.937,4.64,0,0,1.405,7.416,8.22,6.892s7.8-11.467,6.683-13.5c0,0-3.669,1.785-9.042-1.491a12.677,12.677,0,0,1-4.849,4.243" transform="translate(974.559 387)" fill="#f2bf75"/>
    <path id="Path_563" data-name="Path 563" d="M602.159,86.656H573.714a2.952,2.952,0,0,0-2.891,2.36l-3.786,18.561H601.5L605.05,90.2a2.95,2.95,0,0,0-2.891-3.54" transform="translate(974.559 387)" fill="#cee5ed"/>
    <path id="Path_564" data-name="Path 564" d="M601.394,107.579h-47.01a1.4,1.4,0,0,0-1.4,1.4v.455a1.4,1.4,0,0,0,1.4,1.4h47.01a1.4,1.4,0,0,0,1.4-1.4v-.455a1.4,1.4,0,0,0-1.4-1.4" transform="translate(974.559 387)" fill="#80a9b2"/>
    <path id="Path_565" data-name="Path 565" d="M601.394,107.579H566.66a1.4,1.4,0,0,1,1.4,1.4v.455a1.4,1.4,0,0,1-1.4,1.4h34.734a1.4,1.4,0,0,0,1.4-1.4v-.455a1.4,1.4,0,0,0-1.4-1.4" transform="translate(974.559 387)" fill="#aac6ce"/>
    <path id="Path_566" data-name="Path 566" d="M555.9,106.584c-5.538-.645-21.074-2.23-23.737-2.506-3.357-.347,3.937-13.894,4.748-18.526s-2.721-4.805-2.721-4.805a5.657,5.657,0,0,0-6.021,2.806c-3.792,5.742-8.016,22.529-5.79,26.674a1.5,1.5,0,0,0,1.325.784h32.2Z" transform="translate(974.559 387)" fill="#cee5ed"/>
    <path id="Path_567" data-name="Path 567" d="M555.9,106.584s-20-1.377-24.315-1.956c-3.346-.449,3.628-14.328,4.438-18.96s-2.779-4.438-2.779-4.438a8.574,8.574,0,0,0-3.123.293,5.789,5.789,0,0,1,4.071-.778s3.529.176,2.719,4.807-7.063,17.89-4.95,18.411c2.6.641,18.4,1.977,23.939,2.621" transform="translate(974.559 387)" fill="#aac6ce"/>
    <path id="Path_568" data-name="Path 568" d="M555.9,111.083h7.461a.7.7,0,0,0,.592-1.089c-.7-1.074-1.8-2.591-2.611-2.848a35.5,35.5,0,0,0-5.442.123Z" transform="translate(974.559 387)" fill="#f2bf75"/>
    <g id="Group_156" data-name="Group 156" transform="translate(974.559 387)" opacity="0.67">
      <g id="Group_155" data-name="Group 155">
        <g id="Group_154" data-name="Group 154" clip-path="url(#clip-path-5)">
          <path id="Path_569" data-name="Path 569" d="M556.985,66.556a5.972,5.972,0,0,1-1.69.422c-.09.5-.253,1.475-.341,2.4-.125,1.313.532,5.375.125,5.406a11.67,11.67,0,0,1-1.25-.031s-.625,5.875-6.5,4.938l-.152-.023a7.428,7.428,0,0,0,3.124.391c6.815-.524,7.8-11.467,6.684-13.5" fill="#ea9249"/>
        </g>
      </g>
    </g>
    <path id="Path_570" data-name="Path 570" d="M642.513,151.921s9.371-4.648,6.822-11.7-4.123-7.347.75-11.321,11.92-13.944,3-14.694-8.472,11.1-15.894,12.745-11.47,32.687,5.323,24.965" transform="translate(974.559 387)" fill="#ee8436"/>
    <g id="Group_159" data-name="Group 159" transform="translate(974.559 387)" opacity="0.25">
      <g id="Group_158" data-name="Group 158">
        <g id="Group_157" data-name="Group 157" clip-path="url(#clip-path-6)">
          <path id="Path_571" data-name="Path 571" d="M635.137,152.62c1.8.834,4.219.753,7.376-.7,0,0,9.371-4.649,6.822-11.7s-4.123-7.347.75-11.32,11.92-13.945,3-14.694a8.191,8.191,0,0,0-2.378.127c2.511,1.043,5.008,3.112,1.78,6.941-5.375,6.375-8.25,8.625-7.625,12.75.61,4.022.264,13.154-9.723,18.59" fill="#34648c"/>
        </g>
      </g>
    </g>
    <path id="Path_572" data-name="Path 572" d="M626.619,151.7s-8.247-.3-7.8-6.223.679-6.154-4.5-8.021c-9.146-3.3-1.906-20.866,5.548-9.821,5.173,7.665,7.422,5.941,10.795,6.541s10.721,20.148-4.048,17.524" transform="translate(974.559 387)" fill="#ee8436"/>
    <g id="Group_162" data-name="Group 162" transform="translate(974.559 387)" opacity="0.29">
      <g id="Group_161" data-name="Group 161">
        <g id="Group_160" data-name="Group 160" clip-path="url(#clip-path-7)">
          <path id="Path_573" data-name="Path 573" d="M630.667,134.172c-3.374-.6-5.623,1.124-10.8-6.541-3.9-5.781-7.739-3.72-9.2.028,2.194-.672,5.528-1.076,5.943,2.5.539,4.634,11.38,12.243,11.158,21.7.144.015.283.025.423.036,1.577-4.159,3.659-9.555,5.441-14.152-.953-1.982-2.091-3.412-2.965-3.567" fill="#34648c"/>
        </g>
      </g>
    </g>
    <path id="Path_574" data-name="Path 574" d="M628.531,151.434s-10.233-10.008-6.747-11.7,10.346,3.823,6.522-2.137-8.275-15.244-2.99-13.782,5.668,3.068,5.014-3.874c-.846-8.979,4.161-13.607,8.884-10.683s-4.048,22.716-.787,20.58,5.96-3.936,6.635-1.35-9.337,12.742-5.623,11.021c4.611-2.137,5.286,1.686,3.824,4.048s-7.535,16.419-14.732,7.872" transform="translate(974.559 387)" fill="#ee8436"/>
    <g id="Group_165" data-name="Group 165" transform="translate(974.559 387)" opacity="0.48">
      <g id="Group_164" data-name="Group 164">
        <g id="Group_163" data-name="Group 163" clip-path="url(#clip-path-8)">
          <path id="Path_575" data-name="Path 575" d="M643.262,143.562c1.462-2.362.787-6.185-3.823-4.048-3.715,1.721,6.3-8.434,5.622-11.021s-3.373-.787-6.635,1.35,5.511-17.656.788-20.58a4.82,4.82,0,0,0-6.149.516c2.445.6,4.4,2.565,3.045,7.875-2.875,11.25-4.625,20.625.625,17.875,4.945-2.59-5.743,9.347-5.852,17.95,6.137,3.507,11.08-7.818,12.379-9.917" fill="#1e394c"/>
        </g>
      </g>
    </g>
    <path id="Path_576" data-name="Path 576" d="M621.445,152.608l1.98,17.931a4.425,4.425,0,0,0,4.4,3.939h11.43a4.424,4.424,0,0,0,4.4-3.939l1.98-17.931a1.647,1.647,0,0,0-1.637-1.828h-20.91a1.647,1.647,0,0,0-1.638,1.828" transform="translate(974.559 387)" fill="#cee5ed"/>
    <path id="Path_577" data-name="Path 577" d="M643.993,150.779h-7.25a1.648,1.648,0,0,1,1.638,1.828L636.4,170.539a4.424,4.424,0,0,1-4.4,3.938h7.25a4.424,4.424,0,0,0,4.4-3.938l1.981-17.932a1.648,1.648,0,0,0-1.638-1.828" transform="translate(974.559 387)" fill="#aac6ce"/>
    <path id="Path_578" data-name="Path 578" d="M621.763,111.025H499.2a2.491,2.491,0,0,0-2.491,2.491v.807a2.491,2.491,0,0,0,2.491,2.491h122.56a2.491,2.491,0,0,0,2.491-2.491v-.807a2.491,2.491,0,0,0-2.491-2.491" transform="translate(974.559 387)" fill="#ee8436"/>
    <path id="Path_579" data-name="Path 579" d="M621.763,111.025H499.2a2.491,2.491,0,0,0-2.491,2.491v.807a2.446,2.446,0,0,0,.129.755,2.482,2.482,0,0,1,2.362-1.737h122.56a2.482,2.482,0,0,1,2.362,1.737,2.445,2.445,0,0,0,.129-.755v-.807a2.491,2.491,0,0,0-2.491-2.491" transform="translate(974.559 387)" fill="#d87024"/>
    <path id="Path_580" data-name="Path 580" d="M537.941,174.564h-4.1l-28.5-57.72h4.1Z" transform="translate(974.559 387)" fill="#ee8436"/>
    <path id="Path_581" data-name="Path 581" d="M492.842,174.564h4.1l28.5-57.72h-4.1Z" transform="translate(974.559 387)" fill="#ee8436"/>
    <path id="Path_582" data-name="Path 582" d="M626.171,174.564h-4.1l-28.5-57.72h4.1Z" transform="translate(974.559 387)" fill="#ee8436"/>
    <path id="Path_583" data-name="Path 583" d="M581.072,174.564h4.1l28.5-57.72h-4.1Z" transform="translate(974.559 387)" fill="#ee8436"/>
    <path id="Path_584" data-name="Path 584" d="M510.572,119.131l-1.129-2.287h-4.1l1.129,2.287Z" transform="translate(974.559 387)" fill="#d87024"/>
    <path id="Path_585" data-name="Path 585" d="M524.307,119.131l1.129-2.287h-4.1l-1.129,2.287Z" transform="translate(974.559 387)" fill="#d87024"/>
    <path id="Path_586" data-name="Path 586" d="M598.8,119.131l-1.129-2.287h-4.1l1.129,2.287Z" transform="translate(974.559 387)" fill="#d87024"/>
    <path id="Path_587" data-name="Path 587" d="M612.537,119.131l1.129-2.287h-4.1l-1.129,2.287Z" transform="translate(974.559 387)" fill="#d87024"/>
  </g>
</svg>
