<svg xmlns="http://www.w3.org/2000/svg" width="7.929" height="8.751" viewBox="0 0 7.929 12.751">
  <g id="Icon_material-help" data-name="Icon material-help" transform="translate(0.75 0.75)">
    <path id="Icon_material-help-2" data-name="Icon material-help" d="M11.84,16.662H10.233V15.055H11.84ZM13.5,10.434l-.723.739a2.736,2.736,0,0,0-.94,2.274H10.233v-.4a3.235,3.235,0,0,1,.94-2.274l1-1.013a1.571,1.571,0,0,0,.474-1.133,1.607,1.607,0,0,0-3.215,0H7.822a3.215,3.215,0,0,1,6.429,0A2.557,2.557,0,0,1,13.5,10.434Z" transform="translate(-7.822 -5.411)" fill="#fff" stroke="rgba(238,132,54,0)" stroke-width="1.5"/>
  </g>
</svg>
