<svg xmlns="http://www.w3.org/2000/svg" xmlns:xlink="http://www.w3.org/1999/xlink" width="139.054" height="161.883" viewBox="0 0 169.054 192.883">
  <defs>
    <clipPath id="clip-path">
      <rect id="Rectangle_64" data-name="Rectangle 64" width="169.054" height="156.667" transform="translate(0 26.144)" fill="none"/>
    </clipPath>
    <clipPath id="clip-path-2">
      <path id="Path_447" data-name="Path 447" d="M35.87,182.811h97.314c21.69-14.952,35.87-39.609,35.87-67.518,0-45.615-37.844-89.149-84.527-89.149S0,69.678,0,115.293c0,27.909,14.181,52.566,35.87,67.518" fill="none"/>
    </clipPath>
    <clipPath id="clip-path-3">
      <rect id="Rectangle_65" data-name="Rectangle 65" width="118.282" height="34.853" transform="translate(13.682 158.03)" fill="none"/>
    </clipPath>
    <clipPath id="clip-path-4">
      <rect id="Rectangle_66" data-name="Rectangle 66" width="53.048" height="122.577" transform="translate(96.44 7.225)" fill="none"/>
    </clipPath>
    <clipPath id="clip-path-5">
      <rect id="Rectangle_67" data-name="Rectangle 67" width="52.263" height="13.035" transform="translate(93.943 147.438)" fill="none"/>
    </clipPath>
    <clipPath id="clip-path-6">
      <rect id="Rectangle_68" data-name="Rectangle 68" width="9.567" height="26.542" transform="translate(24.567 93.134)" fill="none"/>
    </clipPath>
    <clipPath id="clip-path-7">
      <rect id="Rectangle_69" data-name="Rectangle 69" width="11.803" height="18.392" transform="translate(40.751 116.62)" fill="none"/>
    </clipPath>
    <clipPath id="clip-path-8">
      <rect id="Rectangle_70" data-name="Rectangle 70" width="12.07" height="20.505" transform="translate(39.216 92.587)" fill="none"/>
    </clipPath>
    <clipPath id="clip-path-9">
      <rect id="Rectangle_71" data-name="Rectangle 71" width="16.071" height="23.828" transform="translate(14.127 114.471)" fill="none"/>
    </clipPath>
  </defs>
  <g id="Group_166" data-name="Group 166" transform="translate(-235 -364.06)">
    <g id="Group_95" data-name="Group 95" transform="translate(235 364.059)" opacity="0.42">
      <g id="Group_94" data-name="Group 94">
        <g id="Group_93" data-name="Group 93" clip-path="url(#clip-path)">
          <g id="Group_92" data-name="Group 92">
            <g id="Group_91" data-name="Group 91" clip-path="url(#clip-path-2)">
              <rect id="Rectangle_63" data-name="Rectangle 63" width="169.054" height="156.667" transform="translate(0 26.144)" fill="#ededed"/>
            </g>
          </g>
        </g>
      </g>
    </g>
    <g id="Group_98" data-name="Group 98" transform="translate(235 364.059)" opacity="0.43">
      <g id="Group_97" data-name="Group 97">
        <g id="Group_96" data-name="Group 96" clip-path="url(#clip-path-3)">
          <path id="Path_448" data-name="Path 448" d="M131.963,188.648c.227-6.289-26.068-17.293-58.73-24.578s-59.323-8.094-59.55-1.805,26.068,17.293,58.73,24.579,59.323,8.093,59.55,1.8" fill="#e0e0e0"/>
        </g>
      </g>
    </g>
    <path id="Path_449" data-name="Path 449" d="M102.065,118.694c-5.6-2.042-10.159-8.242-10.159-13.822V10.2c0-5.579,4.557-8.457,10.159-6.415l41.123,14.99c5.6,2.042,10.158,8.243,10.158,13.822v94.669c0,5.579-4.557,8.457-10.159,6.415Z" transform="translate(235 364.059)" fill="#17161c"/>
    <path id="Path_450" data-name="Path 450" d="M102.726,121.821c-5.9-2.153-10.709-8.689-10.709-14.57V7.455c0-5.881,4.8-8.915,10.709-6.762l43.35,15.8c5.9,2.152,10.708,8.688,10.708,14.569v99.8c0,5.881-4.8,8.914-10.709,6.762Z" transform="translate(235 364.059)" fill="#1e394c"/>
    <path id="Path_451" data-name="Path 451" d="M102.065,114.851c-3.474-1.266-6.3-5.112-6.3-8.572V11.61c0-3.46,2.826-5.245,6.3-3.978l41.122,14.99c3.474,1.266,6.3,5.111,6.3,8.572v94.669c0,3.46-2.827,5.245-6.3,3.978Z" transform="translate(235 364.059)" fill="#f8f8f8"/>
    <g id="Group_101" data-name="Group 101" transform="translate(235 364.059)" opacity="0.25">
      <g id="Group_100" data-name="Group 100">
        <g id="Group_99" data-name="Group 99" clip-path="url(#clip-path-4)">
          <path id="Path_452" data-name="Path 452" d="M143.188,22.622,102.066,7.632c-2.459-.9-4.588-.259-5.626,1.415a5.175,5.175,0,0,1,4.126-.04L141.688,24c3.474,1.266,6.3,5.112,6.3,8.572v94.669a4.808,4.808,0,0,1-.674,2.564,4.16,4.16,0,0,0,2.174-3.939V31.194c0-3.46-2.827-7.306-6.3-8.572" fill="#34648c"/>
        </g>
      </g>
    </g>
    <path id="Path_453" data-name="Path 453" d="M137.923,19.942,107.331,8.79l1.36,3.651a6.394,6.394,0,0,0,3.6,3.673l20.676,7.537c1.565.57,2.98.158,3.6-1.05Z" transform="translate(235 364.059)" fill="#1e394c"/>
    <path id="Path_454" data-name="Path 454" d="M141.518,35.633,103.736,21.861c-2.027-.739-3.67.3-3.67,2.317V41.21a5.8,5.8,0,0,0,3.67,4.993l37.782,13.772c2.026.739,3.67-.3,3.67-2.317V40.626a5.8,5.8,0,0,0-3.67-4.993" transform="translate(235 364.059)" fill="#ee8436"/>
    <path id="Path_455" data-name="Path 455" d="M141.518,65.58,103.736,51.809c-2.027-.739-3.67.3-3.67,2.317V71.158a5.8,5.8,0,0,0,3.67,4.992l37.782,13.773c2.026.738,3.67-.3,3.67-2.318V70.574a5.8,5.8,0,0,0-3.67-4.994" transform="translate(235 364.059)" fill="#ee8436"/>
    <path id="Path_456" data-name="Path 456" d="M141.518,95.848,103.736,82.075c-2.027-.738-3.67.3-3.67,2.318v17.032a5.8,5.8,0,0,0,3.67,4.993l37.782,13.772c2.026.739,3.67-.3,3.67-2.317V100.841a5.8,5.8,0,0,0-3.67-4.993" transform="translate(235 364.059)" fill="#ee8436"/>
    <path id="Path_457" data-name="Path 457" d="M129.411,38.482l-13.052-4.758a.542.542,0,0,0-.8.506,1.27,1.27,0,0,0,.8,1.089l13.052,4.757a.541.541,0,0,0,.8-.505,1.268,1.268,0,0,0-.8-1.089" transform="translate(235 364.059)" fill="#fff"/>
    <path id="Path_458" data-name="Path 458" d="M129.411,47.438,116.359,42.68a.542.542,0,0,0-.8.506,1.27,1.27,0,0,0,.8,1.089l13.052,4.757a.541.541,0,0,0,.8-.505,1.268,1.268,0,0,0-.8-1.089" transform="translate(235 364.059)" fill="#fff"/>
    <path id="Path_459" data-name="Path 459" d="M133.431,44.485l-21.609-7.877a.542.542,0,0,0-.8.5,1.267,1.267,0,0,0,.8,1.089l21.609,7.877a.541.541,0,0,0,.8-.5,1.268,1.268,0,0,0-.8-1.089" transform="translate(235 364.059)" fill="#fff"/>
    <path id="Path_460" data-name="Path 460" d="M129.411,70.594l-13.052-4.758a.542.542,0,0,0-.8.506,1.27,1.27,0,0,0,.8,1.089l13.052,4.757a.541.541,0,0,0,.8-.505,1.269,1.269,0,0,0-.8-1.089" transform="translate(235 364.059)" fill="#fff"/>
    <path id="Path_461" data-name="Path 461" d="M133.431,76.6,111.822,68.72a.542.542,0,0,0-.8.5,1.267,1.267,0,0,0,.8,1.089l21.609,7.877a.541.541,0,0,0,.8-.505,1.269,1.269,0,0,0-.8-1.089" transform="translate(235 364.059)" fill="#fff"/>
    <path id="Path_462" data-name="Path 462" d="M129.411,98.672l-13.052-4.758a.542.542,0,0,0-.8.506,1.27,1.27,0,0,0,.8,1.089l13.052,4.757a.541.541,0,0,0,.8-.5,1.27,1.27,0,0,0-.8-1.089" transform="translate(235 364.059)" fill="#fff"/>
    <path id="Path_463" data-name="Path 463" d="M129.411,107.547l-13.052-4.758a.542.542,0,0,0-.8.506,1.27,1.27,0,0,0,.8,1.089l13.052,4.757a.541.541,0,0,0,.8-.5,1.269,1.269,0,0,0-.8-1.089" transform="translate(235 364.059)" fill="#fff"/>
    <path id="Path_464" data-name="Path 464" d="M133.431,104.675,111.822,96.8a.542.542,0,0,0-.8.505,1.267,1.267,0,0,0,.8,1.089l21.609,7.877a.541.541,0,0,0,.8-.5,1.268,1.268,0,0,0-.8-1.089" transform="translate(235 364.059)" fill="#fff"/>
    <path id="Path_465" data-name="Path 465" d="M92.194,172.811s-1.968-.706-2.22-5.047H84.221l-.556,5.955,4.29,3.583,3.734-1.867Z" transform="translate(235 364.059)" fill="#f2bf75"/>
    <path id="Path_466" data-name="Path 466" d="M83.665,173.719s6.712,2.221,8.529-.908c0,0,12.4,4.621,12.313,6-.142,2.183-10.4,2.631-12.667,2.076l-1.968-1.968-.858,2.271H83.362s.051-7.116.3-7.469" transform="translate(235 364.059)" fill="#1e394c"/>
    <path id="Path_467" data-name="Path 467" d="M70.724,172.858s-1.934-.8-1.986-5.143l-5.747-.265-.828,5.923,4.12,3.777,3.816-1.694Z" transform="translate(235 364.059)" fill="#f2bf75"/>
    <path id="Path_468" data-name="Path 468" d="M62.163,173.373s6.6,2.527,8.561-.515c0,0,10.854,3.909,11.478,5.705s-9.959,3-12.2,2.344l-1.875-2.056-.962,2.229-5.646-.26s.378-7.106.646-7.447" transform="translate(235 364.059)" fill="#1e394c"/>
    <path id="Path_469" data-name="Path 469" d="M58.282,104.683s3.734,15.139,4.643,17.663,2.826,14.836,2.927,15.24-4.239,32.1-4.239,32.1,5.854,1.312,8.175-.2l6.359-31.995L73.421,106Z" transform="translate(235 364.059)" fill="#1e394c"/>
    <path id="Path_470" data-name="Path 470" d="M59.089,103.876s5.753,9.841,10.9,14.231,11.506,16.2,11.506,16.2l.757,35.124a8.145,8.145,0,0,0,8.093.208l.385-.208s.909-36.486.757-38.909-13.02-30.278-13.02-30.278Z" transform="translate(235 364.059)" fill="#1e394c"/>
    <path id="Path_471" data-name="Path 471" d="M81.344,39.382s-4.5,15.9-11.733,15.442c-6.333-.4-7.511-6.97-5.98-15.063,1.59-8.4,8.528-7.293,12.566-7.343,0,0,5,0,5.828-3.861,0,0,5.829,7.949-.681,10.825" transform="translate(235 364.059)" fill="#1e394c"/>
    <path id="Path_472" data-name="Path 472" d="M69.86,58.769S61.047,57.207,56.969,76.02c-1.712,7.9,7.267,20.286,7.267,20.286L73.622,78.24Z" transform="translate(235 364.059)" fill="#aac6ce"/>
    <path id="Path_473" data-name="Path 473" d="M106.854,48.087s3.331-9.159,3.331-11.657,1.892-.3,1.816,1.589a27.649,27.649,0,0,1-.53,4.012s2.574.227,2.574,1.438S113.212,48.92,112,49.6Z" transform="translate(235 364.059)" fill="#f2bf75"/>
    <path id="Path_474" data-name="Path 474" d="M74.758,60.048c5.853,3.012,18.394,10.9,21.271,8.327s10.825-20.287,10.825-20.287L112,49.6S101,79.124,97.745,79.048s-14.332-2.221-14.332-2.221-1.01,20.842-4.038,26.595c0,0-14.912,5.375-22.633.984a28.6,28.6,0,0,0,4.693-20.211c-1.741-12.6,1.628-30.165,13.323-24.147" transform="translate(235 364.059)" fill="#cee5ed"/>
    <path id="Path_475" data-name="Path 475" d="M81.344,39.382a15.159,15.159,0,0,0,1.363,4.088,12.094,12.094,0,0,0,2.649,2.573L83.918,47.86a6.542,6.542,0,0,1-5.678,7.57l-.681,6.283-7.645-2.574-.3-4.315A5.172,5.172,0,0,0,70.936,52.1a3.615,3.615,0,0,1-1.022-3.217c.492-1.741,2.044-3.066,2.763-2.422a3.217,3.217,0,0,1,.795,1.93h.984s-.173-2.881.416-4.088a9.588,9.588,0,0,1,6.472-4.92" transform="translate(235 364.059)" fill="#ea9249"/>
    <path id="Path_476" data-name="Path 476" d="M77.559,61.713l.681-6.283a6.541,6.541,0,0,0,5.678-7.569l1.438-1.817a12.127,12.127,0,0,1-2.65-2.574,15.181,15.181,0,0,1-1.362-4.088c-.307.071-.586.168-.87.259A22.462,22.462,0,0,1,81.8,45.207c.25,3.25-.264,6.922-4.813,9.687-1.542.937-2.1,3.483-2.269,5.862Z" transform="translate(235 364.059)" fill="#f2bf75"/>
    <path id="Path_477" data-name="Path 477" d="M75.039,124.72c-5.031-1.138-9.786-4.148-13.456-7.084-1.2-4.532-2.745-10.734-3.181-12.478a13.965,13.965,0,0,0,1.8.521c1.915,3.053,6.01,9.212,9.786,12.425a34.543,34.543,0,0,1,4.979,5.744Z" transform="translate(235 364.059)" fill="#0f2a3f"/>
    <g id="Group_104" data-name="Group 104" transform="translate(235 364.059)" opacity="0.43">
      <g id="Group_103" data-name="Group 103">
        <g id="Group_102" data-name="Group 102" clip-path="url(#clip-path-5)">
          <path id="Path_478" data-name="Path 478" d="M146.206,158.828c-.071-2.39-11.828-6.51-26.26-9.2s-26.074-2.935-26-.545,11.828,6.51,26.26,9.2,26.073,2.935,26,.545" fill="#bcbcbc"/>
        </g>
      </g>
    </g>
    <path id="Path_479" data-name="Path 479" d="M33.686,119.676s3.538-30.856-9.237-26.041c-13.161,4.96,3.341,25.353,9.237,26.041" transform="translate(235 364.059)" fill="#ee8436"/>
    <path id="Path_480" data-name="Path 480" d="M30.2,138.3s-3.873-30.881-15.109-22.332C4.918,123.705,22.68,136.013,30.2,138.3" transform="translate(235 364.059)" fill="#ee8436"/>
    <path id="Path_481" data-name="Path 481" d="M21.887,126.711c5.136,7.126,10.131,14.368,11.725,23.182.084.468.8.269.713-.2-1.6-8.869-6.622-16.176-11.8-23.359-.276-.382-.918-.013-.639.374" transform="translate(235 364.059)" fill="#1e394c"/>
    <path id="Path_482" data-name="Path 482" d="M39.975,113.092s-4.619-22.7,7.075-20.637-4.127,19.556-7.075,20.637" transform="translate(235 364.059)" fill="#ee8436"/>
    <path id="Path_483" data-name="Path 483" d="M41.056,135.006c-.6.4-1.179-19.163,7.075-18.475s4.422,10.81-7.075,18.475" transform="translate(235 364.059)" fill="#ee8436"/>
    <path id="Path_484" data-name="Path 484" d="M37.445,133.427c-.9-11.5,3.88-24.465,8.338-34.945.184-.434-.453-.811-.639-.374-4.532,10.654-9.356,23.58-8.439,35.319.037.472.777.476.74,0" transform="translate(235 364.059)" fill="#1e394c"/>
    <path id="Path_485" data-name="Path 485" d="M38.5,148.033c-.594-13.493-1.783-27.193-9.342-38.8-.259-.4-.9-.027-.639.374,7.5,11.5,8.652,25.046,9.241,38.422.021.475.761.477.74,0" transform="translate(235 364.059)" fill="#1e394c"/>
    <path id="Path_486" data-name="Path 486" d="M40.232,147.442c.305-7.1.777-14.188,4.684-20.348.256-.4-.385-.775-.639-.374-3.964,6.25-4.476,13.51-4.785,20.722-.021.476.72.475.74,0" transform="translate(235 364.059)" fill="#1e394c"/>
    <path id="Path_487" data-name="Path 487" d="M27.216,145.967l1.921,17.394a4.292,4.292,0,0,0,4.266,3.82H44.491a4.292,4.292,0,0,0,4.265-3.82l1.92-17.394a1.6,1.6,0,0,0-1.587-1.774H28.806a1.6,1.6,0,0,0-1.59,1.774" transform="translate(235 364.059)" fill="#cee5ed"/>
    <path id="Path_488" data-name="Path 488" d="M49.088,144.194H42.055a1.6,1.6,0,0,1,1.589,1.774l-1.921,17.393a4.292,4.292,0,0,1-4.265,3.821H44.49a4.291,4.291,0,0,0,4.265-3.821l1.922-17.393a1.6,1.6,0,0,0-1.589-1.774" transform="translate(235 364.059)" fill="#aac6ce"/>
    <g id="Group_107" data-name="Group 107" transform="translate(235 364.059)" opacity="0.26">
      <g id="Group_106" data-name="Group 106">
        <g id="Group_105" data-name="Group 105" clip-path="url(#clip-path-6)">
          <path id="Path_489" data-name="Path 489" d="M29.343,117.3a9.723,9.723,0,0,0,4.343,2.381S37.2,89.028,24.568,93.6c3.374,4.223,10.577,14.97,4.775,23.7" fill="#0f2a3f"/>
        </g>
      </g>
    </g>
    <g id="Group_110" data-name="Group 110" transform="translate(235 364.059)" opacity="0.26">
      <g id="Group_109" data-name="Group 109">
        <g id="Group_108" data-name="Group 108" clip-path="url(#clip-path-7)">
          <path id="Path_490" data-name="Path 490" d="M48.843,116.62c.282,3.886.243,14.158-8.046,13.541-.139,2.851.059,4.979.259,4.845,11.151-7.434,15.091-17.178,7.787-18.386" fill="#0f2a3f"/>
        </g>
      </g>
    </g>
    <g id="Group_113" data-name="Group 113" transform="translate(235 364.059)" opacity="0.42">
      <g id="Group_112" data-name="Group 112">
        <g id="Group_111" data-name="Group 111" clip-path="url(#clip-path-8)">
          <path id="Path_491" data-name="Path 491" d="M47.611,92.587c.257,4.024.2,15.186-8.4,14.737a52.769,52.769,0,0,0,.759,5.768c2.9-1.062,18.208-17.964,7.636-20.505" fill="#34648c"/>
        </g>
      </g>
    </g>
    <g id="Group_116" data-name="Group 116" transform="translate(235 364.059)" opacity="0.42">
      <g id="Group_115" data-name="Group 115">
        <g id="Group_114" data-name="Group 114" clip-path="url(#clip-path-9)">
          <path id="Path_492" data-name="Path 492" d="M30.2,138.3s-3.873-30.881-15.109-22.332a10.5,10.5,0,0,0-.962.833c3.51,1.211,15.083,6.279,11.3,19.409A27.144,27.144,0,0,0,30.2,138.3" fill="#34648c"/>
        </g>
      </g>
    </g>
  </g>
</svg>
