<svg id="Group_199" data-name="Group 199" xmlns="http://www.w3.org/2000/svg" xmlns:xlink="http://www.w3.org/1999/xlink" width="139.054" height="161.429" viewBox="0 0 169.054 161.429">
  <defs>
    <clipPath id="clip-path">
      <rect id="Rectangle_111" data-name="Rectangle 111" width="169.054" height="161.429" fill="none"/>
    </clipPath>
    <clipPath id="clip-path-3">
      <rect id="Rectangle_98" data-name="Rectangle 98" width="169.054" height="156.667" transform="translate(0 1)" fill="none"/>
    </clipPath>
    <clipPath id="clip-path-4">
      <path id="Path_588" data-name="Path 588" d="M35.87,157.667h97.314c21.69-14.952,35.87-39.609,35.87-67.517C169.054,44.534,131.21,1,84.527,1S0,44.534,0,90.15c0,27.908,14.181,52.565,35.87,67.517" fill="none"/>
    </clipPath>
    <clipPath id="clip-path-5">
      <rect id="Rectangle_99" data-name="Rectangle 99" width="140.382" height="7.024" transform="translate(12.469 154.405)" fill="none"/>
    </clipPath>
    <clipPath id="clip-path-7">
      <rect id="Rectangle_105" data-name="Rectangle 105" width="14.183" height="15.442" transform="translate(136.647 102.219)" fill="none"/>
    </clipPath>
    <clipPath id="clip-path-8">
      <rect id="Rectangle_106" data-name="Rectangle 106" width="7.048" height="18.436" transform="translate(124.825 91.559)" fill="none"/>
    </clipPath>
    <clipPath id="clip-path-9">
      <rect id="Rectangle_107" data-name="Rectangle 107" width="11.201" height="15.647" transform="translate(108.761 91.691)" fill="none"/>
    </clipPath>
    <clipPath id="clip-path-10">
      <rect id="Rectangle_108" data-name="Rectangle 108" width="15.551" height="9" transform="translate(105.865 111.573)" fill="none"/>
    </clipPath>
    <clipPath id="clip-path-11">
      <rect id="Rectangle_109" data-name="Rectangle 109" width="14.777" height="9.806" transform="translate(139.417 116.692)" fill="none"/>
    </clipPath>
  </defs>
  <g id="Group_198" data-name="Group 198" clip-path="url(#clip-path)">
    <g id="Group_177" data-name="Group 177">
      <g id="Group_176" data-name="Group 176" clip-path="url(#clip-path)">
        <g id="Group_172" data-name="Group 172" opacity="0.42">
          <g id="Group_171" data-name="Group 171">
            <g id="Group_170" data-name="Group 170" clip-path="url(#clip-path-3)">
              <g id="Group_169" data-name="Group 169">
                <g id="Group_168" data-name="Group 168" clip-path="url(#clip-path-4)">
                  <rect id="Rectangle_97" data-name="Rectangle 97" width="169.054" height="156.667" transform="translate(0 1)" fill="#ededed"/>
                </g>
              </g>
            </g>
          </g>
        </g>
        <g id="Group_175" data-name="Group 175" opacity="0.43">
          <g id="Group_174" data-name="Group 174">
            <g id="Group_173" data-name="Group 173" clip-path="url(#clip-path-5)">
              <path id="Path_589" data-name="Path 589" d="M152.851,157.917c0-1.94-31.426-3.512-70.191-3.512s-70.191,1.572-70.191,3.512,31.425,3.512,70.191,3.512,70.191-1.573,70.191-3.512" fill="#cee5ed"/>
            </g>
          </g>
        </g>
      </g>
    </g>
    <path id="Path_590" data-name="Path 590" d="M72.757,144.8l.525,3.31L70.8,151.372l-6.444-3.046-.735-3.024,7.951-1.313Z" fill="#f2bf75"/>
    <g id="Group_197" data-name="Group 197">
      <g id="Group_196" data-name="Group 196" clip-path="url(#clip-path)">
        <path id="Path_591" data-name="Path 591" d="M67.737,155.543l-.672-.809a.307.307,0,0,0-.474,0l-.653.787a1.385,1.385,0,0,1-1.071.5l-14.875-.05a.8.8,0,0,1-.041-1.124c2.149-2.229,13.829-6.193,14.408-6.522s4.206,2.41,8.924-.218a50.48,50.48,0,0,1,.966,6.123,1.7,1.7,0,0,1-1.693,1.817l-3.776-.013a1.363,1.363,0,0,1-1.043-.492" fill="#1e394c"/>
        <path id="Path_592" data-name="Path 592" d="M96.594,144.932l.525,3.31-2.479,3.264L88.2,148.46l-.735-3.024,7.951-1.313Z" fill="#f2bf75"/>
        <path id="Path_593" data-name="Path 593" d="M91.574,155.677l-.672-.809a.308.308,0,0,0-.474,0l-.653.787a1.384,1.384,0,0,1-1.07.5l-14.876-.05a.8.8,0,0,1-.041-1.124c2.149-2.23,13.829-6.193,14.408-6.522s4.206,2.41,8.924-.218a50.479,50.479,0,0,1,.966,6.123,1.7,1.7,0,0,1-1.693,1.817l-3.775-.013a1.363,1.363,0,0,1-1.044-.492" fill="#1e394c"/>
        <path id="Path_594" data-name="Path 594" d="M62.291,37.764,57.763,55.048,45.438,46.823,39.862,51.25,55.954,66.313,67.527,55.576Z" fill="#cee5ed"/>
        <path id="Path_595" data-name="Path 595" d="M45.419,46.827,41.833,39.75a1.482,1.482,0,0,0-2.07-.594,5.385,5.385,0,0,0-2.531,5.754c.486,2.261,1.308,4.934,2.629,6.34Z" fill="#f2bf75"/>
        <path id="Path_596" data-name="Path 596" d="M40.986,33.165l-3.932-.32c-.571-.047-.936.32-.811.815l2.789,11.05a1.479,1.479,0,0,0,1.265.984l3.932.32c.917.075,1.446,1.7.811-.815l-2.789-11.05a1.479,1.479,0,0,0-1.265-.984" fill="#1e394c"/>
        <path id="Path_597" data-name="Path 597" d="M45.435,46.856l.824-2.625a1.494,1.494,0,0,0-.473-1.918l-1.366-.949a.975.975,0,0,0-1.153,1.572l.629.487.642.485-1.523,2.3Z" fill="#f2bf75"/>
        <path id="Path_598" data-name="Path 598" d="M97.39,145.7c0-3.862-4.486-68.147-4.486-68.147s-9.06-8.819-13.989-7.885c-4.93-.934-16.14,5.6-16.14,5.6s.234,66.566.234,70.428H73.687s.074-30.649,4.236-52.783a.972.972,0,0,1,1.886-.1c4.162,22.135,6.9,52.881,6.9,52.881Z" fill="#1e394c"/>
        <path id="Path_599" data-name="Path 599" d="M79.118,27.321s12.605,3.084,14.348,5.1,8.3,14.549,8.18,18.773c-.137,4.946-8.614,15.5-8.447,14.885v14.9S73.888,87,62.222,79.629c0,0-1.338-38.256.269-42.519.492-1.31,6.838-6.839,8.715-7.509s7.912-2.28,7.912-2.28" fill="#cee5ed"/>
        <path id="Path_600" data-name="Path 600" d="M101.646,51.19c-.122,4.409-6.879,13.284-8.22,14.712l-.007.008c-.146.108-.221.165-.221.165L88.941,69.9,83.812,65.27s9.454-6.738,8.146-15.387c-.922-6.087-7.242-17-7.242-17a23.433,23.433,0,0,1-5.945-5.471c.222-.061.347-.093.347-.093S91.725,30.4,93.466,32.415s8.3,14.551,8.18,18.775" fill="#cee5ed"/>
        <path id="Path_603" data-name="Path 603" d="M79.789,20.314v8.951s-2.917,8.951-9.655,1.911l-.6-7.141Z" fill="#ea9249"/>
        <path id="Path_604" data-name="Path 604" d="M62.289,13.308s-11.4-2.414-4.358-12.136c0,0,1.207,5.163,7.375.738,3.144-2.256,7.807-2.82,13.008,0,5.565,3.017,7.509,12.27,2.749,17.1l-9.32-1.877Z" fill="#1e394c"/>
        <path id="Path_605" data-name="Path 605" d="M62.289,13.308S60.948,28.8,71.206,27.791c8.013-.786,7.711-6.839,7.711-6.839s2.615-.537,2.749-2.884-.6-4.291-2.95-2.749c0,0-4.157-2.681-4.425-4.559a26.063,26.063,0,0,1-12,2.548" fill="#f2bf75"/>
        <path id="Path_606" data-name="Path 606" d="M75.811,79.863a1.644,1.644,0,0,0,.421,2.27l1.739,1.408a1.643,1.643,0,0,0,2.307-.059l5.461-6.8-5.223-4.017-5.679,4.011a.7.7,0,0,0,.017,1.151,1.322,1.322,0,0,0,.941.194,2.324,2.324,0,0,0,1.507-.77Z" fill="#f6ba8e"/>
        <path id="Path_607" data-name="Path 607" d="M79.529,72.732l6.1,4.908s16.565-18.326,16.633-25.331c.038-3.94-4.747-13.427-7.745-18.545H83.78s7.658,11.528,9.97,17.058a3.352,3.352,0,0,1-.335,3.189c-2.8,4.077-11.058,16-13.886,18.721" fill="#cee5ed"/>
        <path id="Path_608" data-name="Path 608" d="M94.515,33.764s6.118,15.17,6.089,18.213c-.059,6.031-13.295,20.377-16.709,24.269l1.732,1.394s16.565-18.326,16.633-25.331c.038-3.94-4.747-13.427-7.745-18.545" fill="#b4ccd3"/>
        <path id="Path_609" data-name="Path 609" d="M92.164,47.825l-.338.12-2.036-.787s-3.379-9.377-2.849-9.112,5.223,9.779,5.223,9.779" fill="#b4ccd3"/>
        <path id="Path_610" data-name="Path 610" d="M66.8,25.532a6.071,6.071,0,0,1-1.25-3.219,4.631,4.631,0,0,1-1.375-.156c-.156-.156.375-4.437.281-5.188-.066-.528-.344-2.593-.5-3.718a16.014,16.014,0,0,1-1.665.057S60.948,28.8,71.207,27.79c-2.5.04-3.315-1.1-4.409-2.258" fill="#ea9249"/>
        <path id="Path_611" data-name="Path 611" d="M45.711,18.635a8.713,8.713,0,1,0-7.264,10.154l1.788,2.058.368-2.676a8.716,8.716,0,0,0,5.108-9.536M32.69,20.987a1.073,1.073,0,1,1,1.073-1.073,1.073,1.073,0,0,1-1.073,1.073m4.324,0a1.073,1.073,0,1,1,1.073-1.073,1.072,1.072,0,0,1-1.073,1.073m4.27,0a1.073,1.073,0,1,1,1.073-1.073,1.072,1.072,0,0,1-1.073,1.073" fill="#ee8436"/>
        <path id="Path_612" data-name="Path 612" d="M147.844,113.064c3.153-3.341,3.933-7.725,1.742-9.793s-6.523-1.036-9.676,2.3-5.4,9.278-3.208,11.346,7.989-.517,11.142-3.857" fill="#ee8436"/>
        <g id="Group_183" data-name="Group 183" opacity="0.26">
          <g id="Group_182" data-name="Group 182">
            <g id="Group_181" data-name="Group 181" clip-path="url(#clip-path-7)">
              <path id="Path_613" data-name="Path 613" d="M149.586,103.271a4.047,4.047,0,0,0-2.559-1.052,3.753,3.753,0,0,1,.306.247c2.191,2.068,1.411,6.453-1.742,9.793-2.372,2.514-6.24,4.6-8.944,4.595.02.021.034.047.055.067,2.191,2.068,7.989-.516,11.142-3.857s3.933-7.725,1.742-9.793" fill="#0f2a3f"/>
            </g>
          </g>
        </g>
        <path id="Path_614" data-name="Path 614" d="M131.815,100.2c.422-4.506-1.49-8.37-4.271-8.63s-5.375,3.182-5.8,7.688,1.294,10.465,4.075,10.725,5.571-5.277,5.993-9.783" fill="#ee8436"/>
        <g id="Group_186" data-name="Group 186" opacity="0.25">
          <g id="Group_185" data-name="Group 185">
            <g id="Group_184" data-name="Group 184" clip-path="url(#clip-path-8)">
              <path id="Path_615" data-name="Path 615" d="M127.544,91.573a3.311,3.311,0,0,0-1.524.225c2.281.913,3.75,4.4,3.375,8.405-.349,3.732-2.324,8.159-4.571,9.428a2.247,2.247,0,0,0,1,.355c2.781.26,5.572-5.276,5.994-9.783s-1.491-8.37-4.271-8.63" fill="#34648c"/>
            </g>
          </g>
        </g>
        <path id="Path_616" data-name="Path 616" d="M118.281,96.741c-1.928-3.795-5.389-5.908-7.73-4.718s-2.677,5.23-.749,9.025,6.285,7.672,8.626,6.483,1.781-6.995-.147-10.79" fill="#ee8436"/>
        <g id="Group_189" data-name="Group 189" opacity="0.26">
          <g id="Group_188" data-name="Group 188">
            <g id="Group_187" data-name="Group 187" clip-path="url(#clip-path-9)">
              <path id="Path_617" data-name="Path 617" d="M118.281,96.741c-1.928-3.795-5.389-5.908-7.73-4.718a3.65,3.65,0,0,0-1.79,2.447,3.007,3.007,0,0,1,.717-.516c2.341-1.19,5.8.923,7.73,4.718,1.354,2.665,2.028,6.313,1.5,8.666,2-1.51,1.414-6.967-.43-10.6" fill="#0f2a3f"/>
            </g>
          </g>
        </g>
        <path id="Path_618" data-name="Path 618" d="M114.557,112.6c-3.716-1.664-7.51-1.27-8.473.88s1.269,5.243,4.985,6.908,9.237,2.044,10.2-.107-3-6.017-6.712-7.681" fill="#ee8436"/>
        <g id="Group_192" data-name="Group 192" opacity="0.25">
          <g id="Group_191" data-name="Group 191">
            <g id="Group_190" data-name="Group 190" clip-path="url(#clip-path-10)">
              <path id="Path_619" data-name="Path 619" d="M114.557,112.6c-3.716-1.664-7.51-1.27-8.473.88a2.759,2.759,0,0,0-.167,1.632c1.026-2.073,4.761-2.437,8.425-.795,2.991,1.339,6.134,4.1,6.747,6.253a1.661,1.661,0,0,0,.18-.289c.963-2.151-3-6.017-6.712-7.681" fill="#34648c"/>
            </g>
          </g>
        </g>
        <path id="Path_620" data-name="Path 620" d="M148.863,125.719c3.71-1.321,6.015-4.365,5.148-6.8s-4.576-3.334-8.287-2.013-7.739,4.979-6.872,7.413,6.3,2.721,10.011,1.4" fill="#ee8436"/>
        <g id="Group_195" data-name="Group 195" opacity="0.26">
          <g id="Group_194" data-name="Group 194">
            <g id="Group_193" data-name="Group 193" clip-path="url(#clip-path-11)">
              <path id="Path_621" data-name="Path 621" d="M154.011,118.921a3.823,3.823,0,0,0-2.462-2.228,3.278,3.278,0,0,1,.96,1.37c.867,2.433-1.438,5.477-5.148,6.8a13.262,13.262,0,0,1-7.945.3c1.7,1.635,6.222,1.7,9.447.555,3.71-1.322,6.015-4.366,5.148-6.8" fill="#0f2a3f"/>
            </g>
          </g>
        </g>
        <path id="Path_622" data-name="Path 622" d="M129.563,139.092a42.081,42.081,0,0,1,13.186-27.433c.3-.285-.154-.74-.455-.455a42.762,42.762,0,0,0-13.375,27.888c-.033.413.611.411.644,0" fill="#1e394c"/>
        <path id="Path_623" data-name="Path 623" d="M127.221,137.589a56.635,56.635,0,0,0-11.756-35.849c-.249-.324-.808,0-.556.325a56.085,56.085,0,0,1,11.668,35.524.322.322,0,0,0,.644,0" fill="#1e394c"/>
        <path id="Path_624" data-name="Path 624" d="M124.5,118.682c1.756-5.592,2.2-11.531,2.419-17.359.015-.414-.628-.414-.644,0-.213,5.775-.656,11.646-2.4,17.188-.124.4.5.566.621.171" fill="#1e394c"/>
        <path id="Path_625" data-name="Path 625" d="M114.5,117.605a57.6,57.6,0,0,0,10.129,4.728c.388.147.555-.475.171-.621a56.722,56.722,0,0,1-9.975-4.663c-.352-.221-.675.336-.325.556" fill="#1e394c"/>
        <path id="Path_626" data-name="Path 626" d="M141.921,122.618a68.719,68.719,0,0,1-9.528,3.183.322.322,0,0,0,.171.621,68.807,68.807,0,0,0,9.528-3.183c.377-.157.211-.781-.171-.621" fill="#1e394c"/>
        <path id="Path_627" data-name="Path 627" d="M116.43,136.1l1.956,17.709a4.368,4.368,0,0,0,4.342,3.889h11.289a4.37,4.37,0,0,0,4.343-3.889l1.955-17.709a1.627,1.627,0,0,0-1.617-1.806H118.047a1.627,1.627,0,0,0-1.617,1.806" fill="#cee5ed"/>
        <path id="Path_628" data-name="Path 628" d="M138.7,134.294h-7.16a1.627,1.627,0,0,1,1.617,1.806L131.2,153.809a4.368,4.368,0,0,1-4.342,3.889h7.16a4.368,4.368,0,0,0,4.342-3.889l1.956-17.709a1.627,1.627,0,0,0-1.617-1.806" fill="#aac6ce"/>
      </g>
    </g>
  </g>
</svg>
