<svg xmlns="http://www.w3.org/2000/svg" width="19.955" height="17.908" viewBox="0 0 26.955 17.908">
  <g id="Icon_feather-users" data-name="Icon feather-users" transform="translate(4.705 -3.706)">
    <path id="Path_659" data-name="Path 659" d="M16.045,27.955V26.136A3.636,3.636,0,0,0,12.409,22.5H5.136A3.636,3.636,0,0,0,1.5,26.136v1.818" transform="translate(0 -7.091)" fill="none" stroke="#ee8436" stroke-linecap="round" stroke-linejoin="round" stroke-width="1.5"/>
    <path id="Path_660" data-name="Path 660" d="M14.773,8.136A3.636,3.636,0,1,1,11.136,4.5a3.636,3.636,0,0,1,3.636,3.636Z" transform="translate(-2.364)" fill="none" stroke="#ee8436" stroke-linecap="round" stroke-linejoin="round" stroke-width="1.5"/>
    <path id="Path_661" data-name="Path 661" d="M32.727,28.031V26.213A3.636,3.636,0,0,0,30,22.7" transform="translate(-11.227 -7.168)" fill="none" stroke="#ee8436" stroke-linecap="round" stroke-linejoin="round" stroke-width="1.5"/>
    <path id="Path_664" data-name="Path 664" d="M30,28.031V26.213A3.636,3.636,0,0,1,32.727,22.7" transform="translate(-33.955 -7.168)" fill="none" stroke="#ee8436" stroke-linecap="round" stroke-linejoin="round" stroke-width="1.5"/>
    <path id="Path_662" data-name="Path 662" d="M24,4.7a3.636,3.636,0,0,1,0,7.045" transform="translate(-8.864 -0.077)" fill="none" stroke="#ee8436" stroke-linecap="round" stroke-linejoin="round" stroke-width="1.5"/>
    <path id="Path_663" data-name="Path 663" d="M26.734,4.7a3.636,3.636,0,0,0,0,7.045" transform="translate(-24.325 -0.077)" fill="none" stroke="#ee8436" stroke-linecap="round" stroke-linejoin="round" stroke-width="1.5"/>
  </g>
</svg>
