<svg xmlns="http://www.w3.org/2000/svg" width="12.184" height="12.76" viewBox="0 0 14.184 15.76">
  <path id="Icon_material-date-range" data-name="Icon material-date-range" d="M9.228,10.092H7.652v1.576H9.228Zm3.152,0H10.8v1.576H12.38Zm3.152,0H13.956v1.576h1.576Zm1.576-5.516H16.32V3H14.744V4.576H8.44V3H6.864V4.576H6.076A1.569,1.569,0,0,0,4.508,6.152L4.5,17.184A1.576,1.576,0,0,0,6.076,18.76H17.108a1.581,1.581,0,0,0,1.576-1.576V6.152A1.581,1.581,0,0,0,17.108,4.576Zm0,12.608H6.076V8.516H17.108Z" transform="translate(-4.5 -3)" fill="#ee8436"/>
</svg>
