<svg xmlns="http://www.w3.org/2000/svg" width="16.627" height="16.308" viewBox="0 0 16.627 18.308">
  <g id="Icon_feather-share-2" data-name="Icon feather-share-2" transform="translate(-3.75 -2.25)">
    <path id="Path_813" data-name="Path 813" d="M27.542,5.521A2.521,2.521,0,1,1,25.021,3a2.521,2.521,0,0,1,2.521,2.521Z" transform="translate(-7.915 0)" fill="none" stroke="#000" stroke-linecap="round" stroke-linejoin="round" stroke-width="1.5"/>
    <path id="Path_814" data-name="Path 814" d="M9.542,16.021A2.521,2.521,0,1,1,7.021,13.5,2.521,2.521,0,0,1,9.542,16.021Z" transform="translate(0 -4.617)" fill="none" stroke="#000" stroke-linecap="round" stroke-linejoin="round" stroke-width="1.5"/>
    <path id="Path_815" data-name="Path 815" d="M27.542,26.521A2.521,2.521,0,1,1,25.021,24,2.521,2.521,0,0,1,27.542,26.521Z" transform="translate(-7.915 -9.234)" fill="none" stroke="#000" stroke-linecap="round" stroke-linejoin="round" stroke-width="1.5"/>
    <path id="Path_816" data-name="Path 816" d="M12.885,20.265l5.74,3.345" transform="translate(-3.687 -7.592)" fill="none" stroke="#000" stroke-linecap="round" stroke-linejoin="round" stroke-width="1.5"/>
    <path id="Path_817" data-name="Path 817" d="M18.617,9.765,12.885,13.11" transform="translate(-3.687 -2.975)" fill="none" stroke="#000" stroke-linecap="round" stroke-linejoin="round" stroke-width="1.5"/>
  </g>
</svg>
