<svg xmlns="http://www.w3.org/2000/svg" width="14.019" height="14.019" viewBox="0 0 14.019 14.019">
  <g id="Logout" transform="translate(-2 -2)">
    <path id="Path_798" data-name="Path 798" d="M16.907,2H12.7a.7.7,0,1,0,0,1.4h4.206a.7.7,0,0,1,.7.7v9.813a.7.7,0,0,1-.7.7H12.7a.7.7,0,1,0,0,1.4h4.206a2.1,2.1,0,0,0,2.1-2.1V4.1A2.1,2.1,0,0,0,16.907,2Z" transform="translate(-2.99)" fill="#fff"/>
    <path id="Path_799" data-name="Path 799" d="M6,12.813a.7.7,0,1,1-.991.991L2.205,11a.7.7,0,0,1,0-.991l2.8-2.8A.7.7,0,1,1,6,8.2L4.393,9.8h8.121a.7.7,0,0,1,0,1.4H4.393Z" transform="translate(0 -1.495)" fill="#fff"/>
  </g>
</svg>
