<svg xmlns="http://www.w3.org/2000/svg" width="17.56" height="17.363" viewBox="0 0 22.56 21.363">
  <g id="Group_76" data-name="Group 76" transform="translate(0 -13.586)">
    <g id="Group_69" data-name="Group 69" transform="translate(15.156 14.766)">
      <g id="Group_68" data-name="Group 68" transform="translate(0 0)">
        <path id="Path_419" data-name="Path 419" d="M348.842,40.482a.405.405,0,0,0-.573,0l-4.2,4.2a.405.405,0,0,0,.573.573l4.2-4.2A.405.405,0,0,0,348.842,40.482Z" transform="translate(-343.95 -40.364)"/>
      </g>
    </g>
    <g id="Group_71" data-name="Group 71" transform="translate(16.298 15.89)">
      <g id="Group_70" data-name="Group 70" transform="translate(0 0)">
        <path id="Path_420" data-name="Path 420" d="M374.768,66a.405.405,0,0,0-.573,0L370,70.2a.405.405,0,0,0,.573.573l4.2-4.2A.405.405,0,0,0,374.768,66Z" transform="translate(-369.876 -65.879)"/>
      </g>
    </g>
    <g id="Group_73" data-name="Group 73" transform="translate(1.197 17.196)">
      <g id="Group_72" data-name="Group 72" transform="translate(0 0)">
        <path id="Path_421" data-name="Path 421" d="M43.183,101.421,48.4,96.206a.405.405,0,1,0-.573-.573l-5.214,5.214a2.151,2.151,0,0,1-2.444.42.405.405,0,0,0-.478.1l-1.772,2,0,0,0,0-7.658,8.627-.006.007c-.025.03-.049.056-.073.08a1.3,1.3,0,1,1-1.833-1.834c.024-.024.05-.047.079-.073l.007-.006,4.787-4.249a.405.405,0,0,0-.538-.606l-4.784,4.246c-.046.039-.087.077-.125.115a2.107,2.107,0,0,0,2.979,2.98c.039-.039.077-.08.115-.125l5.835-6.575,5.835,6.575c.039.045.076.086.115.125a2.107,2.107,0,0,0,2.98-2.979c-.039-.039-.08-.077-.125-.115l-6.715-5.96,1.314-1.48A2.964,2.964,0,0,0,43.183,101.421Zm1.787,8.745.007.006c.03.025.056.049.08.073a1.3,1.3,0,1,1-1.834,1.833c-.024-.024-.048-.05-.073-.08l-.006-.007-5.9-6.65,1.011-1.139Z" transform="translate(-27.152 -95.515)"/>
      </g>
    </g>
    <g id="Group_75" data-name="Group 75" transform="translate(0 13.586)">
      <g id="Group_74" data-name="Group 74" transform="translate(0 0)">
        <path id="Path_422" data-name="Path 422" d="M18.832,13.7a.405.405,0,0,0-.573,0l-5.214,5.214a2.964,2.964,0,0,0-.7,3.08l-1.6,1.424L9.2,22.055a4.075,4.075,0,0,0-.759-4.74,9.223,9.223,0,0,0-4.1-2.49A3.54,3.54,0,0,0,.85,15.51,3.54,3.54,0,0,0,.165,19a9.223,9.223,0,0,0,2.49,4.1,4.074,4.074,0,0,0,4.74.759l1.527,1.721a.405.405,0,0,0,.572.034l3.607-3.2a.405.405,0,0,0,.1-.478,2.151,2.151,0,0,1,.42-2.444l5.214-5.214A.405.405,0,0,0,18.832,13.7ZM9.259,24.741,7.784,23.079A.405.405,0,0,0,7.269,23a3.268,3.268,0,0,1-4.041-.474A8.411,8.411,0,0,1,.951,18.806a2.776,2.776,0,0,1,.472-2.723,2.775,2.775,0,0,1,2.723-.472A8.41,8.41,0,0,1,7.87,17.888a3.268,3.268,0,0,1,.474,4.041.405.405,0,0,0,.076.516l1.714,1.521Z" transform="translate(0 -13.586)"/>
      </g>
    </g>
  </g>
</svg>
