<svg xmlns="http://www.w3.org/2000/svg" width="14.97" height="11.939" viewBox="0 0 17.97 11.939">
  <g id="Icon_feather-users" data-name="Icon feather-users" transform="translate(0.5 0.53)">
    <path id="Path_659" data-name="Path 659" d="M11.2,26.136V24.924A2.424,2.424,0,0,0,8.773,22.5H3.924A2.424,2.424,0,0,0,1.5,24.924v1.212" transform="translate(2.136 -15.227)" fill="none" stroke="#ee8436" stroke-linecap="round" stroke-linejoin="round" stroke-width="1"/>
    <path id="Path_660" data-name="Path 660" d="M12.348,6.924A2.424,2.424,0,1,1,9.924,4.5a2.424,2.424,0,0,1,2.424,2.424Z" transform="translate(-1.439 -4.5)" fill="none" stroke="#ee8436" stroke-linecap="round" stroke-linejoin="round" stroke-width="1"/>
    <path id="Path_661" data-name="Path 661" d="M31.818,26.253V25.04A2.424,2.424,0,0,0,30,22.7" transform="translate(-14.848 -15.343)" fill="none" stroke="#ee8436" stroke-linecap="round" stroke-linejoin="round" stroke-width="1"/>
    <path id="Path_664" data-name="Path 664" d="M30,26.253V25.04A2.424,2.424,0,0,1,31.818,22.7" transform="translate(-30 -15.343)" fill="none" stroke="#ee8436" stroke-linecap="round" stroke-linejoin="round" stroke-width="1"/>
    <path id="Path_662" data-name="Path 662" d="M24,4.7a2.424,2.424,0,0,1,0,4.7" transform="translate(-11.273 -4.616)" fill="none" stroke="#ee8436" stroke-linecap="round" stroke-linejoin="round" stroke-width="1"/>
    <path id="Path_663" data-name="Path 663" d="M25.823,4.7a2.424,2.424,0,0,0,0,4.7" transform="translate(-21.581 -4.616)" fill="none" stroke="#ee8436" stroke-linecap="round" stroke-linejoin="round" stroke-width="1"/>
  </g>
</svg>
