<svg xmlns="http://www.w3.org/2000/svg" width="11.826" height="13.976" viewBox="0 0 11.826 13.976">
  <path id="Icon_ionic-md-notifications-outline" data-name="Icon ionic-md-notifications-outline" d="M11.572,5.81a4.857,4.857,0,0,1,.8.15,3.424,3.424,0,0,1,2.61,3.355V13.6l.313.315.262.263H7.517l.262-.263.313-.315V9.315A3.424,3.424,0,0,1,10.7,5.96a5.948,5.948,0,0,1,.8-.15m.034-2.435a1.027,1.027,0,0,0-1.043,1.048v.489a4.529,4.529,0,0,0-3.478,4.4v3.843l-1.391,1.4v.7H17.451v-.7l-1.391-1.4V9.315a4.529,4.529,0,0,0-3.478-4.4V4.423a1.027,1.027,0,0,0-1.043-1.048Zm1.391,12.579H10.147a1.391,1.391,0,1,0,2.783,0Z" transform="translate(-5.625 -3.375)" fill="#ee8436"/>
</svg>
