<svg xmlns="http://www.w3.org/2000/svg" width="14.463" height="14.362" viewBox="0 0 12.463 16.362">
  <path id="Path_789" data-name="Path 789" d="M72.949,1.474A1.743,1.743,0,0,0,71.707.959h-.793V.8a.8.8,0,0,0-.8-.8H64.363a.8.8,0,0,0-.8.8v.16h-.8a1.759,1.759,0,0,0-1.756,1.756L61,14.6a1.757,1.757,0,0,0,1.756,1.76h8.938a1.759,1.759,0,0,0,1.756-1.756l.013-11.888a1.747,1.747,0,0,0-.514-1.244ZM64.523.959h5.433v.959H64.523ZM72.492,14.6a.8.8,0,0,1-.8.8H62.756a.8.8,0,0,1-.8-.8l.013-11.888a.8.8,0,0,1,.8-.8h.8v.16a.8.8,0,0,0,.8.8h5.752a.8.8,0,0,0,.8-.8v-.16h.793a.8.8,0,0,1,.8.8Z" transform="translate(-61)" fill="#fff"/>
</svg>
