<svg xmlns="http://www.w3.org/2000/svg" width="22.745" height="22.723" viewBox="0 0 22.745 22.723">
  <g id="sport" transform="translate(-4.505 -4.557)">
    <path id="Path_423" data-name="Path 423" d="M82.306,8.95a2.3,2.3,0,1,0-1.161-3.033A2.3,2.3,0,0,0,82.306,8.95Zm-.55-2.76a1.627,1.627,0,1,1,.823,2.149,1.627,1.627,0,0,1-.823-2.149Z" transform="translate(-61.828)"/>
    <path id="Path_424" data-name="Path 424" d="M55.025,32.244H51.592l-1.162-2.6a.271.271,0,0,0-.015-.029,1.547,1.547,0,0,0-1.376-.891H44.82a.209.209,0,0,0-.031,0,1.556,1.556,0,0,0-1.383.919L41.593,33.7a1.553,1.553,0,1,0,2.837,1.266l1.4-3.141h.785L40.9,44.639a1.555,1.555,0,0,0,.786,2.051,1.539,1.539,0,0,0,.631.134,1.556,1.556,0,0,0,1.421-.92l3.236-7.25.942.421-1.55,3.473A1.553,1.553,0,0,0,49.2,43.814l2.183-4.892a1.553,1.553,0,0,0-.785-2.052l-2.36-1.053.773-1.732.154.346a1.556,1.556,0,0,0,1.426.92h4.433a1.553,1.553,0,0,0,0-3.107Zm0,2.438h-4.44a.884.884,0,0,1-.808-.524l-.46-1.03a.335.335,0,0,0-.612,0L47.491,35.85a.334.334,0,0,0,.169.442l2.666,1.19a.884.884,0,0,1,.447,1.168l-2.184,4.892a.884.884,0,1,1-1.615-.721l1.687-3.778a.334.334,0,0,0-.169-.442l-1.553-.693a.334.334,0,0,0-.442.169l-3.372,7.557a.884.884,0,0,1-1.615-.721l5.929-13.284a.335.335,0,0,0-.306-.471H45.616a.334.334,0,0,0-.306.2l-1.491,3.339a.884.884,0,0,1-1.615-.721l1.812-4.061a.886.886,0,0,1,.8-.523h4.19a.879.879,0,0,1,.806.524c0,.009.008.017.013.026l1.239,2.776a.334.334,0,0,0,.306.2h3.651a.884.884,0,0,1,0,1.769Z" transform="translate(-29.328 -19.544)"/>
    <path id="Path_425" data-name="Path 425" d="M11.514,62.585a.335.335,0,0,0-.335-.335H4.84a.335.335,0,1,0,0,.669h6.34a.335.335,0,0,0,.335-.335Z" transform="translate(0 -46.665)"/>
    <path id="Path_426" data-name="Path 426" d="M12.239,52.361H17.3a.335.335,0,1,0,0-.669H12.239a.335.335,0,1,0,0,.669Z" transform="translate(-5.985 -38.125)"/>
    <path id="Path_427" data-name="Path 427" d="M27.144,73.143a.335.335,0,0,0-.335-.335H21.753a.335.335,0,1,0,0,.669h5.057a.335.335,0,0,0,.335-.335Z" transform="translate(-13.68 -55.205)"/>
  </g>
</svg>
