<svg xmlns="http://www.w3.org/2000/svg" width="15.806" height="15.679" viewBox="0 0 15.806 18.679">
  <path id="Icon_ionic-md-notifications-outline" data-name="Icon ionic-md-notifications-outline" d="M13.573,6.629a6.491,6.491,0,0,1,1.074.2,4.576,4.576,0,0,1,3.488,4.484v5.73l.419.42.35.351H8.153l.35-.351.419-.42v-5.73A4.576,4.576,0,0,1,12.409,6.83a7.949,7.949,0,0,1,1.074-.2m.045-3.254a1.373,1.373,0,0,0-1.395,1.4V5.43a6.054,6.054,0,0,0-4.649,5.884v5.137L5.625,18.319v.934H21.431v-.934l-1.859-1.868V11.314A6.054,6.054,0,0,0,14.922,5.43V4.776a1.373,1.373,0,0,0-1.395-1.4Zm1.859,16.811H11.668a1.859,1.859,0,1,0,3.719,0Z" transform="translate(-5.625 -3.375)" fill="#fff"/>
</svg>
