<svg xmlns="http://www.w3.org/2000/svg" width="11.282" height="12.536" viewBox="0 0 11.282 12.536">
  <path id="Icon_material-date-range" data-name="Icon material-date-range" d="M8.261,8.641H7.007V9.895H8.261Zm2.507,0H9.514V9.895h1.254Zm2.507,0H12.021V9.895h1.254Zm1.254-4.387H13.9V3H12.648V4.254H7.634V3H6.38V4.254H5.754A1.248,1.248,0,0,0,4.506,5.507L4.5,14.282a1.253,1.253,0,0,0,1.254,1.254h8.775a1.257,1.257,0,0,0,1.254-1.254V5.507A1.257,1.257,0,0,0,14.528,4.254Zm0,10.028H5.754V7.387h8.775Z" transform="translate(-4.5 -3)" fill="#ee8436"/>
</svg>
