<svg xmlns="http://www.w3.org/2000/svg" width="12.896" height="12.919" viewBox="0 0 12.896 12.919">
  <path id="Icon_feather-phone" data-name="Icon feather-phone" d="M14.562,11.548v1.719a1.146,1.146,0,0,1-1.249,1.146,11.338,11.338,0,0,1-4.944-1.759A11.172,11.172,0,0,1,4.931,9.216,11.338,11.338,0,0,1,3.172,4.249,1.146,1.146,0,0,1,4.313,3H6.031a1.146,1.146,0,0,1,1.146.985,7.356,7.356,0,0,0,.4,1.61A1.146,1.146,0,0,1,7.321,6.8l-.728.728a9.167,9.167,0,0,0,3.438,3.438l.728-.728a1.146,1.146,0,0,1,1.209-.258,7.356,7.356,0,0,0,1.61.4A1.146,1.146,0,0,1,14.562,11.548Z" transform="translate(-2.418 -2.25)" fill="rgba(0,0,0,0)" stroke="#ee8436" stroke-linecap="round" stroke-linejoin="round" stroke-width="1.5"/>
</svg>
