<svg xmlns="http://www.w3.org/2000/svg" width="41.792" height="41.752" viewBox="0 0 41.792 41.752">
  <g id="sport" transform="translate(-4.505 -4.557)">
    <path id="Path_423" data-name="Path 423" d="M83.445,12.629a4.219,4.219,0,1,0-2.133-5.572,4.219,4.219,0,0,0,2.133,5.572Zm-1.01-5.072a2.99,2.99,0,1,1,1.512,3.949,2.99,2.99,0,0,1-1.512-3.949Z" transform="translate(-49.592)"/>
    <path id="Path_424" data-name="Path 424" d="M66.967,35.2H60.659l-2.135-4.784a.5.5,0,0,0-.027-.053,2.843,2.843,0,0,0-2.529-1.636l-.052,0h-7.7a.384.384,0,0,0-.057,0,2.859,2.859,0,0,0-2.541,1.689l-3.332,7.462A2.854,2.854,0,1,0,47.5,40.2l2.578-5.772h1.442L41.011,57.97a2.858,2.858,0,0,0,1.444,3.769,2.828,2.828,0,0,0,1.159.246,2.859,2.859,0,0,0,2.61-1.69l5.947-13.321,1.73.773-2.848,6.381a2.854,2.854,0,0,0,5.213,2.326l4.011-8.988a2.854,2.854,0,0,0-1.443-3.77L54.5,41.761l1.421-3.183.284.635A2.859,2.859,0,0,0,58.823,40.9h8.145a2.854,2.854,0,0,0,0-5.708Zm0,4.479H58.809a1.625,1.625,0,0,1-1.485-.962l-.845-1.893a.615.615,0,0,0-1.124,0l-2.231,5a.614.614,0,0,0,.311.812l4.9,2.186a1.624,1.624,0,0,1,.822,2.146l-4.013,8.988a1.625,1.625,0,1,1-2.968-1.325l3.1-6.943a.614.614,0,0,0-.311-.812L52.109,45.6a.614.614,0,0,0-.811.311L45.1,59.8a1.625,1.625,0,1,1-2.968-1.324L53.028,34.064a.615.615,0,0,0-.562-.865H49.678a.614.614,0,0,0-.562.364L46.377,39.7a1.625,1.625,0,1,1-2.968-1.324l3.33-7.462a1.628,1.628,0,0,1,1.479-.961.335.335,0,0,0,.046,0h7.608l.046,0a1.616,1.616,0,0,1,1.48.962c.007.016.015.032.024.047l2.277,5.1a.614.614,0,0,0,.562.364h6.708a1.625,1.625,0,0,1,0,3.25Z" transform="translate(-23.524 -15.676)"/>
    <path id="Path_425" data-name="Path 425" d="M17.384,62.865a.615.615,0,0,0-.615-.615H5.12a.615.615,0,0,0,0,1.229H16.77a.615.615,0,0,0,.615-.615Z" transform="translate(0 -37.43)"/>
    <path id="Path_426" data-name="Path 426" d="M12.519,52.921H21.81a.615.615,0,1,0,0-1.229H12.519a.615.615,0,1,0,0,1.229Z" transform="translate(-4.8 -30.58)"/>
    <path id="Path_427" data-name="Path 427" d="M31.939,73.423a.615.615,0,0,0-.615-.615H22.033a.615.615,0,1,0,0,1.229h9.292a.615.615,0,0,0,.615-.615Z" transform="translate(-10.973 -44.28)"/>
  </g>
</svg>
