<svg xmlns="http://www.w3.org/2000/svg" width="13.097" height="12.501" viewBox="0 0 13.097 12.501">
  <g id="Group_296" data-name="Group 296" transform="translate(-1093 -1253)">
    <path id="Path_666" data-name="Path 666" d="M13.1,6.251,11.644,4.59l.2-2.2L9.7,1.9,8.572,0,6.548.869,4.524,0,3.4,1.9,1.25,2.381l.2,2.2L0,6.251,1.453,7.912l-.2,2.2L3.4,10.6l1.125,1.9,2.024-.875,2.024.869L9.7,10.6l2.149-.488-.2-2.2Z" transform="translate(1093 1253)" fill="#1565c0"/>
    <path id="Path_667" data-name="Path 667" d="M5.411,9.061,3.149,6.792l.881-.881L5.411,7.3,8.894,3.8l.881.881Z" transform="translate(1093 1253)" fill="#fff"/>
  </g>
</svg>
