<svg xmlns="http://www.w3.org/2000/svg" xmlns:xlink="http://www.w3.org/1999/xlink" width="173.527" height="176.667" viewBox="0 0 213.527 176.667">
  <defs>
    <clipPath id="clip-path">
      <rect id="Rectangle_64" data-name="Rectangle 64" width="209.054" height="176.667" transform="translate(-20 16.144)" fill="none"/>
    </clipPath>
    <clipPath id="clip-path-2">
      <path id="Path_447" data-name="Path 447" d="M36.428,185.249h98.828c22.027-15.185,36.428-40.225,36.428-68.568,0-46.325-38.433-90.536-85.842-90.536S0,70.355,0,116.68c0,28.343,14.4,53.384,36.428,68.568" transform="translate(0 -26.144)" fill="none"/>
    </clipPath>
    <clipPath id="clip-path-3">
      <rect id="Rectangle_328" data-name="Rectangle 328" width="27.092" height="27.095" fill="none"/>
    </clipPath>
    <clipPath id="clip-path-4">
      <rect id="Rectangle_330" data-name="Rectangle 330" width="24.61" height="17.529" fill="none"/>
    </clipPath>
    <clipPath id="clip-path-5">
      <rect id="Rectangle_331" data-name="Rectangle 331" width="24.354" height="15.615" fill="none"/>
    </clipPath>
  </defs>
  <g id="Group_166" data-name="Group 166" transform="translate(-210.527 -380.203)">
    <g id="Group_95" data-name="Group 95" transform="translate(235 364.059)" opacity="0.42">
      <g id="Group_94" data-name="Group 94">
        <g id="Group_93" data-name="Group 93" clip-path="url(#clip-path)">
          <g id="Group_92" data-name="Group 92" transform="translate(-4.473 -4.146)">
            <g id="Group_91" data-name="Group 91" transform="translate(3.158 29.071)" clip-path="url(#clip-path-2)">
              <rect id="Rectangle_63" data-name="Rectangle 63" width="171.684" height="159.105" fill="#ededed"/>
            </g>
          </g>
        </g>
      </g>
    </g>
    <g id="Group_865" data-name="Group 865" transform="translate(210.527 445.214)">
      <g id="Group_877" data-name="Group 877">
        <g id="Group_874" data-name="Group 874">
          <g id="Group_878" data-name="Group 878">
            <path id="Path_976" data-name="Path 976" d="M196.977,90.588a2.235,2.235,0,0,1-2.348,2.1H48.345A2.235,2.235,0,0,1,46,90.588V2.1A2.235,2.235,0,0,1,48.345,0H194.628a2.235,2.235,0,0,1,2.348,2.1Z" transform="translate(-12.028)" fill="#ee8436"/>
            <path id="Path_977" data-name="Path 977" d="M191.083,87.706a0,0,0,0,1-.005,0H58.358l0,0V10.431H191.083Z" transform="translate(-15.259 -2.728)" fill="#cee5ed"/>
            <path id="Path_978" data-name="Path 978" d="M194.724,133.489H43.256a6.807,6.807,0,0,1-6.808-6.808,1.209,1.209,0,0,1,1.209-1.209H200.322a1.209,1.209,0,0,1,1.209,1.209,6.807,6.807,0,0,1-6.807,6.808" transform="translate(-9.531 -32.811)" fill="#1e394c"/>
            <path id="Path_979" data-name="Path 979" d="M155.223,125.505v0a4.139,4.139,0,0,1-4.139,4.139h-13.41a4.143,4.143,0,0,1-4.143-4.143" transform="translate(-34.918 -32.819)" fill="#fff"/>
            <rect id="Rectangle_335" data-name="Rectangle 335" width="78.774" height="5.415" transform="translate(80.919 38.031)" fill="#f1f1f1"/>
            <rect id="Rectangle_336" data-name="Rectangle 336" width="78.774" height="3.323" transform="translate(80.919 49.477)" fill="#f1f1f1"/>
            <rect id="Rectangle_337" data-name="Rectangle 337" width="99.698" height="5.415" transform="translate(59.995 61.909)" fill="#f1f1f1"/>
            <rect id="Rectangle_338" data-name="Rectangle 338" width="99.698" height="3.323" transform="translate(59.995 73.356)" fill="#f1f1f1"/>
            <rect id="Rectangle_339" data-name="Rectangle 339" width="16.771" height="15.754" transform="translate(59.225 38.031)" fill="#f1f1f1"/>
            <path id="Path_980" data-name="Path 980" d="M10.447,36.087a10.073,10.073,0,1,1,0-20.146H132.155a10.073,10.073,0,1,1,0,20.146Z" transform="translate(-0.098 -4.169)" fill="#f7f7f7"/>
            <path id="Path_981" data-name="Path 981" d="M132.058,16.12a9.8,9.8,0,1,1,0,19.592H10.35a9.8,9.8,0,1,1,0-19.592Zm0-.554H10.35a10.35,10.35,0,1,0,0,20.7H132.058a10.35,10.35,0,1,0,0-20.7" transform="translate(0 -4.07)" fill="#ee8436"/>
            <path id="Path_982" data-name="Path 982" d="M25.685,35.908H10.546a9.8,9.8,0,1,1,0-19.592H25.685Z" transform="translate(-0.196 -4.267)" fill="#ee8436"/>
            <path id="Path_983" data-name="Path 983" d="M11.234,30a3.682,3.682,0,1,1,5.1-1.038A3.685,3.685,0,0,1,11.234,30m3.589-5.422a2.821,2.821,0,1,0,.795,3.909,2.823,2.823,0,0,0-.795-3.909" transform="translate(-2.507 -6.079)" fill="#fff"/>
            <rect id="Rectangle_340" data-name="Rectangle 340" width="0.993" height="6.264" transform="translate(13.196 23.058) rotate(-56.428)" fill="#fff"/>
            <g id="Group_879" data-name="Group 879" transform="matrix(0.921, -0.391, 0.391, 0.921, 109.498, 24.692)" opacity="0.15">
              <g id="Group_841" data-name="Group 841" transform="translate(0 0)">
                <g id="Group_840" data-name="Group 840" clip-path="url(#clip-path-3)">
                  <path id="Path_956" data-name="Path 956" d="M20.412,25.224a13.549,13.549,0,0,1-16.53-2.182,13.184,13.184,0,0,1-1.651-2.049c-.126-.189-.244-.381-.361-.578-.221-.377-.421-.758-.6-1.148A13.394,13.394,0,0,1,0,13.433a13.549,13.549,0,0,1,24.609-7.7c.214.3.419.623.611.949.145.244.282.5.408.746a13.323,13.323,0,0,1,.956,2.446,13.552,13.552,0,0,1-6.173,15.351" transform="translate(0 0)" fill="#fff"/>
                </g>
              </g>
            </g>
            <path id="Path_984" data-name="Path 984" d="M30.955,8.2a16.624,16.624,0,1,0-7.563,23.615,17.076,17.076,0,0,0,1.66-.857A16.618,16.618,0,0,0,30.955,8.2M4.141,23.966a14.483,14.483,0,1,1,19.827,5.143A14.481,14.481,0,0,1,4.141,23.966" transform="matrix(0.921, -0.391, 0.391, 0.921, 105.459, 23.061)" fill="#1e394c"/>
            <rect id="Rectangle_341" data-name="Rectangle 341" width="3.441" height="22.008" transform="matrix(0.602, -0.799, 0.799, 0.602, 139.32, 42.973)" fill="#1e394c"/>
            <path id="Path_985" data-name="Path 985" d="M14.473,18.885l-3.064,1.8a.735.735,0,0,1-1.006-.261L.1,2.91A.735.735,0,0,1,.363,1.9L3.427.1A.735.735,0,0,1,4.433.362l10.3,17.517a.735.735,0,0,1-.261,1.006" transform="matrix(0.921, -0.391, 0.391, 0.921, 146.222, 47.32)" fill="#1e394c"/>
            <g id="Group_880" data-name="Group 880" transform="matrix(0.921, -0.391, 0.391, 0.921, 110.177, 26.291)" opacity="0.3" style="mix-blend-mode: screen;isolation: isolate">
              <g id="Group_844" data-name="Group 844">
                <g id="Group_843" data-name="Group 843" clip-path="url(#clip-path-4)">
                  <path id="Path_959" data-name="Path 959" d="M24.61,3.995,1.268,17.529A13.388,13.388,0,0,1,0,11.7L20.173,0A13.417,13.417,0,0,1,24.61,3.995" transform="translate(0 0)" fill="#fff"/>
                </g>
              </g>
            </g>
            <g id="Group_881" data-name="Group 881" transform="matrix(0.921, -0.391, 0.391, 0.921, 114.455, 30.655)" opacity="0.3" style="mix-blend-mode: screen;isolation: isolate">
              <g id="Group_847" data-name="Group 847">
                <g id="Group_846" data-name="Group 846" clip-path="url(#clip-path-5)">
                  <path id="Path_960" data-name="Path 960" d="M24.354,2.446,1.651,15.615A13.257,13.257,0,0,1,0,13.566L23.4,0a13.311,13.311,0,0,1,.956,2.446" transform="translate(0 0)" fill="#fff"/>
                </g>
              </g>
            </g>
          </g>
        </g>
      </g>
    </g>
  </g>
</svg>
