<svg xmlns="http://www.w3.org/2000/svg" xmlns:xlink="http://www.w3.org/1999/xlink" width="152.021" height="163.47" viewBox="0 0 182.021 163.47">
  <defs>
    <clipPath id="clip-path">
      <rect id="Rectangle_99" data-name="Rectangle 99" width="140.382" height="7.024" transform="translate(12.469 154.405)" fill="none"/>
    </clipPath>
    <clipPath id="clip-path-2">
      <path id="Path_534" data-name="Path 534" d="M520.624,177.737h99.359c22.146-15.266,36.624-40.441,36.624-68.935,0-46.574-38.639-91.023-86.3-91.023S484,62.228,484,108.8c0,28.494,14.479,53.669,36.624,68.935" transform="translate(-484 -17.779)" fill="none"/>
    </clipPath>
    <clipPath id="clip-path-3">
      <rect id="Rectangle_301" data-name="Rectangle 301" width="10.584" height="13.817" fill="none"/>
    </clipPath>
    <clipPath id="clip-path-4">
      <rect id="Rectangle_313" data-name="Rectangle 313" width="101.428" height="16.653" fill="#cee5ed"/>
    </clipPath>
    <clipPath id="clip-path-5">
      <rect id="Rectangle_315" data-name="Rectangle 315" width="30.992" height="1.326" fill="none"/>
    </clipPath>
    <clipPath id="clip-path-6">
      <rect id="Rectangle_317" data-name="Rectangle 317" width="14.741" height="1.326" fill="none"/>
    </clipPath>
    <clipPath id="clip-path-7">
      <rect id="Rectangle_328" data-name="Rectangle 328" width="24.908" height="24.91" fill="none"/>
    </clipPath>
    <clipPath id="clip-path-8">
      <rect id="Rectangle_330" data-name="Rectangle 330" width="22.626" height="16.116" fill="none"/>
    </clipPath>
    <clipPath id="clip-path-9">
      <rect id="Rectangle_331" data-name="Rectangle 331" width="22.39" height="14.355" fill="none"/>
    </clipPath>
    <clipPath id="clip-path-10">
      <rect id="Rectangle_332" data-name="Rectangle 332" width="8.447" height="27.762" fill="none"/>
    </clipPath>
    <clipPath id="clip-path-11">
      <rect id="Rectangle_333" data-name="Rectangle 333" width="10.277" height="9.688" fill="none"/>
    </clipPath>
    <clipPath id="clip-path-12">
      <rect id="Rectangle_334" data-name="Rectangle 334" width="19.571" height="28.689" fill="none"/>
    </clipPath>
  </defs>
  <g id="Group_828" data-name="Group 828" transform="translate(-7.2 70.432)">
    <g id="Group_862" data-name="Group 862" transform="translate(7.2 -70.432)">
      <g id="Group_859" data-name="Group 859" transform="translate(0 0)">
        <g id="Group_863" data-name="Group 863" transform="translate(0 0)">
          <g id="Group_905" data-name="Group 905" transform="translate(11.166 2.041)" opacity="0.43">
            <g id="Group_174" data-name="Group 174">
              <g id="Group_173" data-name="Group 173" clip-path="url(#clip-path)">
                <path id="Path_589" data-name="Path 589" d="M152.851,157.917c0-1.94-31.426-3.512-70.191-3.512s-70.191,1.572-70.191,3.512,31.425,3.512,70.191,3.512,70.191-1.573,70.191-3.512" fill="#cee5ed"/>
              </g>
            </g>
          </g>
          <g id="Group_861" data-name="Group 861" transform="translate(7.322)">
            <g id="Group_143" data-name="Group 143" transform="translate(0)" clip-path="url(#clip-path-2)">
              <rect id="Rectangle_84" data-name="Rectangle 84" width="172.606" height="159.958" transform="translate(0 0)" fill="#ededed"/>
            </g>
          </g>
          <path id="Path_915" data-name="Path 915" d="M60.36,219.88l-1.377-.181,1.27.767a14.435,14.435,0,0,1-3.051,6.21l-.009.008c-.511.56-2.458-.742-2.821-1.072a11.325,11.325,0,0,1-2.7-4.907c-.759-2.144-1.476-4.3-2.383-6.391-.726-1.666-1.534-3.3-2.326-4.932l.684-2.029-1.715-.173c-.165-.363-.322-.726-.478-1.089-.7-1.633-1.369-3.274-1.988-4.94.305.107,8.313,3.117,13.162,8.132l-.635,1.023,1.847.363a12.673,12.673,0,0,1,1.534,2.433,11.347,11.347,0,0,1,.99,6.779" transform="translate(-28.777 -91.167)" fill="#ee8436"/>
          <path id="Path_916" data-name="Path 916" d="M102.968,235.994c-.165.2-.313.4-.47.61a54.728,54.728,0,0,1-4.9,5.954l-.874-.577s.3.585.478.981a58.444,58.444,0,0,1-4.907,4.56,6.924,6.924,0,0,1-1.609,1.048l-.717-.767s.017.552.017.99a2.378,2.378,0,0,1-.8.025c-.363-.05-1.666-.305-1.847-.66l-.009-.008a6.981,6.981,0,0,1,1.592-7.414,7.07,7.07,0,0,1,1.146-.957l.561.726.94-1.583a22.948,22.948,0,0,1,2.722-1.039,43.76,43.76,0,0,1,6.16-1.493c.833-.149,1.674-.272,2.515-.4" transform="translate(-54.61 -111.9)" fill="#ee8436"/>
          <path id="Path_917" data-name="Path 917" d="M45.414,261.711l-.008.008c-2.268.973-4.924.107-7.324-1.327.313-.652.948-1.938,1.006-2.021s-1.171.9-1.88,1.468a34.277,34.277,0,0,1-6.169-5.468s9.08-.577,12.453,1.171a4.554,4.554,0,0,1,.866.586l-.3.693.759-.2c1.6,2.037.594,5.088.594,5.088" transform="translate(-21.385 -122.781)" fill="#ee8436"/>
          <path id="Path_918" data-name="Path 918" d="M64.593,244.143s3.141-19.538-8.306-30.551" transform="translate(-36.408 -98.57)" fill="none" stroke="#8a5f40" stroke-miterlimit="10" stroke-width="1.018"/>
          <path id="Path_919" data-name="Path 919" d="M77.872,265.743s1.111-15.332,13.958-20.523" transform="translate(-49.252 -117.39)" fill="none" stroke="#8a5f40" stroke-miterlimit="10" stroke-width="1.018"/>
          <path id="Path_920" data-name="Path 920" d="M57.32,269.544s-5.114-9.7-12.952-11.484" transform="translate(-29.316 -125.03)" fill="none" stroke="#8a5f40" stroke-miterlimit="10" stroke-width="1.018"/>
          <path id="Path_921" data-name="Path 921" d="M74.251,284.779,70.4,298.687h-8.05L58.521,284.87a.179.179,0,0,1-.014-.049l-.014-.042Z" transform="translate(-37.721 -140.928)" fill="#1e394c"/>
          <g id="Group_830" data-name="Group 830" transform="translate(25.918 143.941)" opacity="0.5" style="mix-blend-mode: multiply;isolation: isolate">
            <g id="Group_829" data-name="Group 829" transform="translate(0 0)">
              <g id="Group_828-2" data-name="Group 828" clip-path="url(#clip-path-3)">
                <path id="Path_922" data-name="Path 922" d="M71.2,298.82h6.759L81.784,285c-.37,1.145-4.357,13.042-10.584,13.817" transform="translate(-71.2 -285.003)" fill="#8391fc"/>
              </g>
            </g>
          </g>
          <path id="Path_923" data-name="Path 923" d="M152.5,63.653v68.375a2.587,2.587,0,0,1-2.476,2.687H43.613a2.587,2.587,0,0,1-2.48-2.687V63.653a2.586,2.586,0,0,1,2.48-2.683H150.029a2.586,2.586,0,0,1,2.476,2.683" transform="translate(-27.391 -7.756)" fill="#cee5ed"/>
          <path id="Path_924" data-name="Path 924" d="M152.5,63.653v4.9H41.133v-4.9a2.586,2.586,0,0,1,2.48-2.683H150.029a2.586,2.586,0,0,1,2.476,2.683" transform="translate(-27.391 -7.756)" fill="#ee8436"/>
          <path id="Path_925" data-name="Path 925" d="M55.543,69.138a1.229,1.229,0,1,1-1.229-1.229,1.229,1.229,0,0,1,1.229,1.229" transform="translate(-34.503 -11.885)" fill="#fff"/>
          <path id="Path_926" data-name="Path 926" d="M70.437,69.138a1.229,1.229,0,1,1-1.229-1.229,1.229,1.229,0,0,1,1.229,1.229" transform="translate(-43.365 -11.885)" fill="#fff"/>
          <path id="Path_927" data-name="Path 927" d="M85.332,69.138A1.229,1.229,0,1,1,84.1,67.909a1.229,1.229,0,0,1,1.229,1.229" transform="translate(-52.228 -11.885)" fill="#fff"/>
          <path id="Path_928" data-name="Path 928" d="M156.566,114.019,138.685,131.9l-10.528-10.528-19.092,19.092L94.746,126.144l-7.16,7.16-8.4-8.068L65.559,138.867" transform="translate(-41.925 -39.321)" fill="none" stroke="#fff" stroke-miterlimit="10" stroke-width="1.842"/>
          <path id="Path_929" data-name="Path 929" d="M290.114,110.156a1.616,1.616,0,1,1-1.616-1.616,1.616,1.616,0,0,1,1.616,1.616" transform="translate(-173.619 -36.061)" fill="#444a7c"/>
          <path id="Path_930" data-name="Path 930" d="M245.438,155.837a1.616,1.616,0,1,1-1.616-1.616,1.616,1.616,0,0,1,1.616,1.616" transform="translate(-147.035 -63.243)" fill="#1e394c"/>
          <path id="Path_931" data-name="Path 931" d="M219.672,130.561a1.616,1.616,0,1,1-1.616-1.616,1.616,1.616,0,0,1,1.616,1.616" transform="translate(-131.704 -48.203)" fill="#1e394c"/>
          <path id="Path_932" data-name="Path 932" d="M172.719,176.862a1.616,1.616,0,1,1-1.616-1.616,1.616,1.616,0,0,1,1.616,1.616" transform="translate(-103.765 -75.753)" fill="#1e394c"/>
          <path id="Path_933" data-name="Path 933" d="M137.806,142.153a1.616,1.616,0,1,1-1.616-1.616,1.616,1.616,0,0,1,1.616,1.616" transform="translate(-82.991 -55.1)" fill="#1e394c"/>
          <path id="Path_934" data-name="Path 934" d="M98.518,140.311A1.616,1.616,0,1,1,96.9,138.7a1.616,1.616,0,0,1,1.616,1.616" transform="translate(-59.614 -54.004)" fill="#1e394c"/>
          <path id="Path_935" data-name="Path 935" d="M65.646,173.01a1.616,1.616,0,1,1-1.616-1.616,1.616,1.616,0,0,1,1.616,1.616" transform="translate(-40.054 -73.461)" fill="#444a7c"/>
          <path id="Path_936" data-name="Path 936" d="M119.04,158.463a1.616,1.616,0,1,1-1.615-1.616,1.616,1.616,0,0,1,1.615,1.616" transform="translate(-71.825 -64.805)" fill="#1e394c"/>
          <g id="Group_833" data-name="Group 833" transform="translate(18.714 102.766)" style="mix-blend-mode: screen;isolation: isolate">
            <g id="Group_832" data-name="Group 832">
              <g id="Group_831" data-name="Group 831" clip-path="url(#clip-path-4)">
                <rect id="Rectangle_302" data-name="Rectangle 302" width="6.238" height="4.859" transform="translate(19.038 11.794)" fill="#cee5ed"/>
                <rect id="Rectangle_303" data-name="Rectangle 303" width="6.238" height="6.963" transform="translate(28.557 9.689)" fill="#cee5ed"/>
                <rect id="Rectangle_304" data-name="Rectangle 304" width="6.238" height="4.859" transform="translate(0 11.794)" fill="#cee5ed"/>
                <rect id="Rectangle_305" data-name="Rectangle 305" width="6.238" height="6.963" transform="translate(9.519 9.689)" fill="#cee5ed"/>
                <rect id="Rectangle_306" data-name="Rectangle 306" width="6.238" height="11.266" transform="translate(38.076 5.387)" fill="#cee5ed"/>
                <rect id="Rectangle_307" data-name="Rectangle 307" width="6.238" height="9.819" transform="translate(47.595 6.833)" fill="#cee5ed"/>
                <rect id="Rectangle_308" data-name="Rectangle 308" width="6.238" height="13.997" transform="translate(57.114 2.656)" fill="#cee5ed"/>
                <rect id="Rectangle_309" data-name="Rectangle 309" width="6.238" height="16.653" transform="translate(66.633)" fill="#cee5ed"/>
                <rect id="Rectangle_310" data-name="Rectangle 310" width="6.238" height="9.819" transform="translate(76.152 6.833)" fill="#cee5ed"/>
                <rect id="Rectangle_311" data-name="Rectangle 311" width="6.238" height="13.997" transform="translate(85.671 2.656)" fill="#cee5ed"/>
                <rect id="Rectangle_312" data-name="Rectangle 312" width="6.238" height="16.653" transform="translate(95.19)" fill="#cee5ed"/>
              </g>
            </g>
          </g>
          <g id="Group_836" data-name="Group 836" transform="translate(22.194 68.542)" style="mix-blend-mode: screen;isolation: isolate">
            <g id="Group_835" data-name="Group 835">
              <g id="Group_834" data-name="Group 834" clip-path="url(#clip-path-5)">
                <rect id="Rectangle_314" data-name="Rectangle 314" width="30.992" height="1.326" transform="translate(0)" fill="#8391fc"/>
              </g>
            </g>
          </g>
          <g id="Group_839" data-name="Group 839" transform="translate(22.194 72.354)" style="mix-blend-mode: screen;isolation: isolate">
            <g id="Group_838" data-name="Group 838">
              <g id="Group_837" data-name="Group 837" clip-path="url(#clip-path-6)">
                <rect id="Rectangle_316" data-name="Rectangle 316" width="14.741" height="1.326" transform="translate(0)" fill="#8391fc"/>
              </g>
            </g>
          </g>
          <rect id="Rectangle_318" data-name="Rectangle 318" width="42.993" height="44.409" transform="translate(95.498 34.083)" fill="#fff"/>
          <path id="Path_937" data-name="Path 937" d="M277.609,28.156V33.74a7,7,0,0,0-7,7h-5.588a12.58,12.58,0,0,1,12.583-12.579" transform="translate(-160.614 11.77)" fill="#cee5ed"/>
          <path id="Path_938" data-name="Path 938" d="M286.471,68.148a12.581,12.581,0,0,1-21.445-8.93h5.588a6.992,6.992,0,0,0,11.907,4.98Z" transform="translate(-160.614 -6.713)" fill="orange"/>
          <path id="Path_939" data-name="Path 939" d="M308.68,40.735a12.527,12.527,0,0,1-3.72,8.93l-3.95-3.95A6.995,6.995,0,0,0,296.1,33.74V28.156A12.58,12.58,0,0,1,308.68,40.735" transform="translate(-179.102 11.77)" fill="#ee8436"/>
          <rect id="Rectangle_319" data-name="Rectangle 319" width="25.796" height="0.885" transform="translate(104.097 67.997)" fill="#cee5ed"/>
          <rect id="Rectangle_320" data-name="Rectangle 320" width="25.796" height="0.885" transform="translate(104.097 71.79)" fill="#cee5ed"/>
          <rect id="Rectangle_322" data-name="Rectangle 322" width="30.779" height="23.512" transform="translate(0 78.245)" fill="#ee8436"/>
          <rect id="Rectangle_323" data-name="Rectangle 323" width="2.593" height="4.233" transform="translate(14.093 91.672)" fill="#fff"/>
          <rect id="Rectangle_324" data-name="Rectangle 324" width="2.593" height="9.005" transform="translate(18.894 86.899)" fill="#1e394c"/>
          <rect id="Rectangle_325" data-name="Rectangle 325" width="2.593" height="2.302" transform="translate(4.492 93.603)" fill="#fff"/>
          <rect id="Rectangle_326" data-name="Rectangle 326" width="2.593" height="6.067" transform="translate(9.292 89.838)" fill="#1e394c"/>
          <rect id="Rectangle_327" data-name="Rectangle 327" width="2.593" height="11.808" transform="translate(23.694 84.097)" fill="#fff"/>
          <path id="Path_952" data-name="Path 952" d="M290.654,196.115c-8.523.34-23.7,44.028-17.773,44.872,7.995,5.541,31.563-42.665,17.773-44.872" transform="translate(-164.491 -88.171)" fill="#f4a9a2"/>
          <path id="Path_953" data-name="Path 953" d="M238.181,246.037a3.936,3.936,0,0,1-3.857-.156c-9.187-5.407-29.968-40.626-26.9-41.046,1.881-1.136,39.741,36.258,30.758,41.2" transform="translate(-126.157 -93.344)" fill="#f4a9a2"/>
          <path id="Path_954" data-name="Path 954" d="M216.859,215.64l20.076,21.35,2.851-6.247,11.16,8.006s-6.49,13.768-12.555,14.739-27.536-35.967-27.536-35.967Z" transform="translate(-128.38 -99.789)" fill="#f2bf75"/>
          <path id="Path_955" data-name="Path 955" d="M210.957,199.511l.7.412.277-1.837v-.013l.329-3.2a5.036,5.036,0,0,0-.349-2.405l-2.157-2.937s-1.108-.183-.344,1.745a4.009,4.009,0,0,1-.117,2.04l-1-1.791-2.359-3.961c-.349-.536-1.4-.044-1.8.145a2.522,2.522,0,0,0-1.649,1.713,13.742,13.742,0,0,0-.36,1.59,9.8,9.8,0,0,0,.58,4.542,16.909,16.909,0,0,0,1.6,3.378c.614,1,1.413,1.829,2.082,2.776.766-.388,1.555-.748,2.331-1.12l1.564-.75c.069-.033.616-.367.684-.328" transform="translate(-123.139 -82.939)" fill="#f2bf75"/>
          <g id="Group_842" data-name="Group 842" transform="translate(57.488 72.772)" opacity="0.15">
            <g id="Group_841" data-name="Group 841" transform="translate(0 0)">
              <g id="Group_840" data-name="Group 840" clip-path="url(#clip-path-7)">
                <path id="Path_956" data-name="Path 956" d="M167.923,132.454a12.456,12.456,0,0,1-15.2-2.006,12.12,12.12,0,0,1-1.518-1.884c-.116-.174-.224-.35-.332-.532-.2-.347-.387-.7-.553-1.056a12.314,12.314,0,0,1-1.165-5.363,12.456,12.456,0,0,1,22.625-7.08c.2.279.385.573.562.872.133.225.259.455.375.686a12.249,12.249,0,0,1,.879,2.248,12.459,12.459,0,0,1-5.675,14.113" transform="translate(-149.156 -109.264)" fill="#fff"/>
              </g>
            </g>
          </g>
          <path id="Path_957" data-name="Path 957" d="M170.621,109.812a15.283,15.283,0,1,0-6.953,21.711,15.7,15.7,0,0,0,1.526-.788,15.278,15.278,0,0,0,5.427-20.923m-24.652,14.5a13.315,13.315,0,1,1,18.229,4.728,13.314,13.314,0,0,1-18.229-4.728" transform="translate(-87.506 -32.333)" fill="#1e394c"/>
          <rect id="Rectangle_329" data-name="Rectangle 329" width="3.164" height="20.234" transform="translate(76.173 98.943) rotate(-30.454)" fill="#1e394c"/>
          <path id="Path_958" data-name="Path 958" d="M219.129,206.49l-2.817,1.657a.675.675,0,0,1-.925-.24l-9.471-16.1a.676.676,0,0,1,.24-.925l2.817-1.657a.676.676,0,0,1,.925.24l9.47,16.1a.676.676,0,0,1-.24.925" transform="translate(-125.386 -84.013)" fill="#1e394c"/>
          <g id="Group_845" data-name="Group 845" transform="translate(57.488 74.369)" opacity="0.3" style="mix-blend-mode: screen;isolation: isolate">
            <g id="Group_844" data-name="Group 844">
              <g id="Group_843" data-name="Group 843" clip-path="url(#clip-path-8)">
                <path id="Path_959" data-name="Path 959" d="M171.782,116.882l-21.46,12.443a12.309,12.309,0,0,1-1.165-5.363L167.7,113.209a12.335,12.335,0,0,1,4.08,3.673" transform="translate(-149.156 -113.209)" fill="#fff"/>
              </g>
            </g>
          </g>
          <g id="Group_848" data-name="Group 848" transform="translate(59.539 79.6)" opacity="0.3" style="mix-blend-mode: screen;isolation: isolate">
            <g id="Group_847" data-name="Group 847">
              <g id="Group_846" data-name="Group 846" clip-path="url(#clip-path-9)">
                <path id="Path_960" data-name="Path 960" d="M176.611,128.374l-20.873,12.107a12.188,12.188,0,0,1-1.518-1.884l21.512-12.472a12.237,12.237,0,0,1,.879,2.248" transform="translate(-154.221 -126.126)" fill="#fff"/>
              </g>
            </g>
          </g>
          <path id="Path_961" data-name="Path 961" d="M297.077,191.829,297,202.565l-.159,21.176s-.172.275-.469.765c-.073.12-.15.245-.245.4-.271.429-.61.984-1,1.628l-4.8-3.231-1.775-1.194-7.355-4.954a159.7,159.7,0,0,1,6.47-15.033c4.541-8.459,9.409-10.294,9.409-10.294" transform="translate(-170.236 -85.62)" fill="#cee5ed"/>
          <g id="Group_851" data-name="Group 851" transform="translate(118.317 113.151)" style="mix-blend-mode: multiply;isolation: isolate">
            <g id="Group_850" data-name="Group 850">
              <g id="Group_849" data-name="Group 849" clip-path="url(#clip-path-10)">
                <path id="Path_962" data-name="Path 962" d="M307.807,212.767l-.159,21.176s-.172.275-.469.765c-.073.12-.15.245-.245.4-.271.43-.61.984-1,1.628l-4.8-3.231-1.775-1.194c.769-2.879,1.173-5.538,1.775-12.068.442-4.777,1.521-11.269,1.521-11.269s2.591,1.9,5.151,3.794" transform="translate(-299.36 -208.973)" fill="#c3d3ea"/>
              </g>
            </g>
          </g>
          <path id="Path_963" data-name="Path 963" d="M355.6,175.241l-6.986,5.242-4.979-4.443v-6.7l9.959-7.81.176,1.194.52,3.561Z" transform="translate(-207.391 -67.593)" fill="#f2bf75"/>
          <g id="Group_854" data-name="Group 854" transform="translate(136.248 95.133)" opacity="0.5" style="mix-blend-mode: multiply;isolation: isolate">
            <g id="Group_853" data-name="Group 853">
              <g id="Group_852" data-name="Group 852" clip-path="url(#clip-path-11)">
                <path id="Path_964" data-name="Path 964" d="M353.916,165.709c-2.728,5.418-9.039,8.081-10.277,8.459v-1.405l9.284-8.231a7.963,7.963,0,0,1,.85-.051Z" transform="translate(-343.639 -164.48)" fill="#f4a9a2"/>
              </g>
            </g>
          </g>
          <path id="Path_965" data-name="Path 965" d="M342.711,140.707a14.058,14.058,0,0,1-6.139,6.209c-2.015.982-4.3,2.314-6.627,1.856-2.056-.4-3.141-2.449-4.019-4.144a11.744,11.744,0,0,1-1.253-5.37,27.261,27.261,0,0,0-.329-5.912c-.341-1.555-.839-3.5.092-4.953,1.206-1.881,10.609-4.223,10.609-4.223l5.536,3.052,4.187,2.768Z" transform="translate(-195.647 -45.363)" fill="#f2bf75"/>
          <path id="Path_966" data-name="Path 966" d="M327.178,119.769a3.217,3.217,0,0,0,1.881,2.2s-3.016.355-4.826-.993c0,0,.851,1.313,1.561,1.526,0,0-3.761.177-4.968-1.206l.426,2.377a7.745,7.745,0,0,1-2.165-4.861c.025-1.888.874-3.622,1.453-5.381a5.056,5.056,0,0,1,2.068-3.062c3.015-1.6,6.678-1.336,9.882-.516a18.174,18.174,0,0,1,7.231,3.252c5.446,4.532,3.342,14.543-.311,19.557,0,0-.452-4.59-.523-6.009s-1.348-1.774-1.313-1.1-.073,3.988-.783,3.953-.986-5.831-2.689-7.038-5.541-1.563-6.925-2.7" transform="translate(-192.782 -36.453)" fill="#1e394c"/>
          <path id="Path_967" data-name="Path 967" d="M354.307,238.137H307.772c-1.177-14.511-2.745-37.109-1.464-41.8,1.468-5.391,4.352-7.585,8.758-8.53a60.417,60.417,0,0,1,6.085-.726c1.357,7.4,11.547.147,11.547.147s2.44.242,4.2.354c4.128.255,11.23,1.6,12.653,7.719.69,2.96,1.5,10.683,2.373,19.419.484,4.934.985,10.2,1.487,15.107.3,2.942.6,5.758.891,8.306" transform="translate(-184.893 -82.798)" fill="#cee5ed"/>
          <path id="Path_968" data-name="Path 968" d="M340.988,185.286l2.052,3.7-2.153,1.7-1.678-4.569" transform="translate(-204.755 -81.727)" fill="#fff"/>
          <path id="Path_969" data-name="Path 969" d="M348.669,187.322l9.209-4.832,1.84,2.285-9.7,5.176Z" transform="translate(-210.384 -80.064)" fill="#fff"/>
          <g id="Group_857" data-name="Group 857" transform="translate(155.926 121.484)" style="mix-blend-mode: multiply;isolation: isolate">
            <g id="Group_856" data-name="Group 856">
              <g id="Group_855" data-name="Group 855" clip-path="url(#clip-path-12)">
                <path id="Path_970" data-name="Path 970" d="M392.23,229.55s6.378,17.856,7.1,20.01.319,3.91-2.873,5.267,5.027,3.83,5.187,3.352,10.773-9.735,10.134-10.294S392.23,229.55,392.23,229.55" transform="translate(-392.23 -229.55)" fill="#c3d3ea"/>
              </g>
            </g>
          </g>
          <path id="Path_971" data-name="Path 971" d="M397.816,199.123c-5.682,6.361,15.156,47.651,19.886,43.976,9.542-1.892-8.711-52.35-19.886-43.976" transform="translate(-239.048 -89.403)" fill="#f4a9a2"/>
          <path id="Path_972" data-name="Path 972" d="M403.216,252.559s6.863,17.236,3.91,21.067-31.265,6.017-31.265,6.017l-1.212-7.773s19.67-4.828,19.73-5.127-4.788-8.8-4.788-8.8Z" transform="translate(-225.842 -121.757)" fill="#f2bf75"/>
          <path id="Path_973" data-name="Path 973" d="M381.29,294.427a3.935,3.935,0,0,1-2.041,3.276c-9.239,5.317-50.126,5.989-48.977,3.115-.06-2.2,51.156-16.644,51.018-6.391" transform="translate(-199.423 -144.504)" fill="#f2bf75"/>
          <path id="Path_974" data-name="Path 974" d="M394.764,221.955v-.009c-2.908-5.3-6.562-12.319-7.529-15.77,0,0-6.384-13.125-1.636-15.286a5.553,5.553,0,0,1,2.628-.594,23.858,23.858,0,0,1,13.345,9.631,88.265,88.265,0,0,1,7.834,15.626.03.03,0,0,1,.008.017Z" transform="translate(-231.313 -84.689)" fill="#cee5ed"/>
          <path id="Path_975" data-name="Path 975" d="M303.05,312.547c.068-.2,3.334-6.8,7.009-7.417s8.71,1.225,9.39,1.225,2.246-.136,2.246-.136l1.089,4.355s-2.892-.034-3.3.442a2.1,2.1,0,0,1-2.109,1.157c-1.531,0-3.1-1.429-4.967-1.429s-3.232,2.178-4.9,2.178a44.127,44.127,0,0,1-4.457-.374" transform="translate(-183.239 -152.964)" fill="#f2bf75"/>
        </g>
      </g>
    </g>
  </g>
</svg>
