<svg xmlns="http://www.w3.org/2000/svg" width="25" height="25" viewBox="0 0 25 25">
  <path id="Icon_ionic-ios-close-circle" data-name="Icon ionic-ios-close-circle" d="M15.375,3.375a12,12,0,1,0,12,12A12,12,0,0,0,15.375,3.375Zm3.04,16.344-3.04-3.04-3.04,3.04a.922.922,0,1,1-1.3-1.3l3.04-3.04-3.04-3.04a.922.922,0,0,1,1.3-1.3l3.04,3.04,3.04-3.04a.922.922,0,0,1,1.3,1.3l-3.04,3.04,3.04,3.04a.926.926,0,0,1,0,1.3A.916.916,0,0,1,18.415,19.719Z" transform="translate(-2.875 -2.875)" fill="orange" stroke="rgba(0,0,0,0)" stroke-miterlimit="10" stroke-width="1"/>
</svg>
