<svg xmlns="http://www.w3.org/2000/svg" width="16.09" height="16.09" viewBox="0 0 18.09 18.09">
  <path id="Icon_awesome-whatsapp" data-name="Icon awesome-whatsapp" d="M15.38,4.879A8.967,8.967,0,0,0,1.272,15.7L0,20.34l4.753-1.248a8.937,8.937,0,0,0,4.284,1.09h0a9.05,9.05,0,0,0,9.049-8.964,9,9,0,0,0-2.709-6.34ZM9.041,18.672a7.437,7.437,0,0,1-3.8-1.038l-.271-.162-2.818.739.751-2.75-.178-.283a7.465,7.465,0,1,1,13.846-3.961A7.534,7.534,0,0,1,9.041,18.672Zm4.086-5.58c-.222-.113-1.324-.654-1.53-.727s-.355-.113-.5.113-.577.727-.711.88-.262.17-.485.057A6.1,6.1,0,0,1,6.848,10.75c-.23-.4.23-.367.658-1.223a.415.415,0,0,0-.02-.392c-.057-.113-.5-1.215-.69-1.664s-.367-.376-.5-.384-.279-.008-.428-.008a.83.83,0,0,0-.6.279,2.517,2.517,0,0,0-.783,1.87,4.388,4.388,0,0,0,.913,2.318,10.009,10.009,0,0,0,3.828,3.384,4.383,4.383,0,0,0,2.689.561,2.294,2.294,0,0,0,1.51-1.066,1.873,1.873,0,0,0,.129-1.066C13.5,13.257,13.349,13.2,13.127,13.092Z" transform="translate(0 -2.25)"/>
</svg>
