<svg xmlns="http://www.w3.org/2000/svg" width="15.615" height="15.615" viewBox="0 0 15.615 15.615">
  <path id="Icon_ionic-ios-close-circle" data-name="Icon ionic-ios-close-circle" d="M11.183,3.375a7.808,7.808,0,1,0,7.808,7.808A7.806,7.806,0,0,0,11.183,3.375Zm1.978,10.634-1.978-1.978L9.2,14.009a.6.6,0,1,1-.848-.848l1.978-1.978L8.356,9.2A.6.6,0,0,1,9.2,8.356l1.978,1.978,1.978-1.978a.6.6,0,0,1,.848.848l-1.978,1.978,1.978,1.978a.6.6,0,0,1,0,.848A.6.6,0,0,1,13.161,14.009Z" transform="translate(-3.375 -3.375)" fill="#e30000"/>
</svg>
